<ttFont>
<head>
    <!-- Most of this table will be recalculated by the compiler -->
    <tableVersion value="1.0"/>
    <fontRevision value="1.29999"/>
    <checkSumAdjustment value="0x70644abb"/>
    <magicNumber value="0x5f0f3cf5"/>
    <flags value="00000000 00001001"/>
    <unitsPerEm value="1000"/>
    <created value="Mon Oct 19 13:13:12 2015"/>
    <modified value="Mon Aug  1 23:07:46 2016"/>
    <xMin value="-69"/>
    <yMin value="-416"/>
    <xMax value="790"/>
    <yMax value="1249"/>
    <macStyle value="00000000 00000010"/>
    <lowestRecPPEM value="9"/>
    <fontDirectionHint value="2"/>
    <indexToLocFormat value="0"/>
    <glyphDataFormat value="0"/>
  </head>
    <TTGlyph name=".notdef" xMin="-7" yMin="-200" xMax="548" yMax="800">
      <contour>
        <pt x="-7" y="800" on="1"/>
        <pt x="533" y="800" on="1"/>
        <pt x="548" y="-200" on="1"/>
        <pt x="8" y="-200" on="1"/>
      </contour>
      <contour>
        <pt x="269" y="360" on="1"/>
        <pt x="457" y="750" on="1"/>
        <pt x="70" y="750" on="1"/>
      </contour>
      <contour>
        <pt x="301" y="300" on="1"/>
        <pt x="492" y="-76" on="1"/>
        <pt x="481" y="676" on="1"/>
      </contour>
      <contour>
        <pt x="240" y="300" on="1"/>
        <pt x="49" y="676" on="1"/>
        <pt x="60" y="-76" on="1"/>
      </contour>
      <contour>
        <pt x="84" y="-150" on="1"/>
        <pt x="471" y="-150" on="1"/>
        <pt x="271" y="240" on="1"/>
      </contour>
    </TTGlyph>
    <TTGlyph name="A" xMin="8" yMin="-3" xMax="525" yMax="691">
      <contour>
        <pt x="453" y="-3" on="1"/>
        <pt x="448" y="53" on="0"/>
        <pt x="438" y="164" on="0"/>
        <pt x="433" y="221" on="1"/>
        <pt x="186" y="221" on="1"/>
        <pt x="159" y="165" on="0"/>
        <pt x="107" y="55" on="0"/>
        <pt x="81" y="0" on="1"/>
        <pt x="8" y="0" on="1"/>
        <pt x="89" y="174" on="0"/>
        <pt x="260" y="517" on="0"/>
        <pt x="349" y="691" on="1"/>
        <pt x="452" y="691" on="1"/>
        <pt x="472" y="518" on="0"/>
        <pt x="509" y="177" on="0"/>
        <pt x="525" y="3" on="1"/>
      </contour>
      <contour>
        <pt x="385" y="627" on="1"/>
        <pt x="341" y="539" on="0"/>
        <pt x="255" y="365" on="0"/>
        <pt x="213" y="277" on="1"/>
        <pt x="428" y="277" on="1"/>
        <pt x="420" y="365" on="0"/>
        <pt x="402" y="539" on="0"/>
        <pt x="393" y="627" on="1"/>
      </contour>
    </TTGlyph>
    <TTGlyph name="AE" xMin="-10" yMin="0" xMax="670" yMax="688">
      <contour>
        <pt x="392" y="627" on="1"/>
        <pt x="344" y="536" on="0"/>
        <pt x="251" y="357" on="0"/>
        <pt x="204" y="267" on="1"/>
        <pt x="331" y="267" on="1"/>
        <pt x="401" y="627" on="1"/>
      </contour>
      <contour>
        <pt x="320" y="212" on="1"/>
        <pt x="176" y="212" on="1"/>
        <pt x="148" y="158" on="0"/>
        <pt x="93" y="53" on="0"/>
        <pt x="65" y="0" on="1"/>
        <pt x="-10" y="0" on="1"/>
        <pt x="81" y="171" on="0"/>
        <pt x="266" y="515" on="0"/>
        <pt x="361" y="688" on="1"/>
        <pt x="670" y="688" on="1"/>
        <pt x="658" y="627" on="1"/>
        <pt x="468" y="627" on="1"/>
        <pt x="419" y="376" on="1"/>
        <pt x="580" y="376" on="1"/>
        <pt x="569" y="322" on="1"/>
        <pt x="409" y="322" on="1"/>
        <pt x="358" y="62" on="1"/>
        <pt x="551" y="62" on="1"/>
        <pt x="534" y="0" on="1"/>
        <pt x="279" y="0" on="1"/>
      </contour>
    </TTGlyph>
    <TTGlyph name="AEacute" xMin="-10" yMin="0" xMax="690" yMax="987">
      <component glyphName="acute.cap" x="211" y="149" flags="0x204"/>
      <component glyphName="AE" x="0" y="0" flags="0x4"/>
    </TTGlyph>
    <TTGlyph name="Aacute" xMin="8" yMin="-3" xMax="577" yMax="990">
      <component glyphName="A" x="0" y="0" flags="0x204"/>
      <component glyphName="acute.cap" x="98" y="152" flags="0x4"/>
    </TTGlyph>
    <TTGlyph name="Abreve" xMin="8" yMin="-3" xMax="649" yMax="968">
      <component glyphName="A" x="0" y="0" flags="0x204"/>
      <component glyphName="breve.cap" x="124" y="152" flags="0x4"/>
    </TTGlyph>
    <TTGlyph name="Acircumflex" xMin="8" yMin="-3" xMax="611" yMax="977">
      <component glyphName="A" x="0" y="0" flags="0x204"/>
      <component glyphName="circumflex.cap" x="114" y="152" flags="0x4"/>
    </TTGlyph>
    <TTGlyph name="Adieresis" xMin="8" yMin="-3" xMax="607" yMax="932">
      <component glyphName="A" x="0" y="0" flags="0x204"/>
      <component glyphName="dieresis.cap" x="105" y="152" flags="0x4"/>
    </TTGlyph>
    <TTGlyph name="Agrave" xMin="8" yMin="-3" xMax="537" yMax="997">
      <component glyphName="A" x="0" y="0" flags="0x204"/>
      <component glyphName="grave.cap" x="114" y="152" flags="0x4"/>
    </TTGlyph>
    <TTGlyph name="Amacron" xMin="8" yMin="-3" xMax="618" yMax="889">
      <component glyphName="A" x="0" y="0" flags="0x204"/>
      <component glyphName="macron.cap" x="121" y="152" flags="0x4"/>
    </TTGlyph>
    <TTGlyph name="Aogonek" xMin="8" yMin="-230" xMax="525" yMax="691">
      <contour>
        <pt x="385" y="627" on="1"/>
        <pt x="341" y="539" on="0"/>
        <pt x="255" y="365" on="0"/>
        <pt x="213" y="277" on="1"/>
        <pt x="428" y="277" on="1"/>
        <pt x="420" y="365" on="0"/>
        <pt x="402" y="539" on="0"/>
        <pt x="393" y="627" on="1"/>
      </contour>
      <contour>
        <pt x="525" y="3" on="1"/>
        <pt x="414" y="-36" on="0"/>
        <pt x="317" y="-109" on="0"/>
        <pt x="317" y="-140" on="1"/>
        <pt x="317" y="-157" on="0"/>
        <pt x="342" y="-178" on="0"/>
        <pt x="371" y="-178" on="1"/>
        <pt x="391" y="-178" on="0"/>
        <pt x="445" y="-165" on="0"/>
        <pt x="482" y="-151" on="1"/>
        <pt x="492" y="-185" on="1"/>
        <pt x="445" y="-209" on="0"/>
        <pt x="371" y="-230" on="0"/>
        <pt x="342" y="-230" on="1"/>
        <pt x="297" y="-230" on="0"/>
        <pt x="251" y="-189" on="0"/>
        <pt x="251" y="-158" on="1"/>
        <pt x="251" y="-119" on="0"/>
        <pt x="345" y="-32" on="0"/>
        <pt x="452" y="13" on="1"/>
        <pt x="447" y="65" on="0"/>
        <pt x="438" y="169" on="0"/>
        <pt x="433" y="221" on="1"/>
        <pt x="186" y="221" on="1"/>
        <pt x="159" y="165" on="0"/>
        <pt x="107" y="55" on="0"/>
        <pt x="81" y="0" on="1"/>
        <pt x="8" y="0" on="1"/>
        <pt x="89" y="174" on="0"/>
        <pt x="260" y="517" on="0"/>
        <pt x="349" y="691" on="1"/>
        <pt x="452" y="691" on="1"/>
        <pt x="472" y="518" on="0"/>
        <pt x="509" y="177" on="0"/>
      </contour>
    </TTGlyph>
    <TTGlyph name="Aring" xMin="8" yMin="-3" xMax="579" yMax="989">
      <component glyphName="A" x="0" y="0" flags="0x204"/>
      <component glyphName="ring.cap" x="36" y="152" flags="0x4"/>
    </TTGlyph>
    <TTGlyph name="Aringacute" xMin="8" yMin="-3" xMax="647" yMax="1249">
      <component glyphName="A" x="0" y="0" flags="0x204"/>
      <component glyphName="ring.cap" x="36" y="151" flags="0x4"/>
      <component glyphName="acute" x="168" y="411" flags="0x4"/>
    </TTGlyph>
    <TTGlyph name="Atilde" xMin="8" yMin="-3" xMax="663" yMax="957">
      <component glyphName="A" x="0" y="0" flags="0x204"/>
      <component glyphName="tilde.cap" x="119" y="152" flags="0x4"/>
    </TTGlyph>
    <TTGlyph name="B" xMin="69" yMin="-8" xMax="579" yMax="696">
      <contour>
        <pt x="545" y="206" on="1"/>
        <pt x="545" y="167" on="0"/>
        <pt x="507" y="90" on="0"/>
        <pt x="424" y="29" on="0"/>
        <pt x="291" y="-8" on="0"/>
        <pt x="196" y="-8" on="1"/>
        <pt x="167" y="-8" on="0"/>
        <pt x="104" y="-4" on="0"/>
        <pt x="69" y="0" on="1"/>
        <pt x="202" y="686" on="1"/>
        <pt x="238" y="691" on="0"/>
        <pt x="303" y="696" on="0"/>
        <pt x="332" y="696" on="1"/>
        <pt x="396" y="696" on="0"/>
        <pt x="490" y="673" on="0"/>
        <pt x="550" y="633" on="0"/>
        <pt x="579" y="579" on="0"/>
        <pt x="579" y="548" on="1"/>
        <pt x="579" y="482" on="0"/>
        <pt x="478" y="379" on="0"/>
        <pt x="389" y="355" on="1"/>
        <pt x="459" y="342" on="0"/>
        <pt x="545" y="263" on="0"/>
      </contour>
      <contour>
        <pt x="509" y="531" on="1"/>
        <pt x="509" y="579" on="0"/>
        <pt x="424" y="637" on="0"/>
        <pt x="333" y="637" on="1"/>
        <pt x="317" y="637" on="0"/>
        <pt x="283" y="635" on="0"/>
        <pt x="264" y="633" on="1"/>
        <pt x="212" y="367" on="1"/>
        <pt x="291" y="370" on="0"/>
        <pt x="403" y="399" on="0"/>
        <pt x="475" y="444" on="0"/>
        <pt x="509" y="500" on="0"/>
      </contour>
      <contour>
        <pt x="475" y="199" on="1"/>
        <pt x="475" y="253" on="0"/>
        <pt x="370" y="323" on="0"/>
        <pt x="253" y="323" on="1"/>
        <pt x="241" y="323" on="0"/>
        <pt x="217" y="322" on="0"/>
        <pt x="203" y="321" on="1"/>
        <pt x="153" y="59" on="1"/>
        <pt x="173" y="57" on="0"/>
        <pt x="211" y="55" on="0"/>
        <pt x="229" y="55" on="1"/>
        <pt x="293" y="55" on="0"/>
        <pt x="386" y="78" on="0"/>
        <pt x="446" y="118" on="0"/>
        <pt x="475" y="170" on="0"/>
      </contour>
    </TTGlyph>
    <TTGlyph name="C" xMin="84" yMin="-15" xMax="578" yMax="703">
      <contour>
        <pt x="427" y="703" on="1"/>
        <pt x="511" y="703" on="0"/>
        <pt x="578" y="596" on="0"/>
        <pt x="578" y="494" on="1"/>
        <pt x="578" y="483" on="0"/>
        <pt x="578" y="463" on="0"/>
        <pt x="577" y="452" on="1"/>
        <pt x="508" y="451" on="1"/>
        <pt x="508" y="480" on="1"/>
        <pt x="508" y="519" on="0"/>
        <pt x="500" y="578" on="0"/>
        <pt x="479" y="618" on="0"/>
        <pt x="442" y="638" on="0"/>
        <pt x="412" y="638" on="1"/>
        <pt x="358" y="638" on="0"/>
        <pt x="264" y="572" on="0"/>
        <pt x="195" y="465" on="0"/>
        <pt x="156" y="329" on="0"/>
        <pt x="156" y="259" on="1"/>
        <pt x="156" y="154" on="0"/>
        <pt x="245" y="51" on="0"/>
        <pt x="331" y="51" on="1"/>
        <pt x="406" y="51" on="0"/>
        <pt x="514" y="92" on="1"/>
        <pt x="507" y="24" on="1"/>
        <pt x="399" y="-15" on="0"/>
        <pt x="316" y="-15" on="1"/>
        <pt x="204" y="-15" on="0"/>
        <pt x="84" y="118" on="0"/>
        <pt x="84" y="245" on="1"/>
        <pt x="84" y="333" on="0"/>
        <pt x="137" y="499" on="0"/>
        <pt x="229" y="626" on="0"/>
        <pt x="355" y="703" on="0"/>
      </contour>
    </TTGlyph>
    <TTGlyph name="Cacute" xMin="84" yMin="-15" xMax="581" yMax="1002">
      <component glyphName="C" x="0" y="0" flags="0x204"/>
      <component glyphName="acute.cap" x="102" y="164" flags="0x4"/>
    </TTGlyph>
    <TTGlyph name="Ccaron" xMin="84" yMin="-15" xMax="639" yMax="986">
      <component glyphName="C" x="0" y="0" flags="0x204"/>
      <component glyphName="caron.cap" x="114" y="164" flags="0x4"/>
    </TTGlyph>
    <TTGlyph name="Ccedilla" xMin="84" yMin="-200" xMax="578" yMax="703">
      <contour>
        <pt x="327" y="-200" on="1"/>
        <pt x="328" y="-192" on="0"/>
        <pt x="328" y="-176" on="0"/>
        <pt x="328" y="-168" on="1"/>
        <pt x="328" y="-103" on="0"/>
        <pt x="293" y="-47" on="0"/>
        <pt x="265" y="-47" on="1"/>
        <pt x="235" y="-47" on="0"/>
        <pt x="180" y="-111" on="0"/>
        <pt x="153" y="-168" on="1"/>
        <pt x="114" y="-155" on="1"/>
        <pt x="166" y="-30" on="0"/>
        <pt x="231" y="-3" on="1"/>
        <pt x="159" y="20" on="0"/>
        <pt x="84" y="145" on="0"/>
        <pt x="84" y="245" on="1"/>
        <pt x="84" y="333" on="0"/>
        <pt x="137" y="499" on="0"/>
        <pt x="229" y="626" on="0"/>
        <pt x="355" y="703" on="0"/>
        <pt x="427" y="703" on="1"/>
        <pt x="511" y="703" on="0"/>
        <pt x="578" y="596" on="0"/>
        <pt x="578" y="494" on="1"/>
        <pt x="578" y="483" on="0"/>
        <pt x="578" y="463" on="0"/>
        <pt x="577" y="452" on="1"/>
        <pt x="508" y="451" on="1"/>
        <pt x="508" y="480" on="1"/>
        <pt x="508" y="519" on="0"/>
        <pt x="500" y="578" on="0"/>
        <pt x="479" y="618" on="0"/>
        <pt x="442" y="638" on="0"/>
        <pt x="412" y="638" on="1"/>
        <pt x="358" y="638" on="0"/>
        <pt x="264" y="572" on="0"/>
        <pt x="195" y="465" on="0"/>
        <pt x="156" y="329" on="0"/>
        <pt x="156" y="259" on="1"/>
        <pt x="156" y="154" on="0"/>
        <pt x="245" y="51" on="0"/>
        <pt x="331" y="51" on="1"/>
        <pt x="406" y="51" on="0"/>
        <pt x="514" y="92" on="1"/>
        <pt x="507" y="24" on="1"/>
        <pt x="411" y="-11" on="0"/>
        <pt x="336" y="-14" on="1"/>
        <pt x="362" y="-34" on="0"/>
        <pt x="392" y="-109" on="0"/>
        <pt x="392" y="-169" on="1"/>
        <pt x="392" y="-176" on="0"/>
        <pt x="392" y="-190" on="0"/>
        <pt x="391" y="-198" on="1"/>
      </contour>
    </TTGlyph>
    <TTGlyph name="Cdotaccent" xMin="84" yMin="-15" xMax="578" yMax="942">
      <component glyphName="dotaccent.cap" x="119" y="164" flags="0x204"/>
      <component glyphName="C" x="0" y="0" flags="0x4"/>
    </TTGlyph>
    <TTGlyph name="D" xMin="61" yMin="-6" xMax="583" yMax="697">
      <contour>
        <pt x="583" y="424" on="1"/>
        <pt x="583" y="338" on="0"/>
        <pt x="531" y="182" on="0"/>
        <pt x="425" y="64" on="0"/>
        <pt x="264" y="-6" on="0"/>
        <pt x="155" y="-6" on="1"/>
        <pt x="110" y="-6" on="0"/>
        <pt x="61" y="0" on="1"/>
        <pt x="194" y="686" on="1"/>
        <pt x="258" y="697" on="0"/>
        <pt x="307" y="697" on="1"/>
        <pt x="441" y="697" on="0"/>
        <pt x="583" y="561" on="0"/>
      </contour>
      <contour>
        <pt x="511" y="416" on="1"/>
        <pt x="511" y="528" on="0"/>
        <pt x="406" y="635" on="0"/>
        <pt x="306" y="635" on="1"/>
        <pt x="282" y="635" on="0"/>
        <pt x="255" y="632" on="1"/>
        <pt x="144" y="57" on="1"/>
        <pt x="155" y="56" on="0"/>
        <pt x="174" y="55" on="0"/>
        <pt x="184" y="55" on="1"/>
        <pt x="267" y="55" on="0"/>
        <pt x="390" y="113" on="0"/>
        <pt x="471" y="212" on="0"/>
        <pt x="511" y="343" on="0"/>
      </contour>
    </TTGlyph>
    <TTGlyph name="Dcaron" xMin="61" yMin="-6" xMax="650" yMax="980">
      <component glyphName="caron.cap" x="125" y="158" flags="0x204"/>
      <component glyphName="D" x="0" y="0" flags="0x4"/>
    </TTGlyph>
    <TTGlyph name="Dcroat" xMin="40" yMin="-6" xMax="583" yMax="697">
      <contour>
        <pt x="583" y="424" on="1"/>
        <pt x="583" y="338" on="0"/>
        <pt x="531" y="182" on="0"/>
        <pt x="425" y="64" on="0"/>
        <pt x="264" y="-6" on="0"/>
        <pt x="155" y="-6" on="1"/>
        <pt x="110" y="-6" on="0"/>
        <pt x="61" y="0" on="1"/>
        <pt x="124" y="323" on="1"/>
        <pt x="40" y="323" on="1"/>
        <pt x="51" y="376" on="1"/>
        <pt x="134" y="376" on="1"/>
        <pt x="194" y="686" on="1"/>
        <pt x="258" y="697" on="0"/>
        <pt x="307" y="697" on="1"/>
        <pt x="441" y="697" on="0"/>
        <pt x="583" y="561" on="0"/>
      </contour>
      <contour>
        <pt x="195" y="323" on="1"/>
        <pt x="144" y="57" on="1"/>
        <pt x="155" y="56" on="0"/>
        <pt x="174" y="55" on="0"/>
        <pt x="184" y="55" on="1"/>
        <pt x="267" y="55" on="0"/>
        <pt x="390" y="113" on="0"/>
        <pt x="471" y="212" on="0"/>
        <pt x="511" y="343" on="0"/>
        <pt x="511" y="416" on="1"/>
        <pt x="511" y="528" on="0"/>
        <pt x="406" y="635" on="0"/>
        <pt x="306" y="635" on="1"/>
        <pt x="282" y="635" on="0"/>
        <pt x="255" y="632" on="1"/>
        <pt x="205" y="376" on="1"/>
        <pt x="364" y="376" on="1"/>
        <pt x="351" y="323" on="1"/>
      </contour>
    </TTGlyph>
    <TTGlyph name="E" xMin="78" yMin="0" xMax="615" yMax="688">
      <contour>
        <pt x="479" y="0" on="1"/>
        <pt x="78" y="0" on="1"/>
        <pt x="211" y="688" on="1"/>
        <pt x="615" y="688" on="1"/>
        <pt x="602" y="626" on="1"/>
        <pt x="271" y="626" on="1"/>
        <pt x="223" y="376" on="1"/>
        <pt x="504" y="376" on="1"/>
        <pt x="493" y="321" on="1"/>
        <pt x="212" y="321" on="1"/>
        <pt x="162" y="63" on="1"/>
        <pt x="495" y="63" on="1"/>
      </contour>
    </TTGlyph>
    <TTGlyph name="Eacute" xMin="78" yMin="0" xMax="615" yMax="987">
      <component glyphName="acute.cap" x="112" y="149" flags="0x204"/>
      <component glyphName="E" x="0" y="0" flags="0x4"/>
    </TTGlyph>
    <TTGlyph name="Ebreve" xMin="78" yMin="0" xMax="663" yMax="965">
      <component glyphName="breve.cap" x="138" y="149" flags="0x204"/>
      <component glyphName="E" x="0" y="0" flags="0x4"/>
    </TTGlyph>
    <TTGlyph name="Ecaron" xMin="78" yMin="0" xMax="649" yMax="971">
      <component glyphName="caron.cap" x="124" y="149" flags="0x204"/>
      <component glyphName="E" x="0" y="0" flags="0x4"/>
    </TTGlyph>
    <TTGlyph name="Ecircumflex" xMin="78" yMin="0" xMax="625" yMax="974">
      <component glyphName="E" x="0" y="0" flags="0x204"/>
      <component glyphName="circumflex.cap" x="128" y="149" flags="0x4"/>
    </TTGlyph>
    <TTGlyph name="Edieresis" xMin="78" yMin="0" xMax="621" yMax="929">
      <component glyphName="dieresis.cap" x="119" y="149" flags="0x204"/>
      <component glyphName="E" x="0" y="0" flags="0x4"/>
    </TTGlyph>
    <TTGlyph name="Edotaccent" xMin="78" yMin="0" xMax="615" yMax="927">
      <component glyphName="dotaccent.cap" x="129" y="149" flags="0x204"/>
      <component glyphName="E" x="0" y="0" flags="0x4"/>
    </TTGlyph>
    <TTGlyph name="Egrave" xMin="78" yMin="0" xMax="615" yMax="994">
      <component glyphName="grave.cap" x="128" y="149" flags="0x204"/>
      <component glyphName="E" x="0" y="0" flags="0x4"/>
    </TTGlyph>
    <TTGlyph name="Emacron" xMin="78" yMin="0" xMax="632" yMax="886">
      <component glyphName="macron.cap" x="135" y="149" flags="0x204"/>
      <component glyphName="E" x="0" y="0" flags="0x4"/>
    </TTGlyph>
    <TTGlyph name="Eogonek" xMin="78" yMin="-231" xMax="615" yMax="688">
      <contour>
        <pt x="479" y="0" on="1"/>
        <pt x="368" y="-39" on="0"/>
        <pt x="271" y="-110" on="0"/>
        <pt x="271" y="-140" on="1"/>
        <pt x="271" y="-157" on="0"/>
        <pt x="297" y="-178" on="0"/>
        <pt x="326" y="-178" on="1"/>
        <pt x="346" y="-178" on="0"/>
        <pt x="400" y="-166" on="0"/>
        <pt x="436" y="-152" on="1"/>
        <pt x="446" y="-186" on="1"/>
        <pt x="400" y="-210" on="0"/>
        <pt x="325" y="-231" on="0"/>
        <pt x="296" y="-231" on="1"/>
        <pt x="251" y="-231" on="0"/>
        <pt x="205" y="-190" on="0"/>
        <pt x="205" y="-160" on="1"/>
        <pt x="205" y="-123" on="0"/>
        <pt x="287" y="-42" on="0"/>
        <pt x="381" y="0" on="1"/>
        <pt x="78" y="0" on="1"/>
        <pt x="211" y="688" on="1"/>
        <pt x="615" y="688" on="1"/>
        <pt x="602" y="626" on="1"/>
        <pt x="271" y="626" on="1"/>
        <pt x="223" y="376" on="1"/>
        <pt x="504" y="376" on="1"/>
        <pt x="493" y="321" on="1"/>
        <pt x="212" y="321" on="1"/>
        <pt x="162" y="63" on="1"/>
        <pt x="495" y="63" on="1"/>
        <pt x="479" y="0" on="1"/>
      </contour>
    </TTGlyph>
    <TTGlyph name="Eth" xMin="40" yMin="-6" xMax="583" yMax="697">
      <contour>
        <pt x="583" y="424" on="1"/>
        <pt x="583" y="338" on="0"/>
        <pt x="531" y="182" on="0"/>
        <pt x="425" y="64" on="0"/>
        <pt x="264" y="-6" on="0"/>
        <pt x="155" y="-6" on="1"/>
        <pt x="110" y="-6" on="0"/>
        <pt x="61" y="0" on="1"/>
        <pt x="124" y="323" on="1"/>
        <pt x="40" y="323" on="1"/>
        <pt x="51" y="376" on="1"/>
        <pt x="134" y="376" on="1"/>
        <pt x="194" y="686" on="1"/>
        <pt x="258" y="697" on="0"/>
        <pt x="307" y="697" on="1"/>
        <pt x="441" y="697" on="0"/>
        <pt x="583" y="561" on="0"/>
      </contour>
      <contour>
        <pt x="195" y="323" on="1"/>
        <pt x="144" y="57" on="1"/>
        <pt x="155" y="56" on="0"/>
        <pt x="174" y="55" on="0"/>
        <pt x="184" y="55" on="1"/>
        <pt x="267" y="55" on="0"/>
        <pt x="390" y="113" on="0"/>
        <pt x="471" y="212" on="0"/>
        <pt x="511" y="343" on="0"/>
        <pt x="511" y="416" on="1"/>
        <pt x="511" y="528" on="0"/>
        <pt x="406" y="635" on="0"/>
        <pt x="306" y="635" on="1"/>
        <pt x="282" y="635" on="0"/>
        <pt x="255" y="632" on="1"/>
        <pt x="205" y="376" on="1"/>
        <pt x="364" y="376" on="1"/>
        <pt x="351" y="323" on="1"/>
      </contour>
    </TTGlyph>
    <TTGlyph name="Euro" xMin="38" yMin="-14" xMax="613" yMax="703">
      <contour>
        <pt x="525" y="36" on="1"/>
        <pt x="415" y="-14" on="0"/>
        <pt x="331" y="-14" on="1"/>
        <pt x="234" y="-14" on="0"/>
        <pt x="129" y="110" on="0"/>
        <pt x="124" y="218" on="1"/>
        <pt x="38" y="218" on="1"/>
        <pt x="50" y="275" on="1"/>
        <pt x="124" y="275" on="1"/>
        <pt x="127" y="334" on="0"/>
        <pt x="144" y="393" on="1"/>
        <pt x="71" y="393" on="1"/>
        <pt x="83" y="449" on="1"/>
        <pt x="163" y="449" on="1"/>
        <pt x="184" y="503" on="0"/>
        <pt x="247" y="596" on="0"/>
        <pt x="323" y="664" on="0"/>
        <pt x="413" y="703" on="0"/>
        <pt x="461" y="703" on="1"/>
        <pt x="541" y="703" on="0"/>
        <pt x="610" y="606" on="0"/>
        <pt x="613" y="511" on="1"/>
        <pt x="546" y="502" on="1"/>
        <pt x="545" y="535" on="0"/>
        <pt x="535" y="587" on="0"/>
        <pt x="512" y="623" on="0"/>
        <pt x="475" y="642" on="0"/>
        <pt x="446" y="642" on="1"/>
        <pt x="411" y="642" on="0"/>
        <pt x="346" y="611" on="0"/>
        <pt x="291" y="558" on="0"/>
        <pt x="245" y="486" on="0"/>
        <pt x="229" y="445" on="1"/>
        <pt x="482" y="445" on="1"/>
        <pt x="469" y="393" on="1"/>
        <pt x="211" y="393" on="1"/>
        <pt x="203" y="364" on="0"/>
        <pt x="193" y="305" on="0"/>
        <pt x="192" y="276" on="1"/>
        <pt x="447" y="276" on="1"/>
        <pt x="434" y="224" on="1"/>
        <pt x="192" y="224" on="1"/>
        <pt x="204" y="48" on="0"/>
        <pt x="355" y="48" on="1"/>
        <pt x="421" y="48" on="0"/>
        <pt x="516" y="81" on="1"/>
        <pt x="525" y="36" on="1"/>
      </contour>
    </TTGlyph>
    <TTGlyph name="F" xMin="80" yMin="0" xMax="629" yMax="688">
      <contour>
        <pt x="210" y="305" on="1"/>
        <pt x="151" y="0" on="1"/>
        <pt x="80" y="0" on="1"/>
        <pt x="213" y="688" on="1"/>
        <pt x="629" y="688" on="1"/>
        <pt x="618" y="625" on="1"/>
        <pt x="272" y="625" on="1"/>
        <pt x="221" y="362" on="1"/>
        <pt x="514" y="362" on="1"/>
        <pt x="503" y="305" on="1"/>
      </contour>
    </TTGlyph>
    <TTGlyph name="G" xMin="83" yMin="-123" xMax="567" yMax="703">
      <contour>
        <pt x="384" y="-123" on="1"/>
        <pt x="413" y="6" on="1"/>
        <pt x="350" y="-13" on="0"/>
        <pt x="296" y="-13" on="1"/>
        <pt x="194" y="-13" on="0"/>
        <pt x="83" y="118" on="0"/>
        <pt x="83" y="243" on="1"/>
        <pt x="83" y="333" on="0"/>
        <pt x="136" y="499" on="0"/>
        <pt x="226" y="626" on="0"/>
        <pt x="347" y="703" on="0"/>
        <pt x="415" y="703" on="1"/>
        <pt x="497" y="703" on="0"/>
        <pt x="567" y="597" on="0"/>
        <pt x="567" y="488" on="1"/>
        <pt x="567" y="479" on="0"/>
        <pt x="567" y="461" on="0"/>
        <pt x="566" y="452" on="1"/>
        <pt x="498" y="452" on="1"/>
        <pt x="498" y="479" on="1"/>
        <pt x="498" y="557" on="0"/>
        <pt x="461" y="638" on="0"/>
        <pt x="404" y="638" on="1"/>
        <pt x="351" y="638" on="0"/>
        <pt x="260" y="571" on="0"/>
        <pt x="193" y="463" on="0"/>
        <pt x="155" y="326" on="0"/>
        <pt x="155" y="256" on="1"/>
        <pt x="155" y="153" on="0"/>
        <pt x="235" y="50" on="0"/>
        <pt x="313" y="50" on="1"/>
        <pt x="365" y="50" on="0"/>
        <pt x="428" y="72" on="1"/>
        <pt x="471" y="265" on="1"/>
        <pt x="540" y="268" on="1"/>
        <pt x="450" y="-121" on="1"/>
      </contour>
    </TTGlyph>
    <TTGlyph name="Gbreve" xMin="83" yMin="-123" xMax="645" yMax="980">
      <component glyphName="breve.cap" x="120" y="164" flags="0x204"/>
      <component glyphName="G" x="0" y="0" flags="0x4"/>
    </TTGlyph>
    <TTGlyph name="Gcommaaccent" xMin="83" yMin="-416" xMax="567" yMax="703">
      <component glyphName="G" x="0" y="0" flags="0x204"/>
      <component glyphName="commaaccent.cap" x="-87" y="-114" flags="0x4"/>
    </TTGlyph>
    <TTGlyph name="Gdotaccent" xMin="83" yMin="-123" xMax="567" yMax="942">
      <component glyphName="dotaccent.cap" x="111" y="164" flags="0x204"/>
      <component glyphName="G" x="0" y="0" flags="0x4"/>
    </TTGlyph>
    <TTGlyph name="H" xMin="57" yMin="0" xMax="613" yMax="688">
      <contour>
        <pt x="469" y="320" on="1"/>
        <pt x="192" y="320" on="1"/>
        <pt x="130" y="0" on="1"/>
        <pt x="57" y="0" on="1"/>
        <pt x="190" y="688" on="1"/>
        <pt x="263" y="688" on="1"/>
        <pt x="203" y="378" on="1"/>
        <pt x="480" y="378" on="1"/>
        <pt x="540" y="688" on="1"/>
        <pt x="613" y="688" on="1"/>
        <pt x="480" y="0" on="1"/>
        <pt x="407" y="0" on="1"/>
      </contour>
    </TTGlyph>
    <TTGlyph name="Hbar" xMin="57" yMin="0" xMax="668" yMax="688">
      <contour>
        <pt x="503" y="499" on="1"/>
        <pt x="226" y="499" on="1"/>
        <pt x="200" y="364" on="1"/>
        <pt x="477" y="364" on="1"/>
      </contour>
      <contour>
        <pt x="466" y="307" on="1"/>
        <pt x="189" y="307" on="1"/>
        <pt x="130" y="0" on="1"/>
        <pt x="57" y="0" on="1"/>
        <pt x="153" y="497" on="1"/>
        <pt x="70" y="497" on="1"/>
        <pt x="80" y="550" on="1"/>
        <pt x="163" y="550" on="1"/>
        <pt x="190" y="688" on="1"/>
        <pt x="263" y="688" on="1"/>
        <pt x="236" y="548" on="1"/>
        <pt x="513" y="548" on="1"/>
        <pt x="540" y="688" on="1"/>
        <pt x="613" y="688" on="1"/>
        <pt x="586" y="550" on="1"/>
        <pt x="668" y="550" on="1"/>
        <pt x="658" y="497" on="1"/>
        <pt x="576" y="497" on="1"/>
        <pt x="480" y="0" on="1"/>
        <pt x="407" y="0" on="1"/>
      </contour>
    </TTGlyph>
    <TTGlyph name="I" xMin="52" yMin="0" xMax="591" yMax="688">
      <contour>
        <pt x="474" y="58" on="1"/>
        <pt x="460" y="0" on="1"/>
        <pt x="52" y="0" on="1"/>
        <pt x="64" y="58" on="1"/>
        <pt x="231" y="58" on="1"/>
        <pt x="341" y="630" on="1"/>
        <pt x="171" y="630" on="1"/>
        <pt x="182" y="688" on="1"/>
        <pt x="591" y="688" on="1"/>
        <pt x="580" y="630" on="1"/>
        <pt x="414" y="630" on="1"/>
        <pt x="303" y="58" on="1"/>
      </contour>
    </TTGlyph>
    <TTGlyph name="Iacute" xMin="52" yMin="0" xMax="591" yMax="987">
      <component glyphName="I" x="0" y="0" flags="0x204"/>
      <component glyphName="acute.cap" x="87" y="149" flags="0x4"/>
    </TTGlyph>
    <TTGlyph name="Ibreve" xMin="52" yMin="0" xMax="638" yMax="965">
      <component glyphName="I" x="0" y="0" flags="0x204"/>
      <component glyphName="breve.cap" x="113" y="149" flags="0x4"/>
    </TTGlyph>
    <TTGlyph name="Icircumflex" xMin="52" yMin="0" xMax="601" yMax="974">
      <component glyphName="I" x="0" y="0" flags="0x204"/>
      <component glyphName="circumflex.cap" x="104" y="149" flags="0x4"/>
    </TTGlyph>
    <TTGlyph name="Idieresis" xMin="52" yMin="0" xMax="597" yMax="929">
      <component glyphName="I" x="0" y="0" flags="0x204"/>
      <component glyphName="dieresis.cap" x="95" y="149" flags="0x4"/>
    </TTGlyph>
    <TTGlyph name="Idotaccent" xMin="52" yMin="0" xMax="591" yMax="927">
      <component glyphName="I" x="0" y="0" flags="0x204"/>
      <component glyphName="dotaccent.cap" x="104" y="149" flags="0x4"/>
    </TTGlyph>
    <TTGlyph name="Igrave" xMin="52" yMin="0" xMax="591" yMax="994">
      <component glyphName="I" x="0" y="0" flags="0x204"/>
      <component glyphName="grave.cap" x="103" y="149" flags="0x4"/>
    </TTGlyph>
    <TTGlyph name="Imacron" xMin="52" yMin="0" xMax="607" yMax="886">
      <component glyphName="I" x="0" y="0" flags="0x204"/>
      <component glyphName="macron.cap" x="110" y="149" flags="0x4"/>
    </TTGlyph>
    <TTGlyph name="Iogonek" xMin="52" yMin="-230" xMax="591" yMax="688">
      <contour>
        <pt x="346" y="-185" on="1"/>
        <pt x="299" y="-209" on="0"/>
        <pt x="225" y="-230" on="0"/>
        <pt x="196" y="-230" on="1"/>
        <pt x="151" y="-230" on="0"/>
        <pt x="105" y="-189" on="0"/>
        <pt x="105" y="-159" on="1"/>
        <pt x="105" y="-122" on="0"/>
        <pt x="160" y="-42" on="0"/>
        <pt x="223" y="0" on="1"/>
        <pt x="52" y="0" on="1"/>
        <pt x="64" y="58" on="1"/>
        <pt x="231" y="58" on="1"/>
        <pt x="341" y="630" on="1"/>
        <pt x="171" y="630" on="1"/>
        <pt x="182" y="688" on="1"/>
        <pt x="591" y="688" on="1"/>
        <pt x="580" y="630" on="1"/>
        <pt x="414" y="630" on="1"/>
        <pt x="303" y="58" on="1"/>
        <pt x="474" y="58" on="1"/>
        <pt x="460" y="0" on="1"/>
        <pt x="298" y="0" on="1"/>
        <pt x="230" y="-39" on="0"/>
        <pt x="171" y="-109" on="0"/>
        <pt x="171" y="-140" on="1"/>
        <pt x="171" y="-157" on="0"/>
        <pt x="196" y="-178" on="0"/>
        <pt x="225" y="-178" on="1"/>
        <pt x="245" y="-178" on="0"/>
        <pt x="299" y="-165" on="0"/>
        <pt x="336" y="-151" on="1"/>
        <pt x="346" y="-185" on="1"/>
      </contour>
    </TTGlyph>
    <TTGlyph name="J" xMin="57" yMin="-13" xMax="545" yMax="688">
      <contour>
        <pt x="392" y="54" on="1"/>
        <pt x="375" y="37" on="0"/>
        <pt x="323" y="11" on="0"/>
        <pt x="246" y="-5" on="0"/>
        <pt x="141" y="-13" on="0"/>
        <pt x="70" y="-13" on="1"/>
        <pt x="57" y="-13" on="1"/>
        <pt x="69" y="54" on="1"/>
        <pt x="125" y="54" on="1"/>
        <pt x="172" y="54" on="0"/>
        <pt x="241" y="57" on="0"/>
        <pt x="290" y="65" on="0"/>
        <pt x="324" y="80" on="0"/>
        <pt x="335" y="91" on="1"/>
        <pt x="343" y="99" on="0"/>
        <pt x="357" y="124" on="0"/>
        <pt x="370" y="170" on="0"/>
        <pt x="386" y="242" on="0"/>
        <pt x="397" y="297" on="1"/>
        <pt x="462" y="630" on="1"/>
        <pt x="229" y="630" on="1"/>
        <pt x="241" y="688" on="1"/>
        <pt x="545" y="688" on="1"/>
        <pt x="472" y="307" on="1"/>
        <pt x="459" y="238" on="0"/>
        <pt x="439" y="150" on="0"/>
        <pt x="421" y="95" on="0"/>
        <pt x="403" y="65" on="0"/>
      </contour>
    </TTGlyph>
    <TTGlyph name="K" xMin="69" yMin="-6" xMax="649" yMax="688">
      <contour>
        <pt x="238" y="347" on="1"/>
        <pt x="569" y="688" on="1"/>
        <pt x="649" y="688" on="1"/>
        <pt x="321" y="346" on="1"/>
        <pt x="535" y="5" on="1"/>
        <pt x="457" y="-6" on="1"/>
      </contour>
      <contour>
        <pt x="276" y="688" on="1"/>
        <pt x="142" y="0" on="1"/>
        <pt x="69" y="0" on="1"/>
        <pt x="203" y="688" on="1"/>
      </contour>
    </TTGlyph>
    <TTGlyph name="Kcommaaccent" xMin="69" yMin="-308" xMax="649" yMax="688">
      <component glyphName="K" x="0" y="0" flags="0x204"/>
      <component glyphName="commaaccent.cap" x="-24" y="-6" flags="0x4"/>
    </TTGlyph>
    <TTGlyph name="L" xMin="80" yMin="0" xMax="514" yMax="688">
      <contour>
        <pt x="80" y="0" on="1"/>
        <pt x="214" y="688" on="1"/>
        <pt x="286" y="688" on="1"/>
        <pt x="166" y="63" on="1"/>
        <pt x="514" y="63" on="1"/>
        <pt x="500" y="0" on="1"/>
      </contour>
    </TTGlyph>
    <TTGlyph name="Lacute" xMin="80" yMin="0" xMax="601" yMax="987">
      <component glyphName="acute.cap" x="122" y="149" flags="0x204"/>
      <component glyphName="L" x="0" y="0" flags="0x4"/>
    </TTGlyph>
    <TTGlyph name="Lcaron" xMin="80" yMin="0" xMax="625" yMax="776">
      <component glyphName="L" x="0" y="0" flags="0x204"/>
      <component glyphName="caron.alt" x="220" y="-114" flags="0x4"/>
    </TTGlyph>
    <TTGlyph name="Lcommaaccent" xMin="80" yMin="-302" xMax="514" yMax="688">
      <component glyphName="L" x="0" y="0" flags="0x204"/>
      <component glyphName="commaaccent.cap" x="-34" y="0" flags="0x4"/>
    </TTGlyph>
    <TTGlyph name="Ldot" xMin="80" yMin="0" xMax="549" yMax="688">
      <contour>
        <pt x="80" y="0" on="1"/>
        <pt x="214" y="688" on="1"/>
        <pt x="286" y="688" on="1"/>
        <pt x="166" y="63" on="1"/>
        <pt x="514" y="63" on="1"/>
        <pt x="500" y="0" on="1"/>
      </contour>
      <contour>
        <pt x="432" y="298" on="1"/>
        <pt x="458" y="407" on="1"/>
        <pt x="549" y="407" on="1"/>
        <pt x="523" y="298" on="1"/>
      </contour>
    </TTGlyph>
    <TTGlyph name="Lslash" xMin="67" yMin="0" xMax="527" yMax="688">
      <contour>
        <pt x="93" y="0" on="1"/>
        <pt x="159" y="337" on="1"/>
        <pt x="69" y="295" on="1"/>
        <pt x="67" y="346" on="1"/>
        <pt x="170" y="395" on="1"/>
        <pt x="227" y="688" on="1"/>
        <pt x="299" y="688" on="1"/>
        <pt x="250" y="433" on="1"/>
        <pt x="434" y="520" on="1"/>
        <pt x="437" y="468" on="1"/>
        <pt x="239" y="375" on="1"/>
        <pt x="179" y="63" on="1"/>
        <pt x="527" y="63" on="1"/>
        <pt x="513" y="0" on="1"/>
      </contour>
    </TTGlyph>
    <TTGlyph name="M" xMin="48" yMin="0" xMax="631" yMax="691">
      <contour>
        <pt x="306" y="204" on="1"/>
        <pt x="308" y="204" on="1"/>
        <pt x="536" y="688" on="1"/>
        <pt x="631" y="688" on="1"/>
        <pt x="498" y="0" on="1"/>
        <pt x="427" y="0" on="1"/>
        <pt x="543" y="578" on="1"/>
        <pt x="539" y="578" on="1"/>
        <pt x="315" y="111" on="1"/>
        <pt x="261" y="111" on="1"/>
        <pt x="227" y="578" on="1"/>
        <pt x="224" y="578" on="1"/>
        <pt x="115" y="0" on="1"/>
        <pt x="48" y="0" on="1"/>
        <pt x="181" y="686" on="1"/>
        <pt x="271" y="691" on="1"/>
      </contour>
    </TTGlyph>
    <TTGlyph name="N" xMin="57" yMin="0" xMax="615" yMax="690">
      <contour>
        <pt x="240" y="579" on="1"/>
        <pt x="235" y="579" on="1"/>
        <pt x="125" y="0" on="1"/>
        <pt x="57" y="0" on="1"/>
        <pt x="190" y="687" on="1"/>
        <pt x="273" y="690" on="1"/>
        <pt x="433" y="122" on="1"/>
        <pt x="439" y="122" on="1"/>
        <pt x="547" y="688" on="1"/>
        <pt x="615" y="688" on="1"/>
        <pt x="481" y="0" on="1"/>
        <pt x="408" y="0" on="1"/>
      </contour>
    </TTGlyph>
    <TTGlyph name="Nacute" xMin="57" yMin="0" xMax="615" yMax="989">
      <component glyphName="acute.cap" x="101" y="151" flags="0x204"/>
      <component glyphName="N" x="0" y="0" flags="0x4"/>
    </TTGlyph>
    <TTGlyph name="Ncaron" xMin="57" yMin="0" xMax="638" yMax="973">
      <component glyphName="caron.cap" x="113" y="151" flags="0x204"/>
      <component glyphName="N" x="0" y="0" flags="0x4"/>
    </TTGlyph>
    <TTGlyph name="Ncommaaccent" xMin="57" yMin="-302" xMax="615" yMax="690">
      <component glyphName="commaaccent.cap" x="-55" y="0" flags="0x204"/>
      <component glyphName="N" x="0" y="0" flags="0x4"/>
    </TTGlyph>
    <TTGlyph name="Ntilde" xMin="57" yMin="0" xMax="666" yMax="956">
      <component glyphName="tilde.cap" x="122" y="151" flags="0x204"/>
      <component glyphName="N" x="0" y="0" flags="0x4"/>
    </TTGlyph>
    <TTGlyph name="O" xMin="79" yMin="-14" xMax="591" yMax="702">
      <contour>
        <pt x="591" y="445" on="1"/>
        <pt x="591" y="359" on="0"/>
        <pt x="544" y="194" on="0"/>
        <pt x="459" y="65" on="0"/>
        <pt x="342" y="-14" on="0"/>
        <pt x="272" y="-14" on="1"/>
        <pt x="229" y="-14" on="0"/>
        <pt x="158" y="18" on="0"/>
        <pt x="107" y="83" on="0"/>
        <pt x="79" y="179" on="0"/>
        <pt x="79" y="243" on="1"/>
        <pt x="79" y="329" on="0"/>
        <pt x="126" y="494" on="0"/>
        <pt x="211" y="623" on="0"/>
        <pt x="328" y="702" on="0"/>
        <pt x="398" y="702" on="1"/>
        <pt x="441" y="702" on="0"/>
        <pt x="512" y="669" on="0"/>
        <pt x="563" y="605" on="0"/>
        <pt x="591" y="509" on="0"/>
      </contour>
      <contour>
        <pt x="153" y="248" on="1"/>
        <pt x="153" y="148" on="0"/>
        <pt x="223" y="50" on="0"/>
        <pt x="283" y="50" on="1"/>
        <pt x="334" y="50" on="0"/>
        <pt x="420" y="118" on="0"/>
        <pt x="482" y="228" on="0"/>
        <pt x="517" y="368" on="0"/>
        <pt x="517" y="440" on="1"/>
        <pt x="517" y="540" on="0"/>
        <pt x="447" y="638" on="0"/>
        <pt x="387" y="638" on="1"/>
        <pt x="336" y="638" on="0"/>
        <pt x="250" y="570" on="0"/>
        <pt x="188" y="460" on="0"/>
        <pt x="153" y="320" on="0"/>
      </contour>
    </TTGlyph>
    <TTGlyph name="OE" xMin="72" yMin="0" xMax="666" yMax="688">
      <contour>
        <pt x="143" y="230" on="1"/>
        <pt x="143" y="183" on="0"/>
        <pt x="163" y="119" on="0"/>
        <pt x="201" y="80" on="0"/>
        <pt x="255" y="63" on="0"/>
        <pt x="289" y="62" on="1"/>
        <pt x="399" y="627" on="1"/>
        <pt x="348" y="626" on="0"/>
        <pt x="270" y="582" on="0"/>
        <pt x="213" y="512" on="0"/>
        <pt x="175" y="425" on="0"/>
        <pt x="152" y="338" on="0"/>
        <pt x="143" y="258" on="0"/>
      </contour>
      <contour>
        <pt x="530" y="0" on="1"/>
        <pt x="303" y="0" on="1"/>
        <pt x="252" y="0" on="0"/>
        <pt x="167" y="21" on="0"/>
        <pt x="106" y="72" on="0"/>
        <pt x="72" y="160" on="0"/>
        <pt x="72" y="227" on="1"/>
        <pt x="72" y="264" on="0"/>
        <pt x="85" y="362" on="0"/>
        <pt x="117" y="464" on="0"/>
        <pt x="172" y="563" on="0"/>
        <pt x="255" y="641" on="0"/>
        <pt x="368" y="688" on="0"/>
        <pt x="444" y="688" on="1"/>
        <pt x="666" y="688" on="1"/>
        <pt x="654" y="627" on="1"/>
        <pt x="466" y="627" on="1"/>
        <pt x="418" y="376" on="1"/>
        <pt x="575" y="376" on="1"/>
        <pt x="565" y="322" on="1"/>
        <pt x="408" y="322" on="1"/>
        <pt x="357" y="62" on="1"/>
        <pt x="548" y="62" on="1"/>
      </contour>
    </TTGlyph>
    <TTGlyph name="Oacute" xMin="79" yMin="-14" xMax="591" yMax="1002">
      <component glyphName="acute.cap" x="103" y="164" flags="0x204"/>
      <component glyphName="O" x="0" y="0" flags="0x4"/>
    </TTGlyph>
    <TTGlyph name="Obreve" xMin="79" yMin="-14" xMax="654" yMax="980">
      <component glyphName="breve.cap" x="129" y="164" flags="0x204"/>
      <component glyphName="O" x="0" y="0" flags="0x4"/>
    </TTGlyph>
    <TTGlyph name="Ocircumflex" xMin="79" yMin="-14" xMax="616" yMax="989">
      <component glyphName="O" x="0" y="0" flags="0x204"/>
      <component glyphName="circumflex.cap" x="119" y="164" flags="0x4"/>
    </TTGlyph>
    <TTGlyph name="Odieresis" xMin="79" yMin="-14" xMax="612" yMax="944">
      <component glyphName="dieresis.cap" x="110" y="164" flags="0x204"/>
      <component glyphName="O" x="0" y="0" flags="0x4"/>
    </TTGlyph>
    <TTGlyph name="Ograve" xMin="79" yMin="-14" xMax="591" yMax="1009">
      <component glyphName="grave.cap" x="119" y="164" flags="0x204"/>
      <component glyphName="O" x="0" y="0" flags="0x4"/>
    </TTGlyph>
    <TTGlyph name="Ohungarumlaut" xMin="79" yMin="-14" xMax="711" yMax="1021">
      <component glyphName="O" x="0" y="0" flags="0x204"/>
      <component glyphName="hungarumlaut.cap" x="105" y="164" flags="0x4"/>
    </TTGlyph>
    <TTGlyph name="Omacron" xMin="79" yMin="-14" xMax="623" yMax="901">
      <component glyphName="macron.cap" x="126" y="164" flags="0x204"/>
      <component glyphName="O" x="0" y="0" flags="0x4"/>
    </TTGlyph>
    <TTGlyph name="Omega" xMin="13" yMin="0" xMax="567" yMax="701">
      <contour>
        <pt x="209" y="0" on="1"/>
        <pt x="13" y="0" on="1"/>
        <pt x="24" y="58" on="1"/>
        <pt x="149" y="58" on="1"/>
        <pt x="129" y="129" on="0"/>
        <pt x="108" y="259" on="0"/>
        <pt x="108" y="323" on="1"/>
        <pt x="108" y="408" on="0"/>
        <pt x="143" y="548" on="0"/>
        <pt x="211" y="647" on="0"/>
        <pt x="310" y="701" on="0"/>
        <pt x="374" y="701" on="1"/>
        <pt x="467" y="701" on="0"/>
        <pt x="567" y="587" on="0"/>
        <pt x="567" y="487" on="1"/>
        <pt x="567" y="399" on="0"/>
        <pt x="491" y="184" on="0"/>
        <pt x="411" y="58" on="1"/>
        <pt x="528" y="58" on="1"/>
        <pt x="517" y="0" on="1"/>
        <pt x="323" y="0" on="1"/>
        <pt x="322" y="5" on="1"/>
        <pt x="411" y="155" on="0"/>
        <pt x="497" y="387" on="0"/>
        <pt x="497" y="472" on="1"/>
        <pt x="497" y="552" on="0"/>
        <pt x="427" y="636" on="0"/>
        <pt x="363" y="636" on="1"/>
        <pt x="318" y="636" on="0"/>
        <pt x="247" y="589" on="0"/>
        <pt x="199" y="502" on="0"/>
        <pt x="173" y="380" on="0"/>
        <pt x="173" y="304" on="1"/>
        <pt x="173" y="225" on="0"/>
        <pt x="193" y="83" on="0"/>
        <pt x="211" y="5" on="1"/>
      </contour>
    </TTGlyph>
    <TTGlyph name="Oslash" xMin="37" yMin="-37" xMax="633" yMax="725">
      <contour>
        <pt x="383" y="640" on="1"/>
        <pt x="332" y="640" on="0"/>
        <pt x="248" y="574" on="0"/>
        <pt x="188" y="466" on="0"/>
        <pt x="154" y="328" on="0"/>
        <pt x="154" y="256" on="1"/>
        <pt x="154" y="200" on="0"/>
        <pt x="165" y="158" on="1"/>
        <pt x="483" y="583" on="1"/>
        <pt x="448" y="640" on="0"/>
      </contour>
      <contour>
        <pt x="287" y="48" on="1"/>
        <pt x="337" y="48" on="0"/>
        <pt x="421" y="114" on="0"/>
        <pt x="482" y="223" on="0"/>
        <pt x="516" y="361" on="0"/>
        <pt x="516" y="433" on="1"/>
        <pt x="516" y="491" on="0"/>
        <pt x="504" y="533" on="1"/>
        <pt x="185" y="107" on="1"/>
        <pt x="220" y="48" on="0"/>
      </contour>
      <contour>
        <pt x="275" y="-15" on="1"/>
        <pt x="192" y="-15" on="0"/>
        <pt x="141" y="42" on="1"/>
        <pt x="81" y="-37" on="1"/>
        <pt x="37" y="-7" on="1"/>
        <pt x="110" y="90" on="1"/>
        <pt x="96" y="121" on="0"/>
        <pt x="80" y="201" on="0"/>
        <pt x="80" y="251" on="1"/>
        <pt x="80" y="336" on="0"/>
        <pt x="127" y="498" on="0"/>
        <pt x="211" y="625" on="0"/>
        <pt x="326" y="703" on="0"/>
        <pt x="395" y="703" on="1"/>
        <pt x="478" y="703" on="0"/>
        <pt x="529" y="646" on="1"/>
        <pt x="590" y="725" on="1"/>
        <pt x="633" y="695" on="1"/>
        <pt x="559" y="599" on="1"/>
        <pt x="590" y="535" on="0"/>
        <pt x="590" y="437" on="1"/>
        <pt x="590" y="353" on="0"/>
        <pt x="544" y="190" on="0"/>
        <pt x="460" y="63" on="0"/>
        <pt x="344" y="-15" on="0"/>
      </contour>
    </TTGlyph>
    <TTGlyph name="Oslashacute" xMin="37" yMin="-37" xMax="633" yMax="1002">
      <component glyphName="Oslash" x="0" y="0" flags="0x204"/>
      <component glyphName="acute.cap" x="103" y="164" flags="0x4"/>
    </TTGlyph>
    <TTGlyph name="Otilde" xMin="79" yMin="-14" xMax="668" yMax="969">
      <component glyphName="tilde.cap" x="124" y="164" flags="0x204"/>
      <component glyphName="O" x="0" y="0" flags="0x4"/>
    </TTGlyph>
    <TTGlyph name="P" xMin="71" yMin="0" xMax="606" yMax="694">
      <contour>
        <pt x="71" y="0" on="1"/>
        <pt x="204" y="686" on="1"/>
        <pt x="238" y="691" on="0"/>
        <pt x="298" y="694" on="0"/>
        <pt x="326" y="694" on="1"/>
        <pt x="400" y="694" on="0"/>
        <pt x="506" y="666" on="0"/>
        <pt x="574" y="617" on="0"/>
        <pt x="606" y="549" on="0"/>
        <pt x="606" y="510" on="1"/>
        <pt x="606" y="452" on="0"/>
        <pt x="550" y="356" on="0"/>
        <pt x="442" y="284" on="0"/>
        <pt x="287" y="238" on="0"/>
        <pt x="188" y="229" on="1"/>
        <pt x="143" y="0" on="1"/>
      </contour>
      <contour>
        <pt x="534" y="499" on="1"/>
        <pt x="534" y="559" on="0"/>
        <pt x="439" y="632" on="0"/>
        <pt x="335" y="632" on="1"/>
        <pt x="319" y="632" on="0"/>
        <pt x="285" y="630" on="0"/>
        <pt x="266" y="628" on="1"/>
        <pt x="201" y="298" on="1"/>
        <pt x="210" y="298" on="1"/>
        <pt x="369" y="301" on="0"/>
        <pt x="534" y="410" on="0"/>
      </contour>
    </TTGlyph>
    <TTGlyph name="Q" xMin="94" yMin="-147" xMax="596" yMax="703">
      <contour>
        <pt x="163" y="-9" on="1"/>
        <pt x="180" y="42" on="1"/>
        <pt x="255" y="73" on="0"/>
        <pt x="381" y="165" on="0"/>
        <pt x="471" y="276" on="0"/>
        <pt x="522" y="402" on="0"/>
        <pt x="522" y="466" on="1"/>
        <pt x="522" y="550" on="0"/>
        <pt x="447" y="641" on="0"/>
        <pt x="376" y="641" on="1"/>
        <pt x="332" y="641" on="0"/>
        <pt x="255" y="598" on="0"/>
        <pt x="198" y="517" on="0"/>
        <pt x="165" y="403" on="0"/>
        <pt x="165" y="333" on="1"/>
        <pt x="165" y="288" on="0"/>
        <pt x="179" y="191" on="0"/>
        <pt x="195" y="137" on="1"/>
        <pt x="133" y="114" on="1"/>
        <pt x="113" y="171" on="0"/>
        <pt x="94" y="280" on="0"/>
        <pt x="94" y="331" on="1"/>
        <pt x="94" y="412" on="0"/>
        <pt x="139" y="548" on="0"/>
        <pt x="218" y="647" on="0"/>
        <pt x="327" y="703" on="0"/>
        <pt x="391" y="703" on="1"/>
        <pt x="442" y="703" on="0"/>
        <pt x="518" y="669" on="0"/>
        <pt x="570" y="608" on="0"/>
        <pt x="596" y="523" on="0"/>
        <pt x="596" y="472" on="1"/>
        <pt x="596" y="401" on="0"/>
        <pt x="545" y="268" on="0"/>
        <pt x="455" y="152" on="0"/>
        <pt x="333" y="55" on="0"/>
        <pt x="262" y="20" on="1"/>
        <pt x="503" y="-87" on="1"/>
        <pt x="471" y="-147" on="1"/>
      </contour>
    </TTGlyph>
    <TTGlyph name="R" xMin="67" yMin="-6" xMax="581" yMax="695">
      <contour>
        <pt x="271" y="307" on="1"/>
        <pt x="272" y="310" on="1"/>
        <pt x="334" y="337" on="0"/>
        <pt x="424" y="388" on="0"/>
        <pt x="482" y="439" on="0"/>
        <pt x="509" y="492" on="0"/>
        <pt x="509" y="523" on="1"/>
        <pt x="509" y="575" on="0"/>
        <pt x="422" y="633" on="0"/>
        <pt x="331" y="633" on="1"/>
        <pt x="314" y="633" on="0"/>
        <pt x="280" y="631" on="0"/>
        <pt x="260" y="629" on="1"/>
        <pt x="139" y="0" on="1"/>
        <pt x="67" y="0" on="1"/>
        <pt x="199" y="686" on="1"/>
        <pt x="269" y="695" on="0"/>
        <pt x="326" y="695" on="1"/>
        <pt x="395" y="695" on="0"/>
        <pt x="491" y="671" on="0"/>
        <pt x="553" y="629" on="0"/>
        <pt x="581" y="571" on="0"/>
        <pt x="581" y="537" on="1"/>
        <pt x="581" y="460" on="0"/>
        <pt x="466" y="347" on="0"/>
        <pt x="360" y="296" on="1"/>
        <pt x="548" y="6" on="1"/>
        <pt x="469" y="-6" on="1"/>
      </contour>
    </TTGlyph>
    <TTGlyph name="R_p" xMin="32" yMin="-195" xMax="626" yMax="692">
      <contour>
        <pt x="171" y="307" on="1"/>
        <pt x="171" y="310" on="1"/>
        <pt x="243" y="381" on="0"/>
        <pt x="307" y="493" on="0"/>
        <pt x="307" y="548" on="1"/>
        <pt x="307" y="636" on="0"/>
        <pt x="219" y="635" on="1"/>
        <pt x="93" y="0" on="1"/>
        <pt x="32" y="0" on="1"/>
        <pt x="165" y="688" on="1"/>
        <pt x="180" y="690" on="0"/>
        <pt x="208" y="692" on="0"/>
        <pt x="221" y="692" on="1"/>
        <pt x="299" y="692" on="0"/>
        <pt x="370" y="622" on="0"/>
        <pt x="370" y="561" on="1"/>
        <pt x="370" y="493" on="0"/>
        <pt x="300" y="373" on="0"/>
        <pt x="231" y="305" on="1"/>
        <pt x="294" y="6" on="1"/>
        <pt x="230" y="-6" on="1"/>
      </contour>
      <contour>
        <pt x="436" y="53" on="1"/>
        <pt x="460" y="53" on="0"/>
        <pt x="506" y="125" on="0"/>
        <pt x="543" y="232" on="0"/>
        <pt x="565" y="358" on="0"/>
        <pt x="565" y="412" on="1"/>
        <pt x="565" y="450" on="0"/>
        <pt x="548" y="490" on="0"/>
        <pt x="531" y="490" on="1"/>
        <pt x="506" y="490" on="0"/>
        <pt x="467" y="451" on="1"/>
        <pt x="462" y="426" on="0"/>
        <pt x="447" y="344" on="0"/>
        <pt x="427" y="240" on="0"/>
        <pt x="405" y="123" on="0"/>
        <pt x="393" y="64" on="1"/>
        <pt x="421" y="53" on="0"/>
      </contour>
      <contour>
        <pt x="282" y="-195" on="1"/>
        <pt x="303" y="-87" on="0"/>
        <pt x="344" y="127" on="0"/>
        <pt x="381" y="319" on="0"/>
        <pt x="411" y="481" on="0"/>
        <pt x="420" y="537" on="1"/>
        <pt x="479" y="541" on="1"/>
        <pt x="472" y="495" on="1"/>
        <pt x="496" y="521" on="0"/>
        <pt x="542" y="552" on="0"/>
        <pt x="565" y="552" on="1"/>
        <pt x="593" y="552" on="0"/>
        <pt x="626" y="494" on="0"/>
        <pt x="626" y="427" on="1"/>
        <pt x="626" y="353" on="0"/>
        <pt x="595" y="199" on="0"/>
        <pt x="539" y="74" on="0"/>
        <pt x="464" y="-6" on="0"/>
        <pt x="420" y="-6" on="1"/>
        <pt x="402" y="-6" on="0"/>
        <pt x="381" y="0" on="1"/>
        <pt x="370" y="-53" on="0"/>
        <pt x="352" y="-150" on="0"/>
        <pt x="344" y="-189" on="1"/>
      </contour>
    </TTGlyph>
    <TTGlyph name="Racute" xMin="67" yMin="-6" xMax="581" yMax="994">
      <component glyphName="R" x="0" y="0" flags="0x204"/>
      <component glyphName="acute.cap" x="85" y="156" flags="0x4"/>
    </TTGlyph>
    <TTGlyph name="Rcaron" xMin="67" yMin="-6" xMax="622" yMax="978">
      <component glyphName="caron.cap" x="97" y="156" flags="0x204"/>
      <component glyphName="R" x="0" y="0" flags="0x4"/>
    </TTGlyph>
    <TTGlyph name="Rcommaaccent" xMin="67" yMin="-308" xMax="581" yMax="695">
      <component glyphName="R" x="0" y="0" flags="0x204"/>
      <component glyphName="commaaccent.cap" x="-43" y="-6" flags="0x4"/>
    </TTGlyph>
    <TTGlyph name="S" xMin="39" yMin="-8" xMax="570" yMax="701">
      <contour>
        <pt x="504" y="501" on="1"/>
        <pt x="493" y="574" on="0"/>
        <pt x="425" y="639" on="0"/>
        <pt x="365" y="639" on="1"/>
        <pt x="334" y="639" on="0"/>
        <pt x="282" y="618" on="0"/>
        <pt x="245" y="583" on="0"/>
        <pt x="224" y="537" on="0"/>
        <pt x="224" y="512" on="1"/>
        <pt x="224" y="478" on="0"/>
        <pt x="267" y="420" on="0"/>
        <pt x="331" y="367" on="0"/>
        <pt x="406" y="315" on="0"/>
        <pt x="470" y="259" on="0"/>
        <pt x="513" y="195" on="0"/>
        <pt x="513" y="157" on="1"/>
        <pt x="513" y="125" on="0"/>
        <pt x="483" y="66" on="0"/>
        <pt x="419" y="20" on="0"/>
        <pt x="318" y="-8" on="0"/>
        <pt x="247" y="-8" on="1"/>
        <pt x="158" y="-8" on="0"/>
        <pt x="39" y="17" on="1"/>
        <pt x="55" y="89" on="1"/>
        <pt x="126" y="71" on="0"/>
        <pt x="236" y="56" on="0"/>
        <pt x="278" y="56" on="1"/>
        <pt x="366" y="56" on="0"/>
        <pt x="440" y="111" on="0"/>
        <pt x="440" y="149" on="1"/>
        <pt x="440" y="179" on="0"/>
        <pt x="397" y="233" on="0"/>
        <pt x="333" y="284" on="0"/>
        <pt x="258" y="337" on="0"/>
        <pt x="194" y="395" on="0"/>
        <pt x="151" y="462" on="0"/>
        <pt x="151" y="502" on="1"/>
        <pt x="151" y="541" on="0"/>
        <pt x="186" y="612" on="0"/>
        <pt x="248" y="668" on="0"/>
        <pt x="333" y="701" on="0"/>
        <pt x="384" y="701" on="1"/>
        <pt x="468" y="701" on="0"/>
        <pt x="557" y="605" on="0"/>
        <pt x="570" y="514" on="1"/>
      </contour>
    </TTGlyph>
    <TTGlyph name="Sacute" xMin="39" yMin="-8" xMax="576" yMax="1000">
      <component glyphName="S" x="0" y="0" flags="0x204"/>
      <component glyphName="acute.cap" x="97" y="162" flags="0x4"/>
    </TTGlyph>
    <TTGlyph name="Scaron" xMin="39" yMin="-8" xMax="635" yMax="984">
      <component glyphName="S" x="0" y="0" flags="0x204"/>
      <component glyphName="caron.cap" x="110" y="162" flags="0x4"/>
    </TTGlyph>
    <TTGlyph name="Scedilla" xMin="39" yMin="-202" xMax="570" yMax="701">
      <contour>
        <pt x="297" y="-202" on="1"/>
        <pt x="298" y="-194" on="0"/>
        <pt x="298" y="-178" on="0"/>
        <pt x="298" y="-170" on="1"/>
        <pt x="298" y="-105" on="0"/>
        <pt x="263" y="-49" on="0"/>
        <pt x="235" y="-49" on="1"/>
        <pt x="205" y="-49" on="0"/>
        <pt x="150" y="-113" on="0"/>
        <pt x="123" y="-170" on="1"/>
        <pt x="84" y="-157" on="1"/>
        <pt x="134" y="-36" on="0"/>
        <pt x="198" y="-6" on="1"/>
        <pt x="163" y="-4" on="0"/>
        <pt x="84" y="7" on="0"/>
        <pt x="39" y="17" on="1"/>
        <pt x="55" y="89" on="1"/>
        <pt x="126" y="71" on="0"/>
        <pt x="236" y="56" on="0"/>
        <pt x="278" y="56" on="1"/>
        <pt x="366" y="56" on="0"/>
        <pt x="440" y="111" on="0"/>
        <pt x="440" y="149" on="1"/>
        <pt x="440" y="179" on="0"/>
        <pt x="397" y="233" on="0"/>
        <pt x="333" y="284" on="0"/>
        <pt x="258" y="337" on="0"/>
        <pt x="194" y="395" on="0"/>
        <pt x="151" y="462" on="0"/>
        <pt x="151" y="502" on="1"/>
        <pt x="151" y="541" on="0"/>
        <pt x="186" y="612" on="0"/>
        <pt x="248" y="668" on="0"/>
        <pt x="333" y="701" on="0"/>
        <pt x="384" y="701" on="1"/>
        <pt x="468" y="701" on="0"/>
        <pt x="557" y="605" on="0"/>
        <pt x="570" y="514" on="1"/>
        <pt x="504" y="501" on="1"/>
        <pt x="493" y="574" on="0"/>
        <pt x="425" y="639" on="0"/>
        <pt x="365" y="639" on="1"/>
        <pt x="334" y="639" on="0"/>
        <pt x="282" y="618" on="0"/>
        <pt x="245" y="583" on="0"/>
        <pt x="224" y="537" on="0"/>
        <pt x="224" y="512" on="1"/>
        <pt x="224" y="478" on="0"/>
        <pt x="267" y="420" on="0"/>
        <pt x="331" y="367" on="0"/>
        <pt x="406" y="315" on="0"/>
        <pt x="470" y="259" on="0"/>
        <pt x="513" y="195" on="0"/>
        <pt x="513" y="157" on="1"/>
        <pt x="513" y="128" on="0"/>
        <pt x="488" y="73" on="0"/>
        <pt x="434" y="28" on="0"/>
        <pt x="349" y="-3" on="0"/>
        <pt x="290" y="-7" on="1"/>
        <pt x="322" y="-23" on="0"/>
        <pt x="362" y="-103" on="0"/>
        <pt x="362" y="-171" on="1"/>
        <pt x="362" y="-178" on="0"/>
        <pt x="362" y="-192" on="0"/>
        <pt x="361" y="-200" on="1"/>
        <pt x="297" y="-202" on="1"/>
      </contour>
    </TTGlyph>
    <TTGlyph name="Scommaaccent" xMin="39" yMin="-310" xMax="570" yMax="701">
      <component glyphName="S" x="0" y="0" flags="0x204"/>
      <component glyphName="commaaccent.cap" x="-81" y="-8" flags="0x4"/>
    </TTGlyph>
    <TTGlyph name="T" xMin="125" yMin="0" xMax="651" yMax="688">
      <contour>
        <pt x="297" y="0" on="1"/>
        <pt x="224" y="0" on="1"/>
        <pt x="345" y="625" on="1"/>
        <pt x="125" y="625" on="1"/>
        <pt x="136" y="688" on="1"/>
        <pt x="651" y="688" on="1"/>
        <pt x="639" y="625" on="1"/>
        <pt x="418" y="625" on="1"/>
      </contour>
    </TTGlyph>
    <TTGlyph name="Tcaron" xMin="125" yMin="0" xMax="651" yMax="971">
      <component glyphName="caron.cap" x="103" y="149" flags="0x204"/>
      <component glyphName="T" x="0" y="0" flags="0x4"/>
    </TTGlyph>
    <TTGlyph name="Tcommaaccent" xMin="125" yMin="-302" xMax="651" yMax="688">
      <component glyphName="T" x="0" y="0" flags="0x204"/>
      <component glyphName="commaaccent.cap" x="-65" y="0" flags="0x4"/>
    </TTGlyph>
    <TTGlyph name="Thorn" xMin="71" yMin="0" xMax="583" yMax="688">
      <contour>
        <pt x="71" y="0" on="1"/>
        <pt x="205" y="688" on="1"/>
        <pt x="278" y="688" on="1"/>
        <pt x="256" y="578" on="1"/>
        <pt x="268" y="579" on="0"/>
        <pt x="292" y="579" on="0"/>
        <pt x="303" y="579" on="1"/>
        <pt x="378" y="579" on="0"/>
        <pt x="484" y="551" on="0"/>
        <pt x="551" y="502" on="0"/>
        <pt x="583" y="435" on="0"/>
        <pt x="583" y="396" on="1"/>
        <pt x="583" y="337" on="0"/>
        <pt x="527" y="242" on="0"/>
        <pt x="420" y="170" on="0"/>
        <pt x="265" y="124" on="0"/>
        <pt x="166" y="115" on="1"/>
        <pt x="143" y="0" on="1"/>
      </contour>
      <contour>
        <pt x="512" y="385" on="1"/>
        <pt x="512" y="414" on="0"/>
        <pt x="488" y="463" on="0"/>
        <pt x="439" y="498" on="0"/>
        <pt x="362" y="518" on="0"/>
        <pt x="310" y="518" on="1"/>
        <pt x="295" y="518" on="0"/>
        <pt x="262" y="516" on="0"/>
        <pt x="244" y="514" on="1"/>
        <pt x="179" y="184" on="1"/>
        <pt x="187" y="184" on="1"/>
        <pt x="265" y="184" on="0"/>
        <pt x="386" y="213" on="0"/>
        <pt x="469" y="266" on="0"/>
        <pt x="512" y="340" on="0"/>
      </contour>
    </TTGlyph>
    <TTGlyph name="U" xMin="90" yMin="-16" xMax="616" yMax="688">
      <contour>
        <pt x="278" y="-16" on="1"/>
        <pt x="188" y="-16" on="0"/>
        <pt x="90" y="74" on="0"/>
        <pt x="90" y="162" on="1"/>
        <pt x="90" y="179" on="0"/>
        <pt x="94" y="215" on="0"/>
        <pt x="98" y="235" on="1"/>
        <pt x="186" y="688" on="1"/>
        <pt x="258" y="688" on="1"/>
        <pt x="171" y="240" on="1"/>
        <pt x="167" y="221" on="0"/>
        <pt x="164" y="187" on="0"/>
        <pt x="164" y="172" on="1"/>
        <pt x="164" y="49" on="0"/>
        <pt x="287" y="49" on="1"/>
        <pt x="353" y="49" on="0"/>
        <pt x="435" y="132" on="0"/>
        <pt x="452" y="220" on="1"/>
        <pt x="543" y="688" on="1"/>
        <pt x="616" y="688" on="1"/>
        <pt x="525" y="221" on="1"/>
        <pt x="502" y="103" on="0"/>
        <pt x="375" y="-16" on="0"/>
      </contour>
    </TTGlyph>
    <TTGlyph name="Uacute" xMin="90" yMin="-16" xMax="616" yMax="987">
      <component glyphName="acute.cap" x="99" y="149" flags="0x204"/>
      <component glyphName="U" x="0" y="0" flags="0x4"/>
    </TTGlyph>
    <TTGlyph name="Ubreve" xMin="90" yMin="-16" xMax="650" yMax="965">
      <component glyphName="breve.cap" x="125" y="149" flags="0x204"/>
      <component glyphName="U" x="0" y="0" flags="0x4"/>
    </TTGlyph>
    <TTGlyph name="Ucircumflex" xMin="90" yMin="-16" xMax="616" yMax="974">
      <component glyphName="U" x="0" y="0" flags="0x204"/>
      <component glyphName="circumflex.cap" x="115" y="149" flags="0x4"/>
    </TTGlyph>
    <TTGlyph name="Udieresis" xMin="90" yMin="-16" xMax="616" yMax="929">
      <component glyphName="dieresis.cap" x="106" y="149" flags="0x204"/>
      <component glyphName="U" x="0" y="0" flags="0x4"/>
    </TTGlyph>
    <TTGlyph name="Ugrave" xMin="90" yMin="-16" xMax="616" yMax="994">
      <component glyphName="grave.cap" x="115" y="149" flags="0x204"/>
      <component glyphName="U" x="0" y="0" flags="0x4"/>
    </TTGlyph>
    <TTGlyph name="Uhungarumlaut" xMin="90" yMin="-16" xMax="708" yMax="1006">
      <component glyphName="U" x="0" y="0" flags="0x204"/>
      <component glyphName="hungarumlaut.cap" x="102" y="149" flags="0x4"/>
    </TTGlyph>
    <TTGlyph name="Umacron" xMin="90" yMin="-16" xMax="619" yMax="886">
      <component glyphName="macron.cap" x="122" y="149" flags="0x204"/>
      <component glyphName="U" x="0" y="0" flags="0x4"/>
    </TTGlyph>
    <TTGlyph name="Uogonek" xMin="90" yMin="-230" xMax="616" yMax="688">
      <contour>
        <pt x="373" y="-185" on="1"/>
        <pt x="326" y="-209" on="0"/>
        <pt x="251" y="-230" on="0"/>
        <pt x="222" y="-230" on="1"/>
        <pt x="177" y="-230" on="0"/>
        <pt x="131" y="-189" on="0"/>
        <pt x="131" y="-159" on="1"/>
        <pt x="131" y="-125" on="0"/>
        <pt x="196" y="-54" on="0"/>
        <pt x="267" y="-16" on="1"/>
        <pt x="182" y="-13" on="0"/>
        <pt x="90" y="77" on="0"/>
        <pt x="90" y="162" on="1"/>
        <pt x="90" y="179" on="0"/>
        <pt x="94" y="215" on="0"/>
        <pt x="98" y="235" on="1"/>
        <pt x="186" y="688" on="1"/>
        <pt x="258" y="688" on="1"/>
        <pt x="171" y="240" on="1"/>
        <pt x="167" y="221" on="0"/>
        <pt x="164" y="187" on="0"/>
        <pt x="164" y="172" on="1"/>
        <pt x="164" y="49" on="0"/>
        <pt x="287" y="49" on="1"/>
        <pt x="353" y="49" on="0"/>
        <pt x="435" y="132" on="0"/>
        <pt x="452" y="220" on="1"/>
        <pt x="543" y="688" on="1"/>
        <pt x="616" y="688" on="1"/>
        <pt x="525" y="221" on="1"/>
        <pt x="508" y="137" on="0"/>
        <pt x="434" y="31" on="0"/>
        <pt x="379" y="4" on="1"/>
        <pt x="281" y="-43" on="0"/>
        <pt x="198" y="-109" on="0"/>
        <pt x="198" y="-140" on="1"/>
        <pt x="198" y="-157" on="0"/>
        <pt x="223" y="-178" on="0"/>
        <pt x="252" y="-178" on="1"/>
        <pt x="272" y="-178" on="0"/>
        <pt x="326" y="-165" on="0"/>
        <pt x="363" y="-151" on="1"/>
        <pt x="373" y="-185" on="1"/>
      </contour>
    </TTGlyph>
    <TTGlyph name="Uring" xMin="90" yMin="-16" xMax="616" yMax="986">
      <component glyphName="U" x="0" y="0" flags="0x204"/>
      <component glyphName="ring.cap" x="38" y="149" flags="0x4"/>
    </TTGlyph>
    <TTGlyph name="V" xMin="134" yMin="0" xMax="657" yMax="691">
      <contour>
        <pt x="207" y="0" on="1"/>
        <pt x="184" y="174" on="0"/>
        <pt x="148" y="513" on="0"/>
        <pt x="134" y="685" on="1"/>
        <pt x="205" y="691" on="1"/>
        <pt x="217" y="536" on="0"/>
        <pt x="250" y="223" on="0"/>
        <pt x="267" y="66" on="1"/>
        <pt x="276" y="66" on="1"/>
        <pt x="357" y="223" on="0"/>
        <pt x="511" y="532" on="0"/>
        <pt x="584" y="688" on="1"/>
        <pt x="657" y="688" on="1"/>
        <pt x="576" y="516" on="0"/>
        <pt x="402" y="174" on="0"/>
        <pt x="311" y="0" on="1"/>
      </contour>
    </TTGlyph>
    <TTGlyph name="W" xMin="88" yMin="0" xMax="645" yMax="688">
      <contour>
        <pt x="345" y="379" on="1"/>
        <pt x="169" y="0" on="1"/>
        <pt x="88" y="0" on="1"/>
        <pt x="90" y="49" on="0"/>
        <pt x="102" y="193" on="0"/>
        <pt x="122" y="371" on="0"/>
        <pt x="148" y="577" on="0"/>
        <pt x="165" y="688" on="1"/>
        <pt x="236" y="688" on="1"/>
        <pt x="229" y="644" on="0"/>
        <pt x="213" y="534" on="0"/>
        <pt x="197" y="416" on="0"/>
        <pt x="181" y="297" on="0"/>
        <pt x="168" y="194" on="0"/>
        <pt x="159" y="112" on="0"/>
        <pt x="157" y="91" on="1"/>
        <pt x="161" y="91" on="1"/>
        <pt x="343" y="486" on="1"/>
        <pt x="390" y="486" on="1"/>
        <pt x="419" y="91" on="1"/>
        <pt x="423" y="91" on="1"/>
        <pt x="429" y="112" on="0"/>
        <pt x="451" y="194" on="0"/>
        <pt x="478" y="297" on="0"/>
        <pt x="508" y="416" on="0"/>
        <pt x="538" y="534" on="0"/>
        <pt x="565" y="644" on="0"/>
        <pt x="575" y="688" on="1"/>
        <pt x="645" y="688" on="1"/>
        <pt x="618" y="577" on="0"/>
        <pt x="564" y="371" on="0"/>
        <pt x="515" y="193" on="0"/>
        <pt x="471" y="49" on="0"/>
        <pt x="455" y="0" on="1"/>
        <pt x="374" y="0" on="1"/>
      </contour>
    </TTGlyph>
    <TTGlyph name="Wacute" xMin="88" yMin="0" xMax="645" yMax="987">
      <component glyphName="acute.cap" x="102" y="149" flags="0x204"/>
      <component glyphName="W" x="0" y="0" flags="0x4"/>
    </TTGlyph>
    <TTGlyph name="Wcircumflex" xMin="88" yMin="0" xMax="645" yMax="974">
      <component glyphName="W" x="0" y="0" flags="0x204"/>
      <component glyphName="circumflex.cap" x="118" y="149" flags="0x4"/>
    </TTGlyph>
    <TTGlyph name="Wdieresis" xMin="88" yMin="0" xMax="645" yMax="929">
      <component glyphName="dieresis.cap" x="110" y="149" flags="0x204"/>
      <component glyphName="W" x="0" y="0" flags="0x4"/>
    </TTGlyph>
    <TTGlyph name="Wgrave" xMin="88" yMin="0" xMax="645" yMax="994">
      <component glyphName="grave.cap" x="118" y="149" flags="0x204"/>
      <component glyphName="W" x="0" y="0" flags="0x4"/>
    </TTGlyph>
    <TTGlyph name="X" xMin="12" yMin="-3" xMax="653" yMax="692">
      <contour>
        <pt x="320" y="295" on="1"/>
        <pt x="91" y="0" on="1"/>
        <pt x="12" y="0" on="1"/>
        <pt x="290" y="348" on="1"/>
        <pt x="145" y="685" on="1"/>
        <pt x="218" y="692" on="1"/>
        <pt x="343" y="394" on="1"/>
        <pt x="573" y="688" on="1"/>
        <pt x="653" y="688" on="1"/>
        <pt x="374" y="340" on="1"/>
        <pt x="519" y="3" on="1"/>
        <pt x="445" y="-3" on="1"/>
      </contour>
    </TTGlyph>
    <TTGlyph name="Y" xMin="128" yMin="0" xMax="662" yMax="690">
      <contour>
        <pt x="224" y="0" on="1"/>
        <pt x="269" y="235" on="1"/>
        <pt x="128" y="687" on="1"/>
        <pt x="203" y="690" on="1"/>
        <pt x="320" y="302" on="1"/>
        <pt x="583" y="688" on="1"/>
        <pt x="662" y="688" on="1"/>
        <pt x="341" y="227" on="1"/>
        <pt x="297" y="0" on="1"/>
      </contour>
    </TTGlyph>
    <TTGlyph name="Yacute" xMin="128" yMin="0" xMax="662" yMax="989">
      <component glyphName="Y" x="0" y="0" flags="0x204"/>
      <component glyphName="acute.cap" x="93" y="151" flags="0x4"/>
    </TTGlyph>
    <TTGlyph name="Ycircumflex" xMin="128" yMin="0" xMax="662" yMax="976">
      <component glyphName="Y" x="0" y="0" flags="0x204"/>
      <component glyphName="circumflex.cap" x="109" y="151" flags="0x4"/>
    </TTGlyph>
    <TTGlyph name="Ydieresis" xMin="128" yMin="0" xMax="662" yMax="931">
      <component glyphName="Y" x="0" y="0" flags="0x204"/>
      <component glyphName="dieresis.cap" x="101" y="151" flags="0x4"/>
    </TTGlyph>
    <TTGlyph name="Ygrave" xMin="128" yMin="0" xMax="662" yMax="996">
      <component glyphName="Y" x="0" y="0" flags="0x204"/>
      <component glyphName="grave.cap" x="109" y="151" flags="0x4"/>
    </TTGlyph>
    <TTGlyph name="Z" xMin="36" yMin="0" xMax="618" yMax="688">
      <contour>
        <pt x="36" y="0" on="1"/>
        <pt x="46" y="62" on="1"/>
        <pt x="525" y="626" on="1"/>
        <pt x="164" y="624" on="1"/>
        <pt x="176" y="688" on="1"/>
        <pt x="618" y="688" on="1"/>
        <pt x="607" y="626" on="1"/>
        <pt x="130" y="62" on="1"/>
        <pt x="501" y="64" on="1"/>
        <pt x="489" y="0" on="1"/>
      </contour>
    </TTGlyph>
    <TTGlyph name="Zacute" xMin="36" yMin="0" xMax="618" yMax="987">
      <component glyphName="Z" x="0" y="0" flags="0x204"/>
      <component glyphName="acute.cap" x="93" y="149" flags="0x4"/>
    </TTGlyph>
    <TTGlyph name="Zcaron" xMin="36" yMin="0" xMax="631" yMax="971">
      <component glyphName="caron.cap" x="106" y="149" flags="0x204"/>
      <component glyphName="Z" x="0" y="0" flags="0x4"/>
    </TTGlyph>
    <TTGlyph name="Zdotaccent" xMin="36" yMin="0" xMax="618" yMax="927">
      <component glyphName="dotaccent.cap" x="111" y="149" flags="0x204"/>
      <component glyphName="Z" x="0" y="0" flags="0x4"/>
    </TTGlyph>
    <TTGlyph name="a" xMin="68" yMin="-11" xMax="575" yMax="549">
      <contour>
        <pt x="575" y="39" on="1"/>
        <pt x="532" y="13" on="0"/>
        <pt x="469" y="-10" on="0"/>
        <pt x="447" y="-10" on="1"/>
        <pt x="416" y="-10" on="0"/>
        <pt x="390" y="31" on="0"/>
        <pt x="390" y="68" on="1"/>
        <pt x="390" y="86" on="0"/>
        <pt x="393" y="107" on="1"/>
        <pt x="369" y="83" on="0"/>
        <pt x="315" y="40" on="0"/>
        <pt x="260" y="8" on="0"/>
        <pt x="207" y="-11" on="0"/>
        <pt x="184" y="-11" on="1"/>
        <pt x="133" y="-11" on="0"/>
        <pt x="68" y="73" on="0"/>
        <pt x="68" y="159" on="1"/>
        <pt x="68" y="235" on="0"/>
        <pt x="116" y="376" on="0"/>
        <pt x="202" y="484" on="0"/>
        <pt x="321" y="549" on="0"/>
        <pt x="392" y="549" on="1"/>
        <pt x="460" y="549" on="0"/>
        <pt x="542" y="527" on="1"/>
        <pt x="465" y="137" on="1"/>
        <pt x="462" y="121" on="0"/>
        <pt x="458" y="95" on="0"/>
        <pt x="458" y="85" on="1"/>
        <pt x="458" y="68" on="0"/>
        <pt x="470" y="52" on="0"/>
        <pt x="486" y="52" on="1"/>
        <pt x="499" y="52" on="0"/>
        <pt x="537" y="64" on="0"/>
        <pt x="566" y="75" on="1"/>
      </contour>
      <contour>
        <pt x="216" y="55" on="1"/>
        <pt x="235" y="55" on="0"/>
        <pt x="282" y="73" on="0"/>
        <pt x="332" y="103" on="0"/>
        <pt x="381" y="143" on="0"/>
        <pt x="402" y="165" on="1"/>
        <pt x="406" y="187" on="0"/>
        <pt x="422" y="265" on="0"/>
        <pt x="440" y="354" on="0"/>
        <pt x="457" y="441" on="0"/>
        <pt x="463" y="472" on="1"/>
        <pt x="398" y="489" on="0"/>
        <pt x="353" y="489" on="1"/>
        <pt x="308" y="489" on="0"/>
        <pt x="230" y="436" on="0"/>
        <pt x="172" y="349" on="0"/>
        <pt x="138" y="235" on="0"/>
        <pt x="138" y="174" on="1"/>
        <pt x="138" y="111" on="0"/>
        <pt x="183" y="55" on="0"/>
      </contour>
    </TTGlyph>
    <TTGlyph name="aacute" xMin="68" yMin="-11" xMax="575" yMax="848">
      <component glyphName="a" x="0" y="0" flags="0x204"/>
      <component glyphName="acute" x="87" y="10" flags="0x4"/>
    </TTGlyph>
    <TTGlyph name="abreve" xMin="68" yMin="-11" xMax="637" yMax="826">
      <component glyphName="a" x="0" y="0" flags="0x204"/>
      <component glyphName="breve" x="112" y="10" flags="0x4"/>
    </TTGlyph>
    <TTGlyph name="acircumflex" xMin="68" yMin="-11" xMax="600" yMax="835">
      <component glyphName="a" x="0" y="0" flags="0x204"/>
      <component glyphName="circumflex" x="103" y="10" flags="0x4"/>
    </TTGlyph>
    <TTGlyph name="acute" xMin="193" yMin="618" xMax="479" yMax="838">
      <contour>
        <pt x="193" y="650" on="1"/>
        <pt x="220" y="667" on="0"/>
        <pt x="283" y="713" on="0"/>
        <pt x="346" y="764" on="0"/>
        <pt x="404" y="815" on="0"/>
        <pt x="427" y="838" on="1"/>
        <pt x="479" y="781" on="1"/>
        <pt x="452" y="760" on="0"/>
        <pt x="384" y="715" on="0"/>
        <pt x="312" y="672" on="0"/>
        <pt x="240" y="633" on="0"/>
        <pt x="210" y="618" on="1"/>
        <pt x="193" y="650" on="1"/>
      </contour>
    </TTGlyph>
    <TTGlyph name="acute.cap" xMin="193" yMin="618" xMax="479" yMax="838">
      <contour>
        <pt x="193" y="650" on="1"/>
        <pt x="220" y="667" on="0"/>
        <pt x="283" y="713" on="0"/>
        <pt x="346" y="764" on="0"/>
        <pt x="404" y="815" on="0"/>
        <pt x="427" y="838" on="1"/>
        <pt x="479" y="781" on="1"/>
        <pt x="452" y="760" on="0"/>
        <pt x="384" y="715" on="0"/>
        <pt x="312" y="672" on="0"/>
        <pt x="240" y="633" on="0"/>
        <pt x="210" y="618" on="1"/>
        <pt x="193" y="650" on="1"/>
      </contour>
    </TTGlyph>
    <TTGlyph name="adieresis" xMin="68" yMin="-11" xMax="596" yMax="790">
      <component glyphName="a" x="0" y="0" flags="0x204"/>
      <component glyphName="dieresis" x="94" y="10" flags="0x4"/>
    </TTGlyph>
    <TTGlyph name="ae" xMin="51" yMin="-8" xMax="619" yMax="549">
      <contour>
        <pt x="573" y="62" on="1"/>
        <pt x="518" y="25" on="0"/>
        <pt x="431" y="-8" on="0"/>
        <pt x="398" y="-8" on="1"/>
        <pt x="351" y="-8" on="0"/>
        <pt x="298" y="49" on="0"/>
        <pt x="289" y="97" on="1"/>
        <pt x="254" y="52" on="0"/>
        <pt x="175" y="-8" on="0"/>
        <pt x="133" y="-8" on="1"/>
        <pt x="95" y="-8" on="0"/>
        <pt x="51" y="62" on="0"/>
        <pt x="51" y="134" on="1"/>
        <pt x="51" y="210" on="0"/>
        <pt x="90" y="358" on="0"/>
        <pt x="158" y="475" on="0"/>
        <pt x="250" y="546" on="0"/>
        <pt x="303" y="546" on="1"/>
        <pt x="334" y="546" on="0"/>
        <pt x="390" y="525" on="0"/>
        <pt x="419" y="505" on="1"/>
        <pt x="442" y="526" on="0"/>
        <pt x="495" y="549" on="0"/>
        <pt x="523" y="549" on="1"/>
        <pt x="570" y="549" on="0"/>
        <pt x="619" y="493" on="0"/>
        <pt x="619" y="445" on="1"/>
        <pt x="619" y="403" on="0"/>
        <pt x="584" y="324" on="0"/>
        <pt x="517" y="260" on="0"/>
        <pt x="417" y="215" on="0"/>
        <pt x="352" y="206" on="1"/>
        <pt x="351" y="195" on="0"/>
        <pt x="350" y="175" on="0"/>
        <pt x="350" y="165" on="1"/>
        <pt x="350" y="111" on="0"/>
        <pt x="384" y="53" on="0"/>
        <pt x="425" y="53" on="1"/>
        <pt x="475" y="53" on="0"/>
        <pt x="565" y="100" on="1"/>
      </contour>
      <contour>
        <pt x="505" y="490" on="1"/>
        <pt x="479" y="490" on="0"/>
        <pt x="432" y="448" on="0"/>
        <pt x="394" y="380" on="0"/>
        <pt x="365" y="294" on="0"/>
        <pt x="357" y="249" on="1"/>
        <pt x="404" y="256" on="0"/>
        <pt x="477" y="293" on="0"/>
        <pt x="527" y="343" on="0"/>
        <pt x="553" y="402" on="0"/>
        <pt x="553" y="432" on="1"/>
        <pt x="553" y="459" on="0"/>
        <pt x="528" y="490" on="0"/>
      </contour>
      <contour>
        <pt x="162" y="56" on="1"/>
        <pt x="190" y="56" on="0"/>
        <pt x="253" y="116" on="0"/>
        <pt x="284" y="158" on="1"/>
        <pt x="285" y="239" on="0"/>
        <pt x="332" y="396" on="0"/>
        <pt x="373" y="453" on="1"/>
        <pt x="348" y="473" on="0"/>
        <pt x="304" y="489" on="0"/>
        <pt x="285" y="489" on="1"/>
        <pt x="250" y="489" on="0"/>
        <pt x="190" y="427" on="0"/>
        <pt x="146" y="328" on="0"/>
        <pt x="121" y="207" on="0"/>
        <pt x="121" y="148" on="1"/>
        <pt x="121" y="56" on="0"/>
      </contour>
    </TTGlyph>
    <TTGlyph name="aeacute" xMin="51" yMin="-8" xMax="619" yMax="840">
      <component glyphName="acute" x="95" y="2" flags="0x204"/>
      <component glyphName="ae" x="0" y="0" flags="0x4"/>
    </TTGlyph>
    <TTGlyph name="agrave" xMin="68" yMin="-11" xMax="575" yMax="855">
      <component glyphName="a" x="0" y="0" flags="0x204"/>
      <component glyphName="grave" x="103" y="10" flags="0x4"/>
    </TTGlyph>
    <TTGlyph name="amacron" xMin="68" yMin="-11" xMax="607" yMax="747">
      <component glyphName="a" x="0" y="0" flags="0x204"/>
      <component glyphName="macron" x="110" y="10" flags="0x4"/>
    </TTGlyph>
    <TTGlyph name="ampersand" xMin="31" yMin="-21" xMax="584" yMax="710">
      <contour>
        <pt x="530" y="-21" on="1"/>
        <pt x="492" y="17" on="0"/>
        <pt x="425" y="92" on="0"/>
        <pt x="397" y="130" on="1"/>
        <pt x="331" y="61" on="0"/>
        <pt x="207" y="-11" on="0"/>
        <pt x="154" y="-11" on="1"/>
        <pt x="94" y="-11" on="0"/>
        <pt x="31" y="58" on="0"/>
        <pt x="31" y="118" on="1"/>
        <pt x="31" y="162" on="0"/>
        <pt x="67" y="252" on="0"/>
        <pt x="130" y="344" on="0"/>
        <pt x="218" y="436" on="0"/>
        <pt x="270" y="482" on="1"/>
        <pt x="270" y="485" on="1"/>
        <pt x="270" y="527" on="0"/>
        <pt x="292" y="608" on="0"/>
        <pt x="327" y="671" on="0"/>
        <pt x="368" y="710" on="0"/>
        <pt x="387" y="710" on="1"/>
        <pt x="409" y="710" on="0"/>
        <pt x="435" y="685" on="0"/>
        <pt x="435" y="659" on="1"/>
        <pt x="435" y="618" on="0"/>
        <pt x="382" y="517" on="0"/>
        <pt x="334" y="467" on="1"/>
        <pt x="343" y="346" on="0"/>
        <pt x="412" y="233" on="1"/>
        <pt x="439" y="270" on="0"/>
        <pt x="493" y="358" on="0"/>
        <pt x="519" y="410" on="1"/>
        <pt x="580" y="388" on="1"/>
        <pt x="547" y="328" on="0"/>
        <pt x="479" y="227" on="0"/>
        <pt x="444" y="184" on="1"/>
        <pt x="500" y="108" on="0"/>
        <pt x="584" y="28" on="1"/>
      </contour>
      <contour>
        <pt x="174" y="53" on="1"/>
        <pt x="212" y="53" on="0"/>
        <pt x="311" y="114" on="0"/>
        <pt x="366" y="176" on="1"/>
        <pt x="329" y="235" on="0"/>
        <pt x="282" y="353" on="0"/>
        <pt x="274" y="415" on="1"/>
        <pt x="238" y="379" on="0"/>
        <pt x="174" y="306" on="0"/>
        <pt x="127" y="234" on="0"/>
        <pt x="100" y="165" on="0"/>
        <pt x="100" y="132" on="1"/>
        <pt x="100" y="94" on="0"/>
        <pt x="139" y="53" on="0"/>
      </contour>
    </TTGlyph>
    <TTGlyph name="aogonek" xMin="68" yMin="-229" xMax="575" yMax="549">
      <contour>
        <pt x="536" y="-185" on="1"/>
        <pt x="490" y="-209" on="0"/>
        <pt x="415" y="-229" on="0"/>
        <pt x="386" y="-229" on="1"/>
        <pt x="341" y="-229" on="0"/>
        <pt x="295" y="-188" on="0"/>
        <pt x="295" y="-159" on="1"/>
        <pt x="295" y="-121" on="0"/>
        <pt x="359" y="-42" on="0"/>
        <pt x="432" y="2" on="1"/>
        <pt x="390" y="11" on="0"/>
        <pt x="390" y="71" on="1"/>
        <pt x="390" y="87" on="0"/>
        <pt x="393" y="107" on="1"/>
        <pt x="369" y="83" on="0"/>
        <pt x="315" y="40" on="0"/>
        <pt x="260" y="8" on="0"/>
        <pt x="207" y="-11" on="0"/>
        <pt x="184" y="-11" on="1"/>
        <pt x="133" y="-11" on="0"/>
        <pt x="68" y="73" on="0"/>
        <pt x="68" y="159" on="1"/>
        <pt x="68" y="235" on="0"/>
        <pt x="116" y="376" on="0"/>
        <pt x="202" y="484" on="0"/>
        <pt x="321" y="549" on="0"/>
        <pt x="392" y="549" on="1"/>
        <pt x="460" y="549" on="0"/>
        <pt x="542" y="527" on="1"/>
        <pt x="465" y="137" on="1"/>
        <pt x="462" y="121" on="0"/>
        <pt x="458" y="95" on="0"/>
        <pt x="458" y="85" on="1"/>
        <pt x="458" y="68" on="0"/>
        <pt x="470" y="52" on="0"/>
        <pt x="486" y="52" on="1"/>
        <pt x="499" y="52" on="0"/>
        <pt x="537" y="64" on="0"/>
        <pt x="566" y="75" on="1"/>
        <pt x="575" y="39" on="1"/>
        <pt x="517" y="12" on="0"/>
        <pt x="436" y="-37" on="0"/>
        <pt x="385" y="-80" on="0"/>
        <pt x="362" y="-120" on="0"/>
        <pt x="362" y="-139" on="1"/>
        <pt x="362" y="-156" on="0"/>
        <pt x="387" y="-177" on="0"/>
        <pt x="414" y="-177" on="1"/>
        <pt x="434" y="-177" on="0"/>
        <pt x="490" y="-164" on="0"/>
        <pt x="527" y="-149" on="1"/>
      </contour>
      <contour>
        <pt x="216" y="55" on="1"/>
        <pt x="235" y="55" on="0"/>
        <pt x="282" y="73" on="0"/>
        <pt x="332" y="103" on="0"/>
        <pt x="381" y="143" on="0"/>
        <pt x="402" y="165" on="1"/>
        <pt x="406" y="187" on="0"/>
        <pt x="422" y="265" on="0"/>
        <pt x="440" y="354" on="0"/>
        <pt x="457" y="441" on="0"/>
        <pt x="463" y="472" on="1"/>
        <pt x="398" y="489" on="0"/>
        <pt x="353" y="489" on="1"/>
        <pt x="308" y="489" on="0"/>
        <pt x="230" y="436" on="0"/>
        <pt x="172" y="349" on="0"/>
        <pt x="138" y="235" on="0"/>
        <pt x="138" y="174" on="1"/>
        <pt x="138" y="111" on="0"/>
        <pt x="183" y="55" on="0"/>
      </contour>
    </TTGlyph>
    <TTGlyph name="approxequal" xMin="50" yMin="114" xMax="593" yMax="533">
      <contour>
        <pt x="429" y="346" on="1"/>
        <pt x="396" y="346" on="0"/>
        <pt x="349" y="385" on="0"/>
        <pt x="310" y="433" on="0"/>
        <pt x="273" y="472" on="0"/>
        <pt x="251" y="472" on="1"/>
        <pt x="225" y="472" on="0"/>
        <pt x="167" y="402" on="0"/>
        <pt x="134" y="348" on="1"/>
        <pt x="94" y="371" on="1"/>
        <pt x="141" y="453" on="0"/>
        <pt x="219" y="533" on="0"/>
        <pt x="265" y="533" on="1"/>
        <pt x="298" y="533" on="0"/>
        <pt x="344" y="493" on="0"/>
        <pt x="382" y="446" on="0"/>
        <pt x="417" y="406" on="0"/>
        <pt x="438" y="406" on="1"/>
        <pt x="465" y="406" on="0"/>
        <pt x="521" y="475" on="0"/>
        <pt x="553" y="526" on="1"/>
        <pt x="593" y="504" on="1"/>
        <pt x="546" y="422" on="0"/>
        <pt x="473" y="346" on="0"/>
      </contour>
      <contour>
        <pt x="384" y="114" on="1"/>
        <pt x="351" y="114" on="0"/>
        <pt x="304" y="154" on="0"/>
        <pt x="265" y="201" on="0"/>
        <pt x="228" y="241" on="0"/>
        <pt x="206" y="241" on="1"/>
        <pt x="180" y="241" on="0"/>
        <pt x="122" y="170" on="0"/>
        <pt x="89" y="117" on="1"/>
        <pt x="50" y="139" on="1"/>
        <pt x="97" y="221" on="0"/>
        <pt x="175" y="301" on="0"/>
        <pt x="220" y="301" on="1"/>
        <pt x="253" y="301" on="0"/>
        <pt x="300" y="261" on="0"/>
        <pt x="338" y="214" on="0"/>
        <pt x="373" y="174" on="0"/>
        <pt x="394" y="174" on="1"/>
        <pt x="420" y="174" on="0"/>
        <pt x="476" y="243" on="0"/>
        <pt x="508" y="295" on="1"/>
        <pt x="548" y="272" on="1"/>
        <pt x="501" y="191" on="0"/>
        <pt x="429" y="114" on="0"/>
      </contour>
    </TTGlyph>
    <TTGlyph name="aring" xMin="68" yMin="-11" xMax="575" yMax="847">
      <component glyphName="a" x="0" y="0" flags="0x204"/>
      <component glyphName="ring" x="25" y="10" flags="0x4"/>
    </TTGlyph>
    <TTGlyph name="aringacute" xMin="68" yMin="-11" xMax="636" yMax="1112">
      <component glyphName="a" x="0" y="0" flags="0x204"/>
      <component glyphName="ring" x="25" y="10" flags="0x4"/>
      <component glyphName="acute" x="157" y="274" flags="0x4"/>
    </TTGlyph>
    <TTGlyph name="asciicircum" xMin="63" yMin="179" xMax="555" yMax="546">
      <contour>
        <pt x="343" y="450" on="1"/>
        <pt x="108" y="179" on="1"/>
        <pt x="63" y="218" on="1"/>
        <pt x="346" y="544" on="1"/>
        <pt x="363" y="546" on="1"/>
        <pt x="555" y="218" on="1"/>
        <pt x="496" y="181" on="1"/>
      </contour>
    </TTGlyph>
    <TTGlyph name="asciitilde" xMin="54" yMin="223" xMax="602" yMax="454">
      <contour>
        <pt x="423" y="223" on="1"/>
        <pt x="400" y="223" on="0"/>
        <pt x="360" y="248" on="0"/>
        <pt x="327" y="285" on="0"/>
        <pt x="297" y="328" on="0"/>
        <pt x="268" y="365" on="0"/>
        <pt x="240" y="390" on="0"/>
        <pt x="224" y="390" on="1"/>
        <pt x="209" y="390" on="0"/>
        <pt x="178" y="366" on="0"/>
        <pt x="146" y="324" on="0"/>
        <pt x="116" y="266" on="0"/>
        <pt x="101" y="232" on="1"/>
        <pt x="54" y="252" on="1"/>
        <pt x="97" y="350" on="0"/>
        <pt x="187" y="454" on="0"/>
        <pt x="235" y="454" on="1"/>
        <pt x="270" y="454" on="0"/>
        <pt x="323" y="402" on="0"/>
        <pt x="367" y="339" on="0"/>
        <pt x="408" y="287" on="0"/>
        <pt x="431" y="287" on="1"/>
        <pt x="446" y="287" on="0"/>
        <pt x="478" y="311" on="0"/>
        <pt x="509" y="353" on="0"/>
        <pt x="540" y="411" on="0"/>
        <pt x="555" y="445" on="1"/>
        <pt x="602" y="425" on="1"/>
        <pt x="558" y="325" on="0"/>
        <pt x="471" y="223" on="0"/>
      </contour>
    </TTGlyph>
    <TTGlyph name="asterisk" xMin="146" yMin="309" xMax="586" yMax="764">
      <contour>
        <pt x="333" y="465" on="1"/>
        <pt x="184" y="375" on="1"/>
        <pt x="157" y="409" on="1"/>
        <pt x="281" y="531" on="1"/>
        <pt x="146" y="647" on="1"/>
        <pt x="171" y="683" on="1"/>
        <pt x="325" y="601" on="1"/>
        <pt x="395" y="764" on="1"/>
        <pt x="438" y="752" on="1"/>
        <pt x="410" y="579" on="1"/>
        <pt x="585" y="563" on="1"/>
        <pt x="586" y="521" on="1"/>
        <pt x="412" y="495" on="1"/>
        <pt x="453" y="325" on="1"/>
        <pt x="412" y="309" on="1"/>
      </contour>
    </TTGlyph>
    <TTGlyph name="asterisk.alt" xMin="121" yMin="304" xMax="586" yMax="769">
      <contour>
        <pt x="358" y="619" on="1"/>
        <pt x="381" y="769" on="1"/>
        <pt x="449" y="750" on="1"/>
        <pt x="392" y="611" on="1"/>
      </contour>
      <contour>
        <pt x="284" y="582" on="1"/>
        <pt x="166" y="676" on="1"/>
        <pt x="216" y="726" on="1"/>
        <pt x="309" y="609" on="1"/>
      </contour>
      <contour>
        <pt x="427" y="575" on="1"/>
        <pt x="567" y="629" on="1"/>
        <pt x="586" y="562" on="1"/>
        <pt x="438" y="539" on="1"/>
      </contour>
      <contour>
        <pt x="280" y="498" on="1"/>
        <pt x="140" y="444" on="1"/>
        <pt x="121" y="511" on="1"/>
        <pt x="270" y="534" on="1"/>
      </contour>
      <contour>
        <pt x="424" y="491" on="1"/>
        <pt x="541" y="397" on="1"/>
        <pt x="492" y="347" on="1"/>
        <pt x="399" y="464" on="1"/>
      </contour>
      <contour>
        <pt x="349" y="453" on="1"/>
        <pt x="328" y="304" on="1"/>
        <pt x="260" y="322" on="1"/>
        <pt x="315" y="461" on="1"/>
      </contour>
    </TTGlyph>
    <TTGlyph name="at" xMin="67" yMin="-173" xMax="617" yMax="756">
      <contour>
        <pt x="455" y="-156" on="1"/>
        <pt x="378" y="-173" on="0"/>
        <pt x="322" y="-173" on="1"/>
        <pt x="254" y="-173" on="0"/>
        <pt x="157" y="-131" on="0"/>
        <pt x="96" y="-52" on="0"/>
        <pt x="67" y="61" on="0"/>
        <pt x="67" y="132" on="1"/>
        <pt x="67" y="211" on="0"/>
        <pt x="95" y="364" on="0"/>
        <pt x="147" y="503" on="0"/>
        <pt x="219" y="621" on="0"/>
        <pt x="309" y="707" on="0"/>
        <pt x="412" y="756" on="0"/>
        <pt x="468" y="756" on="1"/>
        <pt x="617" y="756" on="0"/>
        <pt x="617" y="590" on="1"/>
        <pt x="617" y="543" on="0"/>
        <pt x="605" y="483" on="1"/>
        <pt x="558" y="254" on="1"/>
        <pt x="550" y="212" on="0"/>
        <pt x="534" y="115" on="0"/>
        <pt x="528" y="71" on="1"/>
        <pt x="467" y="72" on="1"/>
        <pt x="473" y="130" on="1"/>
        <pt x="443" y="102" on="0"/>
        <pt x="374" y="65" on="0"/>
        <pt x="345" y="65" on="1"/>
        <pt x="310" y="65" on="0"/>
        <pt x="263" y="133" on="0"/>
        <pt x="263" y="205" on="1"/>
        <pt x="263" y="264" on="0"/>
        <pt x="296" y="381" on="0"/>
        <pt x="355" y="473" on="0"/>
        <pt x="439" y="530" on="0"/>
        <pt x="490" y="530" on="1"/>
        <pt x="518" y="530" on="0"/>
        <pt x="550" y="523" on="1"/>
        <pt x="552" y="540" on="0"/>
        <pt x="555" y="569" on="0"/>
        <pt x="555" y="583" on="1"/>
        <pt x="555" y="641" on="0"/>
        <pt x="506" y="700" on="0"/>
        <pt x="453" y="700" on="1"/>
        <pt x="410" y="700" on="0"/>
        <pt x="329" y="656" on="0"/>
        <pt x="257" y="579" on="0"/>
        <pt x="197" y="473" on="0"/>
        <pt x="153" y="348" on="0"/>
        <pt x="129" y="208" on="0"/>
        <pt x="129" y="137" on="1"/>
        <pt x="129" y="17" on="0"/>
        <pt x="222" y="-115" on="0"/>
        <pt x="333" y="-115" on="1"/>
        <pt x="388" y="-115" on="0"/>
        <pt x="463" y="-97" on="1"/>
      </contour>
      <contour>
        <pt x="375" y="126" on="1"/>
        <pt x="397" y="126" on="0"/>
        <pt x="455" y="156" on="0"/>
        <pt x="480" y="178" on="1"/>
        <pt x="537" y="460" on="1"/>
        <pt x="517" y="467" on="0"/>
        <pt x="477" y="475" on="0"/>
        <pt x="463" y="475" on="1"/>
        <pt x="436" y="475" on="0"/>
        <pt x="387" y="428" on="0"/>
        <pt x="349" y="353" on="0"/>
        <pt x="326" y="261" on="0"/>
        <pt x="326" y="216" on="1"/>
        <pt x="326" y="168" on="0"/>
        <pt x="355" y="126" on="0"/>
      </contour>
    </TTGlyph>
    <TTGlyph name="atilde" xMin="68" yMin="-11" xMax="652" yMax="815">
      <component glyphName="a" x="0" y="0" flags="0x204"/>
      <component glyphName="tilde" x="108" y="10" flags="0x4"/>
    </TTGlyph>
    <TTGlyph name="b" xMin="73" yMin="-11" xMax="555" yMax="780">
      <contour>
        <pt x="231" y="-11" on="1"/>
        <pt x="196" y="-11" on="0"/>
        <pt x="115" y="4" on="0"/>
        <pt x="73" y="15" on="1"/>
        <pt x="221" y="774" on="1"/>
        <pt x="290" y="780" on="1"/>
        <pt x="223" y="435" on="1"/>
        <pt x="247" y="459" on="0"/>
        <pt x="300" y="501" on="0"/>
        <pt x="355" y="533" on="0"/>
        <pt x="408" y="552" on="0"/>
        <pt x="432" y="552" on="1"/>
        <pt x="485" y="552" on="0"/>
        <pt x="555" y="462" on="0"/>
        <pt x="555" y="371" on="1"/>
        <pt x="555" y="296" on="0"/>
        <pt x="507" y="158" on="0"/>
        <pt x="421" y="52" on="0"/>
        <pt x="302" y="-11" on="0"/>
      </contour>
      <contour>
        <pt x="269" y="49" on="1"/>
        <pt x="314" y="49" on="0"/>
        <pt x="394" y="100" on="0"/>
        <pt x="452" y="186" on="0"/>
        <pt x="486" y="296" on="0"/>
        <pt x="486" y="356" on="1"/>
        <pt x="486" y="424" on="0"/>
        <pt x="436" y="487" on="0"/>
        <pt x="402" y="487" on="1"/>
        <pt x="381" y="487" on="0"/>
        <pt x="332" y="468" on="0"/>
        <pt x="281" y="436" on="0"/>
        <pt x="232" y="394" on="0"/>
        <pt x="211" y="372" on="1"/>
        <pt x="152" y="68" on="1"/>
        <pt x="186" y="58" on="0"/>
        <pt x="246" y="49" on="0"/>
      </contour>
    </TTGlyph>
    <TTGlyph name="backslash" xMin="133" yMin="-202" xMax="501" yMax="791">
      <contour>
        <pt x="501" y="-184" on="1"/>
        <pt x="442" y="-202" on="1"/>
        <pt x="133" y="772" on="1"/>
        <pt x="191" y="791" on="1"/>
      </contour>
    </TTGlyph>
    <TTGlyph name="bar" xMin="185" yMin="-200" xMax="441" yMax="781">
      <contour>
        <pt x="441" y="781" on="1"/>
        <pt x="251" y="-200" on="1"/>
        <pt x="185" y="-200" on="1"/>
        <pt x="376" y="779" on="1"/>
      </contour>
    </TTGlyph>
    <TTGlyph name="braceleft" xMin="115" yMin="-228" xMax="617" yMax="799">
      <contour>
        <pt x="417" y="-228" on="1"/>
        <pt x="342" y="-195" on="0"/>
        <pt x="235" y="-138" on="0"/>
        <pt x="167" y="-87" on="0"/>
        <pt x="136" y="-38" on="0"/>
        <pt x="136" y="-12" on="1"/>
        <pt x="136" y="24" on="0"/>
        <pt x="178" y="78" on="0"/>
        <pt x="228" y="123" on="0"/>
        <pt x="270" y="164" on="0"/>
        <pt x="270" y="187" on="1"/>
        <pt x="270" y="216" on="0"/>
        <pt x="196" y="257" on="0"/>
        <pt x="115" y="265" on="1"/>
        <pt x="125" y="317" on="1"/>
        <pt x="180" y="320" on="0"/>
        <pt x="253" y="336" on="0"/>
        <pt x="297" y="359" on="0"/>
        <pt x="314" y="386" on="0"/>
        <pt x="314" y="400" on="1"/>
        <pt x="314" y="418" on="0"/>
        <pt x="291" y="458" on="0"/>
        <pt x="262" y="502" on="0"/>
        <pt x="239" y="550" on="0"/>
        <pt x="239" y="576" on="1"/>
        <pt x="239" y="605" on="0"/>
        <pt x="276" y="664" on="0"/>
        <pt x="362" y="721" on="0"/>
        <pt x="502" y="775" on="0"/>
        <pt x="605" y="799" on="1"/>
        <pt x="617" y="737" on="1"/>
        <pt x="533" y="720" on="0"/>
        <pt x="415" y="685" on="0"/>
        <pt x="339" y="648" on="0"/>
        <pt x="304" y="608" on="0"/>
        <pt x="304" y="586" on="1"/>
        <pt x="304" y="566" on="0"/>
        <pt x="327" y="523" on="0"/>
        <pt x="356" y="478" on="0"/>
        <pt x="379" y="433" on="0"/>
        <pt x="379" y="412" on="1"/>
        <pt x="379" y="379" on="0"/>
        <pt x="312" y="310" on="0"/>
        <pt x="236" y="292" on="1"/>
        <pt x="293" y="275" on="0"/>
        <pt x="338" y="227" on="0"/>
        <pt x="338" y="199" on="1"/>
        <pt x="338" y="169" on="0"/>
        <pt x="297" y="121" on="0"/>
        <pt x="247" y="76" on="0"/>
        <pt x="206" y="30" on="0"/>
        <pt x="206" y="2" on="1"/>
        <pt x="206" y="-18" on="0"/>
        <pt x="234" y="-57" on="0"/>
        <pt x="293" y="-99" on="0"/>
        <pt x="385" y="-145" on="0"/>
        <pt x="448" y="-172" on="1"/>
        <pt x="417" y="-228" on="1"/>
      </contour>
    </TTGlyph>
    <TTGlyph name="braceleft.cap" xMin="126" yMin="-174" xMax="628" yMax="853">
      <component glyphName="braceleft" x="11" y="54" flags="0x204"/>
    </TTGlyph>
    <TTGlyph name="braceright" xMin="5" yMin="-227" xMax="507" yMax="800">
      <contour>
        <pt x="5" y="-165" on="1"/>
        <pt x="89" y="-148" on="0"/>
        <pt x="207" y="-113" on="0"/>
        <pt x="283" y="-76" on="0"/>
        <pt x="318" y="-36" on="0"/>
        <pt x="318" y="-14" on="1"/>
        <pt x="318" y="5" on="0"/>
        <pt x="295" y="49" on="0"/>
        <pt x="266" y="94" on="0"/>
        <pt x="243" y="139" on="0"/>
        <pt x="243" y="160" on="1"/>
        <pt x="243" y="176" on="0"/>
        <pt x="259" y="212" on="0"/>
        <pt x="293" y="244" on="0"/>
        <pt x="348" y="272" on="0"/>
        <pt x="386" y="281" on="1"/>
        <pt x="329" y="297" on="0"/>
        <pt x="284" y="345" on="0"/>
        <pt x="284" y="373" on="1"/>
        <pt x="284" y="403" on="0"/>
        <pt x="325" y="451" on="0"/>
        <pt x="375" y="496" on="0"/>
        <pt x="416" y="542" on="0"/>
        <pt x="416" y="570" on="1"/>
        <pt x="416" y="590" on="0"/>
        <pt x="388" y="629" on="0"/>
        <pt x="329" y="671" on="0"/>
        <pt x="237" y="718" on="0"/>
        <pt x="174" y="745" on="1"/>
        <pt x="205" y="800" on="1"/>
        <pt x="280" y="767" on="0"/>
        <pt x="387" y="710" on="0"/>
        <pt x="455" y="659" on="0"/>
        <pt x="487" y="610" on="0"/>
        <pt x="487" y="584" on="1"/>
        <pt x="487" y="548" on="0"/>
        <pt x="445" y="494" on="0"/>
        <pt x="394" y="449" on="0"/>
        <pt x="352" y="408" on="0"/>
        <pt x="352" y="385" on="1"/>
        <pt x="352" y="356" on="0"/>
        <pt x="426" y="315" on="0"/>
        <pt x="507" y="307" on="1"/>
        <pt x="497" y="256" on="1"/>
        <pt x="441" y="253" on="0"/>
        <pt x="369" y="236" on="0"/>
        <pt x="325" y="214" on="0"/>
        <pt x="308" y="186" on="0"/>
        <pt x="308" y="172" on="1"/>
        <pt x="308" y="154" on="0"/>
        <pt x="331" y="114" on="0"/>
        <pt x="360" y="70" on="0"/>
        <pt x="383" y="22" on="0"/>
        <pt x="383" y="-4" on="1"/>
        <pt x="383" y="-33" on="0"/>
        <pt x="346" y="-92" on="0"/>
        <pt x="260" y="-149" on="0"/>
        <pt x="120" y="-203" on="0"/>
        <pt x="18" y="-227" on="1"/>
      </contour>
    </TTGlyph>
    <TTGlyph name="braceright.cap" xMin="16" yMin="-173" xMax="518" yMax="854">
      <component glyphName="braceright" x="11" y="54" flags="0x204"/>
    </TTGlyph>
    <TTGlyph name="bracketleft" xMin="79" yMin="-198" xMax="608" yMax="768">
      <contour>
        <pt x="267" y="768" on="1"/>
        <pt x="608" y="768" on="1"/>
        <pt x="595" y="710" on="1"/>
        <pt x="324" y="710" on="1"/>
        <pt x="159" y="-140" on="1"/>
        <pt x="431" y="-140" on="1"/>
        <pt x="419" y="-198" on="1"/>
        <pt x="79" y="-198" on="1"/>
      </contour>
    </TTGlyph>
    <TTGlyph name="bracketleft.cap" xMin="90" yMin="-144" xMax="619" yMax="822">
      <component glyphName="bracketleft" x="11" y="54" flags="0x204"/>
    </TTGlyph>
    <TTGlyph name="bracketright" xMin="15" yMin="-197" xMax="544" yMax="769">
      <contour>
        <pt x="355" y="-197" on="1"/>
        <pt x="15" y="-197" on="1"/>
        <pt x="27" y="-139" on="1"/>
        <pt x="299" y="-139" on="1"/>
        <pt x="464" y="712" on="1"/>
        <pt x="192" y="712" on="1"/>
        <pt x="203" y="769" on="1"/>
        <pt x="544" y="769" on="1"/>
      </contour>
    </TTGlyph>
    <TTGlyph name="bracketright.cap" xMin="26" yMin="-143" xMax="555" yMax="823">
      <component glyphName="bracketright" x="11" y="54" flags="0x204"/>
    </TTGlyph>
    <TTGlyph name="breve" xMin="125" yMin="627" xMax="525" yMax="816">
      <contour>
        <pt x="525" y="785" on="1"/>
        <pt x="468" y="710" on="0"/>
        <pt x="354" y="627" on="0"/>
        <pt x="296" y="627" on="1"/>
        <pt x="241" y="627" on="0"/>
        <pt x="157" y="705" on="0"/>
        <pt x="125" y="789" on="1"/>
        <pt x="180" y="816" on="1"/>
        <pt x="209" y="745" on="0"/>
        <pt x="269" y="685" on="0"/>
        <pt x="311" y="685" on="1"/>
        <pt x="356" y="685" on="0"/>
        <pt x="436" y="751" on="0"/>
        <pt x="484" y="812" on="1"/>
      </contour>
    </TTGlyph>
    <TTGlyph name="breve.cap" xMin="125" yMin="627" xMax="525" yMax="816">
      <contour>
        <pt x="525" y="785" on="1"/>
        <pt x="468" y="710" on="0"/>
        <pt x="354" y="627" on="0"/>
        <pt x="296" y="627" on="1"/>
        <pt x="241" y="627" on="0"/>
        <pt x="157" y="705" on="0"/>
        <pt x="125" y="789" on="1"/>
        <pt x="180" y="816" on="1"/>
        <pt x="209" y="745" on="0"/>
        <pt x="269" y="685" on="0"/>
        <pt x="311" y="685" on="1"/>
        <pt x="356" y="685" on="0"/>
        <pt x="436" y="751" on="0"/>
        <pt x="484" y="812" on="1"/>
      </contour>
    </TTGlyph>
    <TTGlyph name="bullet" xMin="197" yMin="199" xMax="445" yMax="462">
      <contour>
        <pt x="445" y="345" on="1"/>
        <pt x="445" y="313" on="0"/>
        <pt x="422" y="259" on="0"/>
        <pt x="384" y="220" on="0"/>
        <pt x="335" y="199" on="0"/>
        <pt x="309" y="199" on="1"/>
        <pt x="261" y="199" on="0"/>
        <pt x="197" y="265" on="0"/>
        <pt x="197" y="317" on="1"/>
        <pt x="197" y="349" on="0"/>
        <pt x="219" y="403" on="0"/>
        <pt x="257" y="441" on="0"/>
        <pt x="305" y="462" on="0"/>
        <pt x="331" y="462" on="1"/>
        <pt x="382" y="462" on="0"/>
        <pt x="445" y="397" on="0"/>
      </contour>
    </TTGlyph>
    <TTGlyph name="bullet.alt" xMin="192" yMin="218" xMax="455" yMax="441">
      <contour>
        <pt x="192" y="218" on="1"/>
        <pt x="237" y="441" on="1"/>
        <pt x="455" y="441" on="1"/>
        <pt x="411" y="218" on="1"/>
      </contour>
    </TTGlyph>
    <TTGlyph name="c" xMin="91" yMin="-11" xMax="550" yMax="551">
      <contour>
        <pt x="486" y="374" on="1"/>
        <pt x="484" y="439" on="0"/>
        <pt x="440" y="490" on="0"/>
        <pt x="394" y="490" on="1"/>
        <pt x="346" y="490" on="0"/>
        <pt x="262" y="443" on="0"/>
        <pt x="198" y="365" on="0"/>
        <pt x="161" y="261" on="0"/>
        <pt x="161" y="204" on="1"/>
        <pt x="161" y="129" on="0"/>
        <pt x="237" y="50" on="0"/>
        <pt x="313" y="50" on="1"/>
        <pt x="351" y="50" on="0"/>
        <pt x="446" y="70" on="0"/>
        <pt x="503" y="91" on="1"/>
        <pt x="514" y="52" on="1"/>
        <pt x="448" y="19" on="0"/>
        <pt x="335" y="-11" on="0"/>
        <pt x="288" y="-11" on="1"/>
        <pt x="240" y="-11" on="0"/>
        <pt x="167" y="18" on="0"/>
        <pt x="117" y="72" on="0"/>
        <pt x="91" y="147" on="0"/>
        <pt x="91" y="193" on="1"/>
        <pt x="91" y="263" on="0"/>
        <pt x="143" y="393" on="0"/>
        <pt x="231" y="492" on="0"/>
        <pt x="347" y="551" on="0"/>
        <pt x="411" y="551" on="1"/>
        <pt x="483" y="551" on="0"/>
        <pt x="550" y="475" on="0"/>
        <pt x="550" y="390" on="1"/>
        <pt x="550" y="375" on="1"/>
      </contour>
    </TTGlyph>
    <TTGlyph name="cacute" xMin="91" yMin="-11" xMax="564" yMax="850">
      <component glyphName="acute" x="85" y="12" flags="0x204"/>
      <component glyphName="c" x="0" y="0" flags="0x4"/>
    </TTGlyph>
    <TTGlyph name="caron" xMin="149" yMin="616" xMax="525" yMax="822">
      <contour>
        <pt x="299" y="616" on="1"/>
        <pt x="149" y="783" on="1"/>
        <pt x="198" y="822" on="1"/>
        <pt x="313" y="688" on="1"/>
        <pt x="491" y="817" on="1"/>
        <pt x="525" y="779" on="1"/>
        <pt x="302" y="616" on="1"/>
      </contour>
    </TTGlyph>
    <TTGlyph name="caron.alt" xMin="259" yMin="611" xMax="405" yMax="890">
      <contour>
        <pt x="405" y="890" on="1"/>
        <pt x="403" y="823" on="0"/>
        <pt x="354" y="686" on="0"/>
        <pt x="290" y="611" on="1"/>
        <pt x="259" y="626" on="1"/>
        <pt x="284" y="664" on="0"/>
        <pt x="310" y="732" on="0"/>
        <pt x="322" y="795" on="0"/>
        <pt x="322" y="856" on="0"/>
        <pt x="320" y="886" on="1"/>
      </contour>
    </TTGlyph>
    <TTGlyph name="caron.cap" xMin="149" yMin="616" xMax="525" yMax="822">
      <contour>
        <pt x="299" y="616" on="1"/>
        <pt x="149" y="783" on="1"/>
        <pt x="198" y="822" on="1"/>
        <pt x="313" y="688" on="1"/>
        <pt x="491" y="817" on="1"/>
        <pt x="525" y="779" on="1"/>
        <pt x="302" y="616" on="1"/>
      </contour>
    </TTGlyph>
    <TTGlyph name="ccaron" xMin="91" yMin="-11" xMax="623" yMax="834">
      <component glyphName="caron" x="98" y="12" flags="0x204"/>
      <component glyphName="c" x="0" y="0" flags="0x4"/>
    </TTGlyph>
    <TTGlyph name="ccedilla" xMin="91" yMin="-204" xMax="550" yMax="551">
      <contour>
        <pt x="325" y="-204" on="1"/>
        <pt x="326" y="-196" on="0"/>
        <pt x="326" y="-180" on="0"/>
        <pt x="326" y="-172" on="1"/>
        <pt x="326" y="-107" on="0"/>
        <pt x="291" y="-51" on="0"/>
        <pt x="263" y="-51" on="1"/>
        <pt x="233" y="-51" on="0"/>
        <pt x="178" y="-115" on="0"/>
        <pt x="151" y="-172" on="1"/>
        <pt x="112" y="-159" on="1"/>
        <pt x="165" y="-32" on="0"/>
        <pt x="232" y="-5" on="1"/>
        <pt x="163" y="10" on="0"/>
        <pt x="91" y="115" on="0"/>
        <pt x="91" y="193" on="1"/>
        <pt x="91" y="263" on="0"/>
        <pt x="143" y="393" on="0"/>
        <pt x="231" y="492" on="0"/>
        <pt x="347" y="551" on="0"/>
        <pt x="411" y="551" on="1"/>
        <pt x="483" y="551" on="0"/>
        <pt x="550" y="475" on="0"/>
        <pt x="550" y="390" on="1"/>
        <pt x="550" y="375" on="1"/>
        <pt x="486" y="374" on="1"/>
        <pt x="484" y="439" on="0"/>
        <pt x="440" y="490" on="0"/>
        <pt x="394" y="490" on="1"/>
        <pt x="346" y="490" on="0"/>
        <pt x="262" y="443" on="0"/>
        <pt x="198" y="365" on="0"/>
        <pt x="161" y="261" on="0"/>
        <pt x="161" y="204" on="1"/>
        <pt x="161" y="129" on="0"/>
        <pt x="237" y="50" on="0"/>
        <pt x="313" y="50" on="1"/>
        <pt x="351" y="50" on="0"/>
        <pt x="446" y="70" on="0"/>
        <pt x="503" y="91" on="1"/>
        <pt x="514" y="52" on="1"/>
        <pt x="459" y="24" on="0"/>
        <pt x="363" y="-5" on="0"/>
        <pt x="321" y="-10" on="1"/>
        <pt x="352" y="-27" on="0"/>
        <pt x="390" y="-106" on="0"/>
        <pt x="390" y="-172" on="1"/>
        <pt x="390" y="-180" on="0"/>
        <pt x="390" y="-194" on="0"/>
        <pt x="389" y="-202" on="1"/>
      </contour>
    </TTGlyph>
    <TTGlyph name="cdotaccent" xMin="91" yMin="-11" xMax="550" yMax="790">
      <component glyphName="c" x="0" y="0" flags="0x204"/>
      <component glyphName="dotaccent" x="103" y="12" flags="0x4"/>
    </TTGlyph>
    <TTGlyph name="cedilla" xMin="122" yMin="-193" xMax="400" yMax="13">
      <contour>
        <pt x="122" y="-148" on="1"/>
        <pt x="157" y="-65" on="0"/>
        <pt x="235" y="13" on="0"/>
        <pt x="281" y="13" on="1"/>
        <pt x="331" y="13" on="0"/>
        <pt x="400" y="-71" on="0"/>
        <pt x="400" y="-162" on="1"/>
        <pt x="400" y="-169" on="0"/>
        <pt x="400" y="-183" on="0"/>
        <pt x="399" y="-191" on="1"/>
        <pt x="335" y="-193" on="1"/>
        <pt x="336" y="-185" on="0"/>
        <pt x="336" y="-169" on="0"/>
        <pt x="336" y="-161" on="1"/>
        <pt x="336" y="-96" on="0"/>
        <pt x="301" y="-40" on="0"/>
        <pt x="273" y="-40" on="1"/>
        <pt x="243" y="-40" on="0"/>
        <pt x="188" y="-104" on="0"/>
        <pt x="161" y="-161" on="1"/>
      </contour>
    </TTGlyph>
    <TTGlyph name="cedilla.cap" xMin="122" yMin="-193" xMax="400" yMax="13">
      <contour>
        <pt x="122" y="-148" on="1"/>
        <pt x="157" y="-65" on="0"/>
        <pt x="235" y="13" on="0"/>
        <pt x="281" y="13" on="1"/>
        <pt x="331" y="13" on="0"/>
        <pt x="400" y="-71" on="0"/>
        <pt x="400" y="-162" on="1"/>
        <pt x="400" y="-169" on="0"/>
        <pt x="400" y="-183" on="0"/>
        <pt x="399" y="-191" on="1"/>
        <pt x="335" y="-193" on="1"/>
        <pt x="336" y="-185" on="0"/>
        <pt x="336" y="-169" on="0"/>
        <pt x="336" y="-161" on="1"/>
        <pt x="336" y="-96" on="0"/>
        <pt x="301" y="-40" on="0"/>
        <pt x="273" y="-40" on="1"/>
        <pt x="243" y="-40" on="0"/>
        <pt x="188" y="-104" on="0"/>
        <pt x="161" y="-161" on="1"/>
      </contour>
    </TTGlyph>
    <TTGlyph name="cent" xMin="102" yMin="-95" xMax="563" yMax="688">
      <contour>
        <pt x="168" y="283" on="1"/>
        <pt x="168" y="235" on="0"/>
        <pt x="223" y="158" on="0"/>
        <pt x="292" y="133" on="1"/>
        <pt x="367" y="459" on="1"/>
        <pt x="310" y="451" on="0"/>
        <pt x="234" y="417" on="0"/>
        <pt x="188" y="370" on="0"/>
        <pt x="168" y="314" on="0"/>
      </contour>
      <contour>
        <pt x="474" y="37" on="1"/>
        <pt x="433" y="39" on="0"/>
        <pt x="362" y="47" on="0"/>
        <pt x="330" y="54" on="1"/>
        <pt x="298" y="-95" on="1"/>
        <pt x="233" y="-95" on="1"/>
        <pt x="272" y="69" on="1"/>
        <pt x="182" y="99" on="0"/>
        <pt x="102" y="204" on="0"/>
        <pt x="102" y="270" on="1"/>
        <pt x="102" y="311" on="0"/>
        <pt x="131" y="392" on="0"/>
        <pt x="197" y="461" on="0"/>
        <pt x="301" y="514" on="0"/>
        <pt x="376" y="526" on="1"/>
        <pt x="411" y="688" on="1"/>
        <pt x="476" y="688" on="1"/>
        <pt x="440" y="533" on="1"/>
        <pt x="495" y="537" on="0"/>
        <pt x="563" y="533" on="1"/>
        <pt x="551" y="464" on="1"/>
        <pt x="516" y="467" on="0"/>
        <pt x="451" y="467" on="0"/>
        <pt x="422" y="465" on="1"/>
        <pt x="343" y="118" on="1"/>
        <pt x="373" y="112" on="0"/>
        <pt x="444" y="103" on="0"/>
        <pt x="487" y="101" on="1"/>
      </contour>
    </TTGlyph>
    <TTGlyph name="check.1" xMin="100" yMin="-22" xMax="646" yMax="742">
      <contour>
        <pt x="646" y="708" on="1"/>
        <pt x="532" y="542" on="0"/>
        <pt x="336" y="180" on="0"/>
        <pt x="253" y="-22" on="1"/>
        <pt x="191" y="-22" on="1"/>
        <pt x="100" y="377" on="1"/>
        <pt x="165" y="397" on="1"/>
        <pt x="233" y="70" on="1"/>
        <pt x="237" y="70" on="1"/>
        <pt x="307" y="253" on="0"/>
        <pt x="478" y="590" on="0"/>
        <pt x="578" y="742" on="1"/>
        <pt x="646" y="708" on="1"/>
      </contour>
    </TTGlyph>
    <TTGlyph name="check.2" xMin="46" yMin="-5" xMax="626" yMax="744">
      <contour>
        <pt x="238" y="556" on="1"/>
        <pt x="298" y="362" on="1"/>
        <pt x="561" y="744" on="1"/>
        <pt x="626" y="709" on="1"/>
        <pt x="321" y="299" on="1"/>
        <pt x="417" y="5" on="1"/>
        <pt x="348" y="-5" on="1"/>
        <pt x="270" y="243" on="1"/>
        <pt x="90" y="-1" on="1"/>
        <pt x="46" y="21" on="1"/>
        <pt x="248" y="303" on="1"/>
        <pt x="170" y="537" on="1"/>
      </contour>
    </TTGlyph>
    <TTGlyph name="circumflex" xMin="122" yMin="619" xMax="497" yMax="825">
      <contour>
        <pt x="333" y="753" on="1"/>
        <pt x="154" y="624" on="1"/>
        <pt x="122" y="662" on="1"/>
        <pt x="345" y="825" on="1"/>
        <pt x="348" y="825" on="1"/>
        <pt x="497" y="658" on="1"/>
        <pt x="448" y="619" on="1"/>
      </contour>
    </TTGlyph>
    <TTGlyph name="circumflex.cap" xMin="122" yMin="619" xMax="497" yMax="825">
      <contour>
        <pt x="333" y="753" on="1"/>
        <pt x="154" y="624" on="1"/>
        <pt x="122" y="662" on="1"/>
        <pt x="345" y="825" on="1"/>
        <pt x="348" y="825" on="1"/>
        <pt x="497" y="658" on="1"/>
        <pt x="448" y="619" on="1"/>
      </contour>
    </TTGlyph>
    <TTGlyph name="colon" xMin="208" yMin="0" xMax="414" yMax="486">
      <contour>
        <pt x="286" y="371" on="1"/>
        <pt x="309" y="486" on="1"/>
        <pt x="414" y="486" on="1"/>
        <pt x="391" y="371" on="1"/>
      </contour>
      <contour>
        <pt x="208" y="0" on="1"/>
        <pt x="231" y="115" on="1"/>
        <pt x="337" y="115" on="1"/>
        <pt x="313" y="0" on="1"/>
      </contour>
    </TTGlyph>
    <TTGlyph name="colon.alt" xMin="228" yMin="101" xMax="435" yMax="587">
      <contour>
        <pt x="307" y="472" on="1"/>
        <pt x="330" y="587" on="1"/>
        <pt x="435" y="587" on="1"/>
        <pt x="412" y="472" on="1"/>
      </contour>
      <contour>
        <pt x="228" y="101" on="1"/>
        <pt x="251" y="216" on="1"/>
        <pt x="357" y="216" on="1"/>
        <pt x="333" y="101" on="1"/>
      </contour>
    </TTGlyph>
    <TTGlyph name="colonmonetary" xMin="92" yMin="-82" xMax="641" yMax="769">
      <contour>
        <pt x="488" y="586" on="1"/>
        <pt x="433" y="577" on="0"/>
        <pt x="390" y="565" on="1"/>
        <pt x="273" y="142" on="1"/>
        <pt x="291" y="133" on="0"/>
        <pt x="333" y="119" on="0"/>
        <pt x="357" y="112" on="1"/>
      </contour>
      <contour>
        <pt x="157" y="314" on="1"/>
        <pt x="157" y="267" on="0"/>
        <pt x="193" y="194" on="0"/>
        <pt x="231" y="166" on="1"/>
        <pt x="337" y="548" on="1"/>
        <pt x="287" y="529" on="0"/>
        <pt x="219" y="479" on="0"/>
        <pt x="176" y="419" on="0"/>
        <pt x="157" y="351" on="0"/>
      </contour>
      <contour>
        <pt x="337" y="50" on="1"/>
        <pt x="290" y="61" on="0"/>
        <pt x="255" y="77" on="1"/>
        <pt x="211" y="-82" on="1"/>
        <pt x="156" y="-82" on="1"/>
        <pt x="208" y="101" on="1"/>
        <pt x="148" y="137" on="0"/>
        <pt x="92" y="239" on="0"/>
        <pt x="92" y="304" on="1"/>
        <pt x="92" y="351" on="0"/>
        <pt x="120" y="442" on="0"/>
        <pt x="181" y="522" on="0"/>
        <pt x="279" y="590" on="0"/>
        <pt x="349" y="614" on="1"/>
        <pt x="392" y="769" on="1"/>
        <pt x="446" y="769" on="1"/>
        <pt x="408" y="631" on="1"/>
        <pt x="430" y="637" on="0"/>
        <pt x="477" y="646" on="0"/>
        <pt x="503" y="650" on="1"/>
        <pt x="535" y="769" on="1"/>
        <pt x="590" y="769" on="1"/>
        <pt x="559" y="657" on="1"/>
        <pt x="598" y="662" on="0"/>
        <pt x="641" y="663" on="1"/>
        <pt x="635" y="598" on="1"/>
        <pt x="583" y="597" on="0"/>
        <pt x="538" y="592" on="1"/>
        <pt x="402" y="102" on="1"/>
        <pt x="448" y="93" on="0"/>
        <pt x="504" y="87" on="1"/>
        <pt x="479" y="26" on="1"/>
        <pt x="454" y="28" on="0"/>
        <pt x="409" y="34" on="0"/>
        <pt x="387" y="39" on="1"/>
        <pt x="355" y="-82" on="1"/>
        <pt x="300" y="-82" on="1"/>
      </contour>
    </TTGlyph>
    <TTGlyph name="comma" xMin="138" yMin="-204" xMax="338" yMax="118">
      <contour>
        <pt x="138" y="-187" on="1"/>
        <pt x="165" y="-159" on="0"/>
        <pt x="204" y="-106" on="0"/>
        <pt x="228" y="-52" on="0"/>
        <pt x="239" y="5" on="0"/>
        <pt x="239" y="38" on="1"/>
        <pt x="239" y="73" on="0"/>
        <pt x="233" y="115" on="1"/>
        <pt x="338" y="118" on="1"/>
        <pt x="336" y="67" on="0"/>
        <pt x="315" y="-20" on="0"/>
        <pt x="274" y="-96" on="0"/>
        <pt x="211" y="-168" on="0"/>
        <pt x="167" y="-204" on="1"/>
        <pt x="138" y="-187" on="1"/>
      </contour>
    </TTGlyph>
    <TTGlyph name="commaaccent" xMin="218" yMin="-302" xMax="356" yMax="-77">
      <contour>
        <pt x="218" y="-287" on="1"/>
        <pt x="247" y="-246" on="0"/>
        <pt x="269" y="-173" on="0"/>
        <pt x="269" y="-138" on="1"/>
        <pt x="269" y="-109" on="0"/>
        <pt x="263" y="-80" on="1"/>
        <pt x="356" y="-77" on="1"/>
        <pt x="356" y="-131" on="0"/>
        <pt x="303" y="-247" on="0"/>
        <pt x="246" y="-302" on="1"/>
        <pt x="218" y="-287" on="1"/>
      </contour>
    </TTGlyph>
    <TTGlyph name="commaaccent.cap" xMin="218" yMin="-302" xMax="356" yMax="-77">
      <contour>
        <pt x="218" y="-287" on="1"/>
        <pt x="247" y="-246" on="0"/>
        <pt x="269" y="-173" on="0"/>
        <pt x="269" y="-138" on="1"/>
        <pt x="269" y="-109" on="0"/>
        <pt x="263" y="-80" on="1"/>
        <pt x="356" y="-77" on="1"/>
        <pt x="356" y="-131" on="0"/>
        <pt x="303" y="-247" on="0"/>
        <pt x="246" y="-302" on="1"/>
        <pt x="218" y="-287" on="1"/>
      </contour>
    </TTGlyph>
    <TTGlyph name="commaaccent.rot" xMin="258" yMin="620" xMax="396" yMax="845">
      <contour>
        <pt x="396" y="830" on="1"/>
        <pt x="355" y="771" on="0"/>
        <pt x="341" y="670" on="0"/>
        <pt x="351" y="623" on="1"/>
        <pt x="258" y="620" on="1"/>
        <pt x="258" y="674" on="0"/>
        <pt x="311" y="790" on="0"/>
        <pt x="368" y="845" on="1"/>
        <pt x="396" y="830" on="1"/>
      </contour>
    </TTGlyph>
    <TTGlyph name="copyright" xMin="56" yMin="8" xMax="582" yMax="680">
      <contour>
        <pt x="56" y="284" on="1"/>
        <pt x="56" y="373" on="0"/>
        <pt x="104" y="519" on="0"/>
        <pt x="186" y="623" on="0"/>
        <pt x="295" y="680" on="0"/>
        <pt x="356" y="680" on="1"/>
        <pt x="405" y="680" on="0"/>
        <pt x="488" y="643" on="0"/>
        <pt x="548" y="572" on="0"/>
        <pt x="582" y="470" on="0"/>
        <pt x="582" y="405" on="1"/>
        <pt x="582" y="316" on="0"/>
        <pt x="536" y="170" on="0"/>
        <pt x="455" y="65" on="0"/>
        <pt x="347" y="8" on="0"/>
        <pt x="285" y="8" on="1"/>
        <pt x="236" y="8" on="0"/>
        <pt x="152" y="46" on="0"/>
        <pt x="91" y="117" on="0"/>
        <pt x="56" y="219" on="0"/>
      </contour>
      <contour>
        <pt x="102" y="293" on="1"/>
        <pt x="102" y="236" on="0"/>
        <pt x="131" y="146" on="0"/>
        <pt x="183" y="83" on="0"/>
        <pt x="252" y="50" on="0"/>
        <pt x="293" y="50" on="1"/>
        <pt x="344" y="50" on="0"/>
        <pt x="433" y="102" on="0"/>
        <pt x="498" y="195" on="0"/>
        <pt x="536" y="322" on="0"/>
        <pt x="536" y="396" on="1"/>
        <pt x="536" y="453" on="0"/>
        <pt x="507" y="543" on="0"/>
        <pt x="457" y="605" on="0"/>
        <pt x="388" y="638" on="0"/>
        <pt x="348" y="638" on="1"/>
        <pt x="298" y="638" on="0"/>
        <pt x="208" y="586" on="0"/>
        <pt x="141" y="494" on="0"/>
        <pt x="102" y="367" on="0"/>
      </contour>
      <contour>
        <pt x="359" y="538" on="1"/>
        <pt x="400" y="538" on="0"/>
        <pt x="436" y="482" on="0"/>
        <pt x="436" y="428" on="1"/>
        <pt x="436" y="423" on="0"/>
        <pt x="435" y="411" on="0"/>
        <pt x="435" y="405" on="1"/>
        <pt x="389" y="404" on="1"/>
        <pt x="389" y="413" on="1"/>
        <pt x="389" y="450" on="0"/>
        <pt x="373" y="490" on="0"/>
        <pt x="350" y="490" on="1"/>
        <pt x="326" y="490" on="0"/>
        <pt x="286" y="457" on="0"/>
        <pt x="257" y="403" on="0"/>
        <pt x="240" y="335" on="0"/>
        <pt x="240" y="300" on="1"/>
        <pt x="240" y="202" on="0"/>
        <pt x="317" y="202" on="1"/>
        <pt x="334" y="202" on="0"/>
        <pt x="374" y="212" on="0"/>
        <pt x="398" y="221" on="1"/>
        <pt x="391" y="173" on="1"/>
        <pt x="339" y="153" on="0"/>
        <pt x="301" y="153" on="1"/>
        <pt x="246" y="153" on="0"/>
        <pt x="189" y="224" on="0"/>
        <pt x="189" y="290" on="1"/>
        <pt x="189" y="338" on="0"/>
        <pt x="215" y="427" on="0"/>
        <pt x="261" y="496" on="0"/>
        <pt x="323" y="538" on="0"/>
      </contour>
    </TTGlyph>
    <TTGlyph name="d" xMin="68" yMin="-11" xMax="593" yMax="780">
      <contour>
        <pt x="220" y="55" on="1"/>
        <pt x="240" y="55" on="0"/>
        <pt x="287" y="71" on="0"/>
        <pt x="335" y="99" on="0"/>
        <pt x="382" y="137" on="0"/>
        <pt x="402" y="158" on="1"/>
        <pt x="463" y="472" on="1"/>
        <pt x="430" y="482" on="0"/>
        <pt x="371" y="492" on="0"/>
        <pt x="350" y="492" on="1"/>
        <pt x="305" y="492" on="0"/>
        <pt x="228" y="440" on="0"/>
        <pt x="170" y="355" on="0"/>
        <pt x="137" y="244" on="0"/>
        <pt x="137" y="185" on="1"/>
        <pt x="137" y="119" on="0"/>
        <pt x="185" y="55" on="0"/>
      </contour>
      <contour>
        <pt x="579" y="39" on="1"/>
        <pt x="535" y="13" on="0"/>
        <pt x="472" y="-10" on="0"/>
        <pt x="450" y="-10" on="1"/>
        <pt x="419" y="-10" on="0"/>
        <pt x="392" y="31" on="0"/>
        <pt x="392" y="67" on="1"/>
        <pt x="392" y="75" on="0"/>
        <pt x="392" y="92" on="0"/>
        <pt x="394" y="102" on="1"/>
        <pt x="370" y="78" on="0"/>
        <pt x="318" y="37" on="0"/>
        <pt x="264" y="7" on="0"/>
        <pt x="212" y="-11" on="0"/>
        <pt x="189" y="-11" on="1"/>
        <pt x="137" y="-11" on="0"/>
        <pt x="68" y="78" on="0"/>
        <pt x="68" y="169" on="1"/>
        <pt x="68" y="244" on="0"/>
        <pt x="115" y="382" on="0"/>
        <pt x="199" y="488" on="0"/>
        <pt x="316" y="551" on="0"/>
        <pt x="386" y="551" on="1"/>
        <pt x="427" y="551" on="0"/>
        <pt x="477" y="542" on="1"/>
        <pt x="522" y="774" on="1"/>
        <pt x="593" y="780" on="1"/>
        <pt x="467" y="141" on="1"/>
        <pt x="464" y="124" on="0"/>
        <pt x="460" y="98" on="0"/>
        <pt x="460" y="87" on="1"/>
        <pt x="460" y="52" on="0"/>
        <pt x="489" y="52" on="1"/>
        <pt x="512" y="52" on="0"/>
        <pt x="569" y="75" on="1"/>
      </contour>
    </TTGlyph>
    <TTGlyph name="dagger" xMin="146" yMin="117" xMax="579" yMax="772">
      <contour>
        <pt x="253" y="117" on="1"/>
        <pt x="243" y="125" on="1"/>
        <pt x="323" y="534" on="1"/>
        <pt x="146" y="552" on="1"/>
        <pt x="157" y="610" on="1"/>
        <pt x="334" y="591" on="1"/>
        <pt x="370" y="772" on="1"/>
        <pt x="438" y="765" on="1"/>
        <pt x="402" y="584" on="1"/>
        <pt x="579" y="565" on="1"/>
        <pt x="568" y="509" on="1"/>
        <pt x="390" y="527" on="1"/>
        <pt x="300" y="136" on="1"/>
      </contour>
    </TTGlyph>
    <TTGlyph name="daggerdbl" xMin="101" yMin="61" xMax="579" yMax="772">
      <contour>
        <pt x="241" y="61" on="1"/>
        <pt x="233" y="69" on="1"/>
        <pt x="280" y="313" on="1"/>
        <pt x="101" y="331" on="1"/>
        <pt x="112" y="388" on="1"/>
        <pt x="292" y="369" on="1"/>
        <pt x="324" y="534" on="1"/>
        <pt x="146" y="552" on="1"/>
        <pt x="157" y="610" on="1"/>
        <pt x="335" y="591" on="1"/>
        <pt x="370" y="772" on="1"/>
        <pt x="438" y="765" on="1"/>
        <pt x="402" y="584" on="1"/>
        <pt x="579" y="565" on="1"/>
        <pt x="568" y="509" on="1"/>
        <pt x="390" y="527" on="1"/>
        <pt x="353" y="363" on="1"/>
        <pt x="534" y="344" on="1"/>
        <pt x="523" y="288" on="1"/>
        <pt x="340" y="307" on="1"/>
        <pt x="289" y="80" on="1"/>
      </contour>
    </TTGlyph>
    <TTGlyph name="dcaron" xMin="68" yMin="-11" xMax="789" yMax="890">
      <component glyphName="caron.alt" x="384" y="0" flags="0x204"/>
      <component glyphName="d" x="0" y="0" flags="0x4"/>
    </TTGlyph>
    <TTGlyph name="dcroat" xMin="68" yMin="-11" xMax="656" yMax="780">
      <contour>
        <pt x="220" y="55" on="1"/>
        <pt x="240" y="55" on="0"/>
        <pt x="287" y="71" on="0"/>
        <pt x="335" y="99" on="0"/>
        <pt x="382" y="137" on="0"/>
        <pt x="402" y="158" on="1"/>
        <pt x="463" y="472" on="1"/>
        <pt x="430" y="482" on="0"/>
        <pt x="371" y="492" on="0"/>
        <pt x="350" y="492" on="1"/>
        <pt x="305" y="492" on="0"/>
        <pt x="228" y="440" on="0"/>
        <pt x="170" y="355" on="0"/>
        <pt x="137" y="244" on="0"/>
        <pt x="137" y="185" on="1"/>
        <pt x="137" y="119" on="0"/>
        <pt x="185" y="55" on="0"/>
      </contour>
      <contour>
        <pt x="579" y="39" on="1"/>
        <pt x="535" y="13" on="0"/>
        <pt x="472" y="-10" on="0"/>
        <pt x="450" y="-10" on="1"/>
        <pt x="419" y="-10" on="0"/>
        <pt x="392" y="31" on="0"/>
        <pt x="392" y="67" on="1"/>
        <pt x="392" y="75" on="0"/>
        <pt x="392" y="92" on="0"/>
        <pt x="394" y="102" on="1"/>
        <pt x="370" y="78" on="0"/>
        <pt x="318" y="37" on="0"/>
        <pt x="264" y="7" on="0"/>
        <pt x="212" y="-11" on="0"/>
        <pt x="189" y="-11" on="1"/>
        <pt x="137" y="-11" on="0"/>
        <pt x="68" y="78" on="0"/>
        <pt x="68" y="169" on="1"/>
        <pt x="68" y="244" on="0"/>
        <pt x="115" y="382" on="0"/>
        <pt x="199" y="488" on="0"/>
        <pt x="316" y="551" on="0"/>
        <pt x="386" y="551" on="1"/>
        <pt x="427" y="551" on="0"/>
        <pt x="477" y="542" on="1"/>
        <pt x="497" y="647" on="1"/>
        <pt x="342" y="647" on="1"/>
        <pt x="352" y="695" on="1"/>
        <pt x="507" y="695" on="1"/>
        <pt x="522" y="774" on="1"/>
        <pt x="593" y="780" on="1"/>
        <pt x="576" y="695" on="1"/>
        <pt x="656" y="695" on="1"/>
        <pt x="647" y="647" on="1"/>
        <pt x="567" y="647" on="1"/>
        <pt x="467" y="141" on="1"/>
        <pt x="464" y="124" on="0"/>
        <pt x="460" y="98" on="0"/>
        <pt x="460" y="87" on="1"/>
        <pt x="460" y="52" on="0"/>
        <pt x="489" y="52" on="1"/>
        <pt x="512" y="52" on="0"/>
        <pt x="569" y="75" on="1"/>
      </contour>
    </TTGlyph>
    <TTGlyph name="degree" xMin="178" yMin="356" xMax="554" yMax="745">
      <contour>
        <pt x="385" y="745" on="1"/>
        <pt x="422" y="745" on="0"/>
        <pt x="484" y="720" on="0"/>
        <pt x="529" y="674" on="0"/>
        <pt x="554" y="609" on="0"/>
        <pt x="554" y="569" on="1"/>
        <pt x="554" y="521" on="0"/>
        <pt x="519" y="442" on="0"/>
        <pt x="461" y="387" on="0"/>
        <pt x="385" y="356" on="0"/>
        <pt x="345" y="356" on="1"/>
        <pt x="309" y="356" on="0"/>
        <pt x="247" y="381" on="0"/>
        <pt x="203" y="427" on="0"/>
        <pt x="178" y="491" on="0"/>
        <pt x="178" y="531" on="1"/>
        <pt x="178" y="579" on="0"/>
        <pt x="213" y="658" on="0"/>
        <pt x="271" y="714" on="0"/>
        <pt x="345" y="745" on="0"/>
      </contour>
      <contour>
        <pt x="354" y="411" on="1"/>
        <pt x="383" y="411" on="0"/>
        <pt x="435" y="433" on="0"/>
        <pt x="474" y="473" on="0"/>
        <pt x="496" y="529" on="0"/>
        <pt x="496" y="564" on="1"/>
        <pt x="496" y="618" on="0"/>
        <pt x="433" y="691" on="0"/>
        <pt x="378" y="691" on="1"/>
        <pt x="349" y="691" on="0"/>
        <pt x="297" y="668" on="0"/>
        <pt x="258" y="628" on="0"/>
        <pt x="236" y="571" on="0"/>
        <pt x="236" y="537" on="1"/>
        <pt x="236" y="482" on="0"/>
        <pt x="299" y="411" on="0"/>
      </contour>
    </TTGlyph>
    <TTGlyph name="dieresis" xMin="151" yMin="630" xMax="502" yMax="780">
      <contour>
        <pt x="387" y="632" on="1"/>
        <pt x="422" y="778" on="1"/>
        <pt x="502" y="780" on="1"/>
        <pt x="458" y="634" on="1"/>
      </contour>
      <contour>
        <pt x="151" y="630" on="1"/>
        <pt x="187" y="775" on="1"/>
        <pt x="266" y="777" on="1"/>
        <pt x="223" y="631" on="1"/>
      </contour>
    </TTGlyph>
    <TTGlyph name="dieresis.cap" xMin="151" yMin="630" xMax="502" yMax="780">
      <contour>
        <pt x="387" y="632" on="1"/>
        <pt x="422" y="778" on="1"/>
        <pt x="502" y="780" on="1"/>
        <pt x="458" y="634" on="1"/>
      </contour>
      <contour>
        <pt x="151" y="630" on="1"/>
        <pt x="187" y="775" on="1"/>
        <pt x="266" y="777" on="1"/>
        <pt x="223" y="631" on="1"/>
      </contour>
    </TTGlyph>
    <TTGlyph name="divide" xMin="78" yMin="76" xMax="568" yMax="569">
      <contour>
        <pt x="308" y="476" on="1"/>
        <pt x="327" y="569" on="1"/>
        <pt x="412" y="569" on="1"/>
        <pt x="394" y="476" on="1"/>
      </contour>
      <contour>
        <pt x="555" y="292" on="1"/>
        <pt x="78" y="292" on="1"/>
        <pt x="90" y="352" on="1"/>
        <pt x="568" y="352" on="1"/>
      </contour>
      <contour>
        <pt x="233" y="76" on="1"/>
        <pt x="251" y="169" on="1"/>
        <pt x="336" y="169" on="1"/>
        <pt x="319" y="76" on="1"/>
      </contour>
    </TTGlyph>
    <TTGlyph name="dollar" xMin="50" yMin="-93" xMax="584" yMax="780">
      <contour>
        <pt x="228" y="531" on="1"/>
        <pt x="228" y="500" on="0"/>
        <pt x="284" y="433" on="0"/>
        <pt x="323" y="397" on="1"/>
        <pt x="384" y="601" on="1"/>
        <pt x="303" y="606" on="0"/>
        <pt x="228" y="561" on="0"/>
      </contour>
      <contour>
        <pt x="438" y="160" on="1"/>
        <pt x="438" y="191" on="0"/>
        <pt x="380" y="259" on="0"/>
        <pt x="339" y="296" on="1"/>
        <pt x="275" y="85" on="1"/>
        <pt x="316" y="83" on="0"/>
        <pt x="377" y="95" on="0"/>
        <pt x="418" y="116" on="0"/>
        <pt x="438" y="145" on="0"/>
      </contour>
      <contour>
        <pt x="167" y="-92" on="1"/>
        <pt x="203" y="28" on="1"/>
        <pt x="169" y="31" on="0"/>
        <pt x="93" y="42" on="0"/>
        <pt x="50" y="52" on="1"/>
        <pt x="66" y="119" on="1"/>
        <pt x="113" y="107" on="0"/>
        <pt x="192" y="92" on="0"/>
        <pt x="226" y="88" on="1"/>
        <pt x="300" y="330" on="1"/>
        <pt x="274" y="354" on="0"/>
        <pt x="223" y="402" on="0"/>
        <pt x="184" y="451" on="0"/>
        <pt x="160" y="501" on="0"/>
        <pt x="160" y="527" on="1"/>
        <pt x="160" y="553" on="0"/>
        <pt x="186" y="603" on="0"/>
        <pt x="242" y="641" on="0"/>
        <pt x="332" y="662" on="0"/>
        <pt x="396" y="659" on="1"/>
        <pt x="433" y="780" on="1"/>
        <pt x="498" y="780" on="1"/>
        <pt x="457" y="655" on="1"/>
        <pt x="513" y="648" on="0"/>
        <pt x="584" y="631" on="1"/>
        <pt x="571" y="566" on="1"/>
        <pt x="491" y="589" on="0"/>
        <pt x="432" y="596" on="1"/>
        <pt x="361" y="362" on="1"/>
        <pt x="388" y="338" on="0"/>
        <pt x="439" y="289" on="0"/>
        <pt x="480" y="238" on="0"/>
        <pt x="505" y="187" on="0"/>
        <pt x="505" y="161" on="1"/>
        <pt x="505" y="136" on="0"/>
        <pt x="478" y="87" on="0"/>
        <pt x="419" y="49" on="0"/>
        <pt x="327" y="25" on="0"/>
        <pt x="262" y="25" on="1"/>
        <pt x="230" y="-93" on="1"/>
      </contour>
    </TTGlyph>
    <TTGlyph name="dotaccent" xMin="259" yMin="631" xMax="375" yMax="778">
      <contour>
        <pt x="259" y="631" on="1"/>
        <pt x="294" y="776" on="1"/>
        <pt x="375" y="778" on="1"/>
        <pt x="331" y="632" on="1"/>
      </contour>
    </TTGlyph>
    <TTGlyph name="dotaccent.cap" xMin="259" yMin="631" xMax="375" yMax="778">
      <contour>
        <pt x="259" y="631" on="1"/>
        <pt x="294" y="776" on="1"/>
        <pt x="375" y="778" on="1"/>
        <pt x="331" y="632" on="1"/>
      </contour>
    </TTGlyph>
    <TTGlyph name="dotlessi" xMin="92" yMin="-11" xMax="527" yMax="540">
      <contour>
        <pt x="527" y="47" on="1"/>
        <pt x="381" y="-11" on="0"/>
        <pt x="303" y="-11" on="1"/>
        <pt x="251" y="-11" on="0"/>
        <pt x="202" y="35" on="0"/>
        <pt x="202" y="78" on="1"/>
        <pt x="202" y="104" on="0"/>
        <pt x="211" y="139" on="1"/>
        <pt x="299" y="475" on="1"/>
        <pt x="96" y="443" on="1"/>
        <pt x="92" y="482" on="1"/>
        <pt x="320" y="540" on="1"/>
        <pt x="383" y="538" on="1"/>
        <pt x="281" y="149" on="1"/>
        <pt x="274" y="124" on="0"/>
        <pt x="274" y="102" on="1"/>
        <pt x="274" y="77" on="0"/>
        <pt x="302" y="52" on="0"/>
        <pt x="337" y="52" on="1"/>
        <pt x="366" y="52" on="0"/>
        <pt x="454" y="70" on="0"/>
        <pt x="517" y="87" on="1"/>
        <pt x="527" y="47" on="1"/>
      </contour>
    </TTGlyph>
    <TTGlyph name="e" xMin="82" yMin="-11" xMax="553" yMax="552">
      <contour>
        <pt x="523" y="60" on="1"/>
        <pt x="450" y="22" on="0"/>
        <pt x="328" y="-11" on="0"/>
        <pt x="278" y="-11" on="1"/>
        <pt x="182" y="-11" on="0"/>
        <pt x="82" y="101" on="0"/>
        <pt x="82" y="191" on="1"/>
        <pt x="82" y="255" on="0"/>
        <pt x="130" y="383" on="0"/>
        <pt x="216" y="487" on="0"/>
        <pt x="334" y="552" on="0"/>
        <pt x="403" y="552" on="1"/>
        <pt x="473" y="552" on="0"/>
        <pt x="553" y="484" on="0"/>
        <pt x="553" y="426" on="1"/>
        <pt x="553" y="332" on="0"/>
        <pt x="344" y="219" on="0"/>
        <pt x="150" y="205" on="1"/>
        <pt x="150" y="51" on="0"/>
        <pt x="299" y="51" on="1"/>
        <pt x="341" y="51" on="0"/>
        <pt x="446" y="74" on="0"/>
        <pt x="512" y="99" on="1"/>
      </contour>
      <contour>
        <pt x="387" y="492" on="1"/>
        <pt x="339" y="492" on="0"/>
        <pt x="259" y="450" on="0"/>
        <pt x="199" y="381" on="0"/>
        <pt x="161" y="293" on="0"/>
        <pt x="154" y="248" on="1"/>
        <pt x="229" y="254" on="0"/>
        <pt x="351" y="280" on="0"/>
        <pt x="438" y="321" on="0"/>
        <pt x="485" y="378" on="0"/>
        <pt x="485" y="414" on="1"/>
        <pt x="485" y="449" on="0"/>
        <pt x="433" y="492" on="0"/>
      </contour>
    </TTGlyph>
    <TTGlyph name="eacute" xMin="82" yMin="-11" xMax="559" yMax="851">
      <component glyphName="acute" x="80" y="13" flags="0x204"/>
      <component glyphName="e" x="0" y="0" flags="0x4"/>
    </TTGlyph>
    <TTGlyph name="ebreve" xMin="82" yMin="-11" xMax="631" yMax="829">
      <component glyphName="e" x="0" y="0" flags="0x204"/>
      <component glyphName="breve" x="106" y="13" flags="0x4"/>
    </TTGlyph>
    <TTGlyph name="ecaron" xMin="82" yMin="-11" xMax="618" yMax="835">
      <component glyphName="caron" x="93" y="13" flags="0x204"/>
      <component glyphName="e" x="0" y="0" flags="0x4"/>
    </TTGlyph>
    <TTGlyph name="ecircumflex" xMin="82" yMin="-11" xMax="594" yMax="838">
      <component glyphName="circumflex" x="97" y="13" flags="0x204"/>
      <component glyphName="e" x="0" y="0" flags="0x4"/>
    </TTGlyph>
    <TTGlyph name="edieresis" xMin="82" yMin="-11" xMax="590" yMax="793">
      <component glyphName="dieresis" x="88" y="13" flags="0x204"/>
      <component glyphName="e" x="0" y="0" flags="0x4"/>
    </TTGlyph>
    <TTGlyph name="edotaccent" xMin="82" yMin="-11" xMax="553" yMax="791">
      <component glyphName="e" x="0" y="0" flags="0x204"/>
      <component glyphName="dotaccent" x="98" y="13" flags="0x4"/>
    </TTGlyph>
    <TTGlyph name="egrave" xMin="82" yMin="-11" xMax="553" yMax="858">
      <component glyphName="e" x="0" y="0" flags="0x204"/>
      <component glyphName="grave" x="96" y="13" flags="0x4"/>
    </TTGlyph>
    <TTGlyph name="eight" xMin="69" yMin="-13" xMax="593" yMax="698">
      <contour>
        <pt x="501" y="161" on="1"/>
        <pt x="501" y="126" on="0"/>
        <pt x="465" y="63" on="0"/>
        <pt x="402" y="15" on="0"/>
        <pt x="316" y="-13" on="0"/>
        <pt x="265" y="-13" on="1"/>
        <pt x="221" y="-13" on="0"/>
        <pt x="149" y="8" on="0"/>
        <pt x="98" y="47" on="0"/>
        <pt x="69" y="101" on="0"/>
        <pt x="69" y="134" on="1"/>
        <pt x="69" y="158" on="0"/>
        <pt x="85" y="207" on="0"/>
        <pt x="129" y="262" on="0"/>
        <pt x="206" y="327" on="0"/>
        <pt x="268" y="368" on="1"/>
        <pt x="226" y="408" on="0"/>
        <pt x="166" y="491" on="0"/>
        <pt x="166" y="536" on="1"/>
        <pt x="166" y="567" on="0"/>
        <pt x="199" y="626" on="0"/>
        <pt x="262" y="671" on="0"/>
        <pt x="356" y="698" on="0"/>
        <pt x="417" y="698" on="1"/>
        <pt x="442" y="698" on="0"/>
        <pt x="494" y="693" on="0"/>
        <pt x="523" y="688" on="1"/>
        <pt x="504" y="619" on="1"/>
        <pt x="465" y="628" on="0"/>
        <pt x="400" y="636" on="0"/>
        <pt x="373" y="636" on="1"/>
        <pt x="335" y="636" on="0"/>
        <pt x="282" y="621" on="0"/>
        <pt x="249" y="597" on="0"/>
        <pt x="234" y="565" on="0"/>
        <pt x="234" y="548" on="1"/>
        <pt x="234" y="513" on="0"/>
        <pt x="289" y="443" on="0"/>
        <pt x="327" y="405" on="1"/>
        <pt x="375" y="435" on="0"/>
        <pt x="495" y="503" on="0"/>
        <pt x="569" y="543" on="1"/>
        <pt x="593" y="499" on="1"/>
        <pt x="522" y="461" on="0"/>
        <pt x="409" y="397" on="0"/>
        <pt x="364" y="369" on="1"/>
        <pt x="389" y="345" on="0"/>
        <pt x="439" y="294" on="0"/>
        <pt x="477" y="242" on="0"/>
        <pt x="501" y="189" on="0"/>
      </contour>
      <contour>
        <pt x="282" y="46" on="1"/>
        <pt x="315" y="46" on="0"/>
        <pt x="372" y="63" on="0"/>
        <pt x="412" y="93" on="0"/>
        <pt x="435" y="132" on="0"/>
        <pt x="435" y="155" on="1"/>
        <pt x="435" y="177" on="0"/>
        <pt x="413" y="221" on="0"/>
        <pt x="377" y="265" on="0"/>
        <pt x="330" y="309" on="0"/>
        <pt x="305" y="332" on="1"/>
        <pt x="251" y="297" on="0"/>
        <pt x="185" y="243" on="0"/>
        <pt x="150" y="200" on="0"/>
        <pt x="138" y="165" on="0"/>
        <pt x="138" y="149" on="1"/>
        <pt x="138" y="125" on="0"/>
        <pt x="160" y="86" on="0"/>
        <pt x="199" y="60" on="0"/>
        <pt x="252" y="46" on="0"/>
      </contour>
    </TTGlyph>
    <TTGlyph name="eight.den" xMin="76" yMin="-244" xMax="445" yMax="214">
      <component glyphName="eight.num" x="-126" y="-705" flags="0x204"/>
    </TTGlyph>
    <TTGlyph name="eight.inf" xMin="90" yMin="-178" xMax="459" yMax="280">
      <component glyphName="eight.num" x="-112" y="-639" flags="0x204"/>
    </TTGlyph>
    <TTGlyph name="eight.num" xMin="202" yMin="461" xMax="571" yMax="919">
      <contour>
        <pt x="513" y="577" on="1"/>
        <pt x="513" y="553" on="0"/>
        <pt x="488" y="511" on="0"/>
        <pt x="443" y="479" on="0"/>
        <pt x="382" y="461" on="0"/>
        <pt x="345" y="461" on="1"/>
        <pt x="281" y="461" on="0"/>
        <pt x="202" y="515" on="0"/>
        <pt x="202" y="559" on="1"/>
        <pt x="202" y="575" on="0"/>
        <pt x="213" y="606" on="0"/>
        <pt x="243" y="641" on="0"/>
        <pt x="296" y="681" on="0"/>
        <pt x="338" y="706" on="1"/>
        <pt x="309" y="732" on="0"/>
        <pt x="266" y="784" on="0"/>
        <pt x="266" y="813" on="1"/>
        <pt x="266" y="834" on="0"/>
        <pt x="288" y="872" on="0"/>
        <pt x="333" y="901" on="0"/>
        <pt x="400" y="919" on="0"/>
        <pt x="444" y="919" on="1"/>
        <pt x="462" y="919" on="0"/>
        <pt x="502" y="916" on="0"/>
        <pt x="524" y="912" on="1"/>
        <pt x="505" y="856" on="1"/>
        <pt x="447" y="869" on="0"/>
        <pt x="408" y="869" on="1"/>
        <pt x="360" y="869" on="0"/>
        <pt x="321" y="838" on="0"/>
        <pt x="321" y="818" on="1"/>
        <pt x="321" y="798" on="0"/>
        <pt x="359" y="756" on="0"/>
        <pt x="385" y="733" on="1"/>
        <pt x="419" y="751" on="0"/>
        <pt x="501" y="793" on="0"/>
        <pt x="552" y="817" on="1"/>
        <pt x="571" y="783" on="1"/>
        <pt x="523" y="760" on="0"/>
        <pt x="448" y="723" on="0"/>
        <pt x="418" y="706" on="1"/>
        <pt x="436" y="691" on="0"/>
        <pt x="470" y="661" on="0"/>
        <pt x="497" y="628" on="0"/>
        <pt x="513" y="595" on="0"/>
      </contour>
      <contour>
        <pt x="356" y="508" on="1"/>
        <pt x="402" y="508" on="0"/>
        <pt x="458" y="546" on="0"/>
        <pt x="458" y="573" on="1"/>
        <pt x="458" y="599" on="0"/>
        <pt x="404" y="651" on="0"/>
        <pt x="369" y="680" on="1"/>
        <pt x="334" y="659" on="0"/>
        <pt x="291" y="628" on="0"/>
        <pt x="267" y="603" on="0"/>
        <pt x="259" y="582" on="0"/>
        <pt x="259" y="573" on="1"/>
        <pt x="259" y="542" on="0"/>
        <pt x="314" y="508" on="0"/>
      </contour>
    </TTGlyph>
    <TTGlyph name="eight.sup" xMin="182" yMin="359" xMax="551" yMax="817">
      <component glyphName="eight.num" x="-20" y="-102" flags="0x204"/>
    </TTGlyph>
    <TTGlyph name="ellipsis" xMin="41" yMin="0" xMax="568" yMax="117">
      <contour>
        <pt x="41" y="0" on="1"/>
        <pt x="66" y="117" on="1"/>
        <pt x="162" y="117" on="1"/>
        <pt x="137" y="0" on="1"/>
      </contour>
      <contour>
        <pt x="447" y="0" on="1"/>
        <pt x="472" y="117" on="1"/>
        <pt x="568" y="117" on="1"/>
        <pt x="543" y="0" on="1"/>
      </contour>
      <contour>
        <pt x="244" y="0" on="1"/>
        <pt x="269" y="117" on="1"/>
        <pt x="365" y="117" on="1"/>
        <pt x="340" y="0" on="1"/>
      </contour>
    </TTGlyph>
    <TTGlyph name="emacron" xMin="82" yMin="-11" xMax="600" yMax="750">
      <component glyphName="e" x="0" y="0" flags="0x204"/>
      <component glyphName="macron" x="103" y="13" flags="0x4"/>
    </TTGlyph>
    <TTGlyph name="emdash" xMin="85" yMin="294" xMax="586" yMax="350">
      <contour>
        <pt x="575" y="294" on="1"/>
        <pt x="85" y="294" on="1"/>
        <pt x="95" y="350" on="1"/>
        <pt x="586" y="350" on="1"/>
      </contour>
    </TTGlyph>
    <TTGlyph name="endash" xMin="94" yMin="294" xMax="549" yMax="350">
      <contour>
        <pt x="538" y="294" on="1"/>
        <pt x="94" y="294" on="1"/>
        <pt x="105" y="350" on="1"/>
        <pt x="549" y="350" on="1"/>
      </contour>
    </TTGlyph>
    <TTGlyph name="eogonek" xMin="82" yMin="-230" xMax="553" yMax="552">
      <contour>
        <pt x="442" y="-185" on="1"/>
        <pt x="395" y="-209" on="0"/>
        <pt x="320" y="-230" on="0"/>
        <pt x="291" y="-230" on="1"/>
        <pt x="246" y="-230" on="0"/>
        <pt x="200" y="-189" on="0"/>
        <pt x="200" y="-159" on="1"/>
        <pt x="200" y="-123" on="0"/>
        <pt x="257" y="-47" on="0"/>
        <pt x="320" y="-8" on="1"/>
        <pt x="296" y="-11" on="0"/>
        <pt x="275" y="-11" on="1"/>
        <pt x="228" y="-11" on="0"/>
        <pt x="156" y="18" on="0"/>
        <pt x="107" y="72" on="0"/>
        <pt x="82" y="146" on="0"/>
        <pt x="82" y="191" on="1"/>
        <pt x="82" y="255" on="0"/>
        <pt x="130" y="383" on="0"/>
        <pt x="216" y="487" on="0"/>
        <pt x="334" y="552" on="0"/>
        <pt x="403" y="552" on="1"/>
        <pt x="473" y="552" on="0"/>
        <pt x="553" y="484" on="0"/>
        <pt x="553" y="426" on="1"/>
        <pt x="553" y="332" on="0"/>
        <pt x="344" y="219" on="0"/>
        <pt x="150" y="205" on="1"/>
        <pt x="150" y="51" on="0"/>
        <pt x="299" y="51" on="1"/>
        <pt x="341" y="51" on="0"/>
        <pt x="446" y="74" on="0"/>
        <pt x="512" y="99" on="1"/>
        <pt x="523" y="60" on="1"/>
        <pt x="395" y="5" on="0"/>
        <pt x="267" y="-98" on="0"/>
        <pt x="267" y="-140" on="1"/>
        <pt x="267" y="-157" on="0"/>
        <pt x="292" y="-178" on="0"/>
        <pt x="321" y="-178" on="1"/>
        <pt x="341" y="-178" on="0"/>
        <pt x="395" y="-165" on="0"/>
        <pt x="432" y="-151" on="1"/>
      </contour>
      <contour>
        <pt x="387" y="492" on="1"/>
        <pt x="339" y="492" on="0"/>
        <pt x="259" y="450" on="0"/>
        <pt x="199" y="381" on="0"/>
        <pt x="161" y="293" on="0"/>
        <pt x="154" y="248" on="1"/>
        <pt x="229" y="254" on="0"/>
        <pt x="351" y="280" on="0"/>
        <pt x="438" y="321" on="0"/>
        <pt x="485" y="378" on="0"/>
        <pt x="485" y="414" on="1"/>
        <pt x="485" y="449" on="0"/>
        <pt x="433" y="492" on="0"/>
      </contour>
    </TTGlyph>
    <TTGlyph name="equal" xMin="76" yMin="172" xMax="572" yMax="479">
      <contour>
        <pt x="560" y="420" on="1"/>
        <pt x="124" y="420" on="1"/>
        <pt x="135" y="479" on="1"/>
        <pt x="572" y="479" on="1"/>
      </contour>
      <contour>
        <pt x="512" y="172" on="1"/>
        <pt x="76" y="172" on="1"/>
        <pt x="88" y="232" on="1"/>
        <pt x="524" y="232" on="1"/>
      </contour>
    </TTGlyph>
    <TTGlyph name="eth" xMin="72" yMin="-12" xMax="567" yMax="789">
      <contour>
        <pt x="278" y="-12" on="1"/>
        <pt x="231" y="-12" on="0"/>
        <pt x="155" y="19" on="0"/>
        <pt x="101" y="76" on="0"/>
        <pt x="72" y="155" on="0"/>
        <pt x="72" y="203" on="1"/>
        <pt x="72" y="264" on="0"/>
        <pt x="114" y="375" on="0"/>
        <pt x="190" y="459" on="0"/>
        <pt x="295" y="508" on="0"/>
        <pt x="357" y="508" on="1"/>
        <pt x="381" y="508" on="0"/>
        <pt x="433" y="501" on="0"/>
        <pt x="461" y="493" on="1"/>
        <pt x="437" y="558" on="0"/>
        <pt x="387" y="618" on="1"/>
        <pt x="217" y="571" on="1"/>
        <pt x="203" y="616" on="1"/>
        <pt x="352" y="658" on="1"/>
        <pt x="331" y="681" on="0"/>
        <pt x="281" y="724" on="0"/>
        <pt x="252" y="747" on="1"/>
        <pt x="305" y="789" on="1"/>
        <pt x="376" y="734" on="0"/>
        <pt x="424" y="678" on="1"/>
        <pt x="556" y="715" on="1"/>
        <pt x="567" y="668" on="1"/>
        <pt x="457" y="638" on="1"/>
        <pt x="559" y="502" on="0"/>
        <pt x="559" y="343" on="1"/>
        <pt x="559" y="261" on="0"/>
        <pt x="517" y="129" on="0"/>
        <pt x="443" y="37" on="0"/>
        <pt x="339" y="-12" on="0"/>
      </contour>
      <contour>
        <pt x="293" y="46" on="1"/>
        <pt x="338" y="46" on="0"/>
        <pt x="411" y="89" on="0"/>
        <pt x="462" y="165" on="0"/>
        <pt x="490" y="269" on="0"/>
        <pt x="490" y="331" on="1"/>
        <pt x="490" y="354" on="0"/>
        <pt x="487" y="396" on="0"/>
        <pt x="483" y="417" on="1"/>
        <pt x="441" y="435" on="0"/>
        <pt x="363" y="450" on="0"/>
        <pt x="337" y="450" on="1"/>
        <pt x="295" y="450" on="0"/>
        <pt x="224" y="412" on="0"/>
        <pt x="172" y="348" on="0"/>
        <pt x="143" y="264" on="0"/>
        <pt x="143" y="219" on="1"/>
        <pt x="143" y="180" on="0"/>
        <pt x="165" y="117" on="0"/>
        <pt x="204" y="71" on="0"/>
        <pt x="259" y="46" on="0"/>
      </contour>
    </TTGlyph>
    <TTGlyph name="exclam" xMin="197" yMin="0" xMax="451" yMax="750">
      <contour>
        <pt x="281" y="253" on="1"/>
        <pt x="290" y="299" on="0"/>
        <pt x="310" y="429" on="0"/>
        <pt x="331" y="569" on="0"/>
        <pt x="351" y="702" on="0"/>
        <pt x="359" y="750" on="1"/>
        <pt x="451" y="750" on="1"/>
        <pt x="439" y="702" on="0"/>
        <pt x="405" y="569" on="0"/>
        <pt x="370" y="429" on="0"/>
        <pt x="337" y="299" on="0"/>
        <pt x="327" y="253" on="1"/>
      </contour>
      <contour>
        <pt x="197" y="0" on="1"/>
        <pt x="220" y="110" on="1"/>
        <pt x="323" y="110" on="1"/>
        <pt x="301" y="0" on="1"/>
      </contour>
    </TTGlyph>
    <TTGlyph name="exclamdown" xMin="191" yMin="-62" xMax="445" yMax="688">
      <contour>
        <pt x="445" y="688" on="1"/>
        <pt x="422" y="578" on="1"/>
        <pt x="318" y="578" on="1"/>
        <pt x="341" y="688" on="1"/>
      </contour>
      <contour>
        <pt x="362" y="436" on="1"/>
        <pt x="353" y="390" on="0"/>
        <pt x="332" y="259" on="0"/>
        <pt x="311" y="119" on="0"/>
        <pt x="292" y="-14" on="0"/>
        <pt x="283" y="-62" on="1"/>
        <pt x="191" y="-62" on="1"/>
        <pt x="203" y="-14" on="0"/>
        <pt x="236" y="119" on="0"/>
        <pt x="272" y="259" on="0"/>
        <pt x="304" y="390" on="0"/>
        <pt x="315" y="436" on="1"/>
      </contour>
    </TTGlyph>
    <TTGlyph name="f" xMin="93" yMin="-198" xMax="631" yMax="782">
      <contour>
        <pt x="450" y="-5" on="1"/>
        <pt x="450" y="-48" on="0"/>
        <pt x="418" y="-119" on="0"/>
        <pt x="365" y="-170" on="0"/>
        <pt x="296" y="-198" on="0"/>
        <pt x="259" y="-198" on="1"/>
        <pt x="225" y="-198" on="0"/>
        <pt x="165" y="-169" on="0"/>
        <pt x="120" y="-108" on="0"/>
        <pt x="94" y="-14" on="0"/>
        <pt x="94" y="51" on="1"/>
        <pt x="94" y="110" on="0"/>
        <pt x="113" y="231" on="0"/>
        <pt x="131" y="292" on="1"/>
        <pt x="93" y="310" on="1"/>
        <pt x="102" y="351" on="1"/>
        <pt x="150" y="351" on="1"/>
        <pt x="180" y="438" on="0"/>
        <pt x="267" y="594" on="0"/>
        <pt x="369" y="712" on="0"/>
        <pt x="480" y="782" on="0"/>
        <pt x="535" y="782" on="1"/>
        <pt x="580" y="782" on="0"/>
        <pt x="631" y="735" on="0"/>
        <pt x="631" y="695" on="1"/>
        <pt x="631" y="657" on="0"/>
        <pt x="582" y="561" on="0"/>
        <pt x="528" y="507" on="1"/>
        <pt x="499" y="525" on="1"/>
        <pt x="535" y="566" on="0"/>
        <pt x="568" y="633" on="0"/>
        <pt x="568" y="658" on="1"/>
        <pt x="568" y="683" on="0"/>
        <pt x="538" y="710" on="0"/>
        <pt x="511" y="710" on="1"/>
        <pt x="472" y="710" on="0"/>
        <pt x="389" y="653" on="0"/>
        <pt x="311" y="555" on="0"/>
        <pt x="241" y="424" on="0"/>
        <pt x="216" y="351" on="1"/>
        <pt x="552" y="350" on="1"/>
        <pt x="542" y="292" on="1"/>
        <pt x="239" y="296" on="1"/>
        <pt x="350" y="215" on="0"/>
        <pt x="450" y="61" on="0"/>
      </contour>
      <contour>
        <pt x="284" y="-140" on="1"/>
        <pt x="330" y="-140" on="0"/>
        <pt x="397" y="-76" on="0"/>
        <pt x="397" y="-19" on="1"/>
        <pt x="397" y="45" on="0"/>
        <pt x="301" y="192" on="0"/>
        <pt x="191" y="270" on="1"/>
        <pt x="177" y="216" on="0"/>
        <pt x="161" y="107" on="0"/>
        <pt x="161" y="55" on="1"/>
        <pt x="161" y="1" on="0"/>
        <pt x="181" y="-73" on="0"/>
        <pt x="215" y="-120" on="0"/>
        <pt x="260" y="-140" on="0"/>
      </contour>
    </TTGlyph>
    <TTGlyph name="f.lig" xMin="93" yMin="-167" xMax="631" yMax="782">
      <contour>
        <pt x="450" y="10" on="1"/>
        <pt x="450" y="-29" on="0"/>
        <pt x="418" y="-95" on="0"/>
        <pt x="365" y="-141" on="0"/>
        <pt x="296" y="-167" on="0"/>
        <pt x="259" y="-167" on="1"/>
        <pt x="225" y="-167" on="0"/>
        <pt x="166" y="-140" on="0"/>
        <pt x="121" y="-83" on="0"/>
        <pt x="95" y="8" on="0"/>
        <pt x="95" y="71" on="1"/>
        <pt x="95" y="124" on="0"/>
        <pt x="112" y="235" on="0"/>
        <pt x="129" y="292" on="1"/>
        <pt x="93" y="310" on="1"/>
        <pt x="102" y="351" on="1"/>
        <pt x="148" y="351" on="1"/>
        <pt x="178" y="436" on="0"/>
        <pt x="265" y="592" on="0"/>
        <pt x="368" y="711" on="0"/>
        <pt x="480" y="782" on="0"/>
        <pt x="535" y="782" on="1"/>
        <pt x="580" y="782" on="0"/>
        <pt x="631" y="735" on="0"/>
        <pt x="631" y="695" on="1"/>
        <pt x="631" y="657" on="0"/>
        <pt x="582" y="561" on="0"/>
        <pt x="528" y="507" on="1"/>
        <pt x="499" y="525" on="1"/>
        <pt x="535" y="566" on="0"/>
        <pt x="568" y="633" on="0"/>
        <pt x="568" y="658" on="1"/>
        <pt x="568" y="683" on="0"/>
        <pt x="538" y="710" on="0"/>
        <pt x="511" y="710" on="1"/>
        <pt x="471" y="710" on="0"/>
        <pt x="387" y="652" on="0"/>
        <pt x="309" y="553" on="0"/>
        <pt x="240" y="423" on="0"/>
        <pt x="215" y="351" on="1"/>
        <pt x="552" y="350" on="1"/>
        <pt x="542" y="292" on="1"/>
        <pt x="240" y="296" on="1"/>
        <pt x="350" y="219" on="0"/>
        <pt x="450" y="73" on="0"/>
      </contour>
      <contour>
        <pt x="284" y="-109" on="1"/>
        <pt x="307" y="-109" on="0"/>
        <pt x="348" y="-94" on="0"/>
        <pt x="380" y="-66" on="0"/>
        <pt x="398" y="-25" on="0"/>
        <pt x="398" y="1" on="1"/>
        <pt x="398" y="60" on="0"/>
        <pt x="301" y="196" on="0"/>
        <pt x="191" y="271" on="1"/>
        <pt x="178" y="221" on="0"/>
        <pt x="164" y="124" on="0"/>
        <pt x="164" y="77" on="1"/>
        <pt x="164" y="24" on="0"/>
        <pt x="183" y="-47" on="0"/>
        <pt x="216" y="-91" on="0"/>
        <pt x="260" y="-109" on="0"/>
      </contour>
    </TTGlyph>
    <TTGlyph name="five" xMin="67" yMin="-4" xMax="592" yMax="688">
      <contour>
        <pt x="525" y="214" on="1"/>
        <pt x="525" y="175" on="0"/>
        <pt x="486" y="97" on="0"/>
        <pt x="399" y="35" on="0"/>
        <pt x="260" y="-4" on="0"/>
        <pt x="160" y="-4" on="1"/>
        <pt x="138" y="-4" on="0"/>
        <pt x="92" y="-2" on="0"/>
        <pt x="67" y="0" on="1"/>
        <pt x="76" y="68" on="1"/>
        <pt x="137" y="62" on="0"/>
        <pt x="187" y="62" on="1"/>
        <pt x="264" y="62" on="0"/>
        <pt x="368" y="86" on="0"/>
        <pt x="431" y="126" on="0"/>
        <pt x="458" y="175" on="0"/>
        <pt x="458" y="201" on="1"/>
        <pt x="458" y="227" on="0"/>
        <pt x="428" y="277" on="0"/>
        <pt x="358" y="321" on="0"/>
        <pt x="242" y="359" on="0"/>
        <pt x="156" y="374" on="1"/>
        <pt x="232" y="688" on="1"/>
        <pt x="592" y="688" on="1"/>
        <pt x="574" y="626" on="1"/>
        <pt x="282" y="626" on="1"/>
        <pt x="232" y="420" on="1"/>
        <pt x="316" y="403" on="0"/>
        <pt x="428" y="358" on="0"/>
        <pt x="496" y="305" on="0"/>
        <pt x="525" y="245" on="0"/>
      </contour>
    </TTGlyph>
    <TTGlyph name="five.den" xMin="72" yMin="-236" xMax="440" yMax="205">
      <component glyphName="five.num" x="-126" y="-705" flags="0x204"/>
    </TTGlyph>
    <TTGlyph name="five.inf" xMin="86" yMin="-170" xMax="454" yMax="271">
      <component glyphName="five.num" x="-112" y="-639" flags="0x204"/>
    </TTGlyph>
    <TTGlyph name="five.num" xMin="198" yMin="469" xMax="566" yMax="910">
      <contour>
        <pt x="524" y="609" on="1"/>
        <pt x="524" y="583" on="0"/>
        <pt x="497" y="533" on="0"/>
        <pt x="435" y="494" on="0"/>
        <pt x="337" y="469" on="0"/>
        <pt x="267" y="469" on="1"/>
        <pt x="234" y="469" on="0"/>
        <pt x="198" y="472" on="1"/>
        <pt x="205" y="526" on="1"/>
        <pt x="228" y="524" on="0"/>
        <pt x="268" y="522" on="0"/>
        <pt x="286" y="522" on="1"/>
        <pt x="338" y="522" on="0"/>
        <pt x="407" y="536" on="0"/>
        <pt x="449" y="559" on="0"/>
        <pt x="467" y="587" on="0"/>
        <pt x="467" y="602" on="1"/>
        <pt x="467" y="617" on="0"/>
        <pt x="446" y="646" on="0"/>
        <pt x="396" y="672" on="0"/>
        <pt x="315" y="695" on="0"/>
        <pt x="254" y="704" on="1"/>
        <pt x="305" y="910" on="1"/>
        <pt x="566" y="910" on="1"/>
        <pt x="551" y="860" on="1"/>
        <pt x="346" y="860" on="1"/>
        <pt x="317" y="741" on="1"/>
        <pt x="376" y="731" on="0"/>
        <pt x="455" y="702" on="0"/>
        <pt x="503" y="668" on="0"/>
        <pt x="524" y="629" on="0"/>
      </contour>
    </TTGlyph>
    <TTGlyph name="five.sup" xMin="178" yMin="367" xMax="546" yMax="808">
      <component glyphName="five.num" x="-20" y="-102" flags="0x204"/>
    </TTGlyph>
    <TTGlyph name="fiveeighths" xMin="76" yMin="-244" xMax="567" yMax="910">
      <component glyphName="eight.num" x="-126" y="-705" flags="0x204"/>
      <component glyphName="fraction.afrc" x="0" y="0" flags="0x4"/>
      <component glyphName="five.num" x="0" y="0" flags="0x4"/>
    </TTGlyph>
    <TTGlyph name="fivesixths" xMin="77" yMin="-243" xMax="567" yMax="910">
      <component glyphName="six.num" x="-126" y="-705" flags="0x204"/>
      <component glyphName="fraction.afrc" x="0" y="0" flags="0x4"/>
      <component glyphName="five.num" x="0" y="0" flags="0x4"/>
    </TTGlyph>
    <TTGlyph name="four" xMin="69" yMin="0" xMax="561" yMax="695">
      <contour>
        <pt x="463" y="151" on="1"/>
        <pt x="433" y="0" on="1"/>
        <pt x="368" y="0" on="1"/>
        <pt x="397" y="151" on="1"/>
        <pt x="69" y="151" on="1"/>
        <pt x="72" y="198" on="1"/>
        <pt x="106" y="256" on="0"/>
        <pt x="165" y="366" on="0"/>
        <pt x="218" y="483" on="0"/>
        <pt x="266" y="615" on="0"/>
        <pt x="290" y="695" on="1"/>
        <pt x="365" y="691" on="1"/>
        <pt x="339" y="609" on="0"/>
        <pt x="287" y="478" on="0"/>
        <pt x="233" y="365" on="0"/>
        <pt x="174" y="265" on="0"/>
        <pt x="141" y="214" on="1"/>
        <pt x="410" y="214" on="1"/>
        <pt x="457" y="458" on="1"/>
        <pt x="524" y="464" on="1"/>
        <pt x="475" y="214" on="1"/>
        <pt x="561" y="214" on="1"/>
        <pt x="542" y="151" on="1"/>
      </contour>
    </TTGlyph>
    <TTGlyph name="four.den" xMin="74" yMin="-233" xMax="427" yMax="210">
      <component glyphName="four.num" x="-126" y="-705" flags="0x204"/>
    </TTGlyph>
    <TTGlyph name="four.inf" xMin="88" yMin="-167" xMax="441" yMax="276">
      <component glyphName="four.num" x="-112" y="-639" flags="0x204"/>
    </TTGlyph>
    <TTGlyph name="four.num" xMin="200" yMin="472" xMax="553" yMax="915">
      <contour>
        <pt x="482" y="566" on="1"/>
        <pt x="464" y="472" on="1"/>
        <pt x="410" y="472" on="1"/>
        <pt x="428" y="566" on="1"/>
        <pt x="200" y="566" on="1"/>
        <pt x="204" y="605" on="1"/>
        <pt x="226" y="642" on="0"/>
        <pt x="265" y="711" on="0"/>
        <pt x="299" y="784" on="0"/>
        <pt x="330" y="865" on="0"/>
        <pt x="346" y="915" on="1"/>
        <pt x="408" y="912" on="1"/>
        <pt x="391" y="861" on="0"/>
        <pt x="358" y="779" on="0"/>
        <pt x="322" y="708" on="0"/>
        <pt x="284" y="646" on="0"/>
        <pt x="262" y="615" on="1"/>
        <pt x="438" y="615" on="1"/>
        <pt x="467" y="764" on="1"/>
        <pt x="522" y="769" on="1"/>
        <pt x="492" y="615" on="1"/>
        <pt x="553" y="615" on="1"/>
        <pt x="538" y="566" on="1"/>
      </contour>
    </TTGlyph>
    <TTGlyph name="four.sup" xMin="180" yMin="370" xMax="533" yMax="813">
      <component glyphName="four.num" x="-20" y="-102" flags="0x204"/>
    </TTGlyph>
    <TTGlyph name="fourfifths" xMin="72" yMin="-236" xMax="567" yMax="915">
      <component glyphName="four.num" x="0" y="0" flags="0x204"/>
      <component glyphName="five.num" x="-126" y="-705" flags="0x4"/>
      <component glyphName="fraction.afrc" x="0" y="0" flags="0x4"/>
    </TTGlyph>
    <TTGlyph name="fraction" xMin="-34" yMin="-178" xMax="665" yMax="835">
      <contour>
        <pt x="-34" y="-147" on="1"/>
        <pt x="611" y="835" on="1"/>
        <pt x="665" y="804" on="1"/>
        <pt x="22" y="-178" on="1"/>
      </contour>
    </TTGlyph>
    <TTGlyph name="fraction.afrc" xMin="77" yMin="314" xMax="567" yMax="362">
      <contour>
        <pt x="87" y="362" on="1"/>
        <pt x="567" y="362" on="1"/>
        <pt x="557" y="314" on="1"/>
        <pt x="77" y="314" on="1"/>
      </contour>
    </TTGlyph>
    <TTGlyph name="g" xMin="61" yMin="-192" xMax="578" yMax="551">
      <contour>
        <pt x="236" y="89" on="1"/>
        <pt x="281" y="89" on="0"/>
        <pt x="373" y="160" on="0"/>
        <pt x="413" y="226" on="1"/>
        <pt x="421" y="286" on="0"/>
        <pt x="455" y="410" on="0"/>
        <pt x="475" y="459" on="1"/>
        <pt x="442" y="476" on="0"/>
        <pt x="380" y="492" on="0"/>
        <pt x="356" y="492" on="1"/>
        <pt x="310" y="492" on="0"/>
        <pt x="232" y="443" on="0"/>
        <pt x="175" y="363" on="0"/>
        <pt x="143" y="263" on="0"/>
        <pt x="143" y="211" on="1"/>
        <pt x="143" y="149" on="0"/>
        <pt x="197" y="89" on="0"/>
      </contour>
      <contour>
        <pt x="472" y="-99" on="1"/>
        <pt x="452" y="-140" on="0"/>
        <pt x="308" y="-192" on="0"/>
        <pt x="167" y="-192" on="1"/>
        <pt x="118" y="-192" on="0"/>
        <pt x="61" y="-189" on="1"/>
        <pt x="69" y="-119" on="1"/>
        <pt x="112" y="-123" on="0"/>
        <pt x="185" y="-126" on="0"/>
        <pt x="216" y="-126" on="1"/>
        <pt x="305" y="-126" on="0"/>
        <pt x="393" y="-104" on="0"/>
        <pt x="406" y="-91" on="1"/>
        <pt x="420" y="-77" on="0"/>
        <pt x="420" y="-40" on="1"/>
        <pt x="420" y="-6" on="0"/>
        <pt x="408" y="90" on="0"/>
        <pt x="408" y="153" on="1"/>
        <pt x="367" y="98" on="0"/>
        <pt x="264" y="24" on="0"/>
        <pt x="207" y="24" on="1"/>
        <pt x="148" y="24" on="0"/>
        <pt x="74" y="110" on="0"/>
        <pt x="74" y="195" on="1"/>
        <pt x="74" y="264" on="0"/>
        <pt x="121" y="392" on="0"/>
        <pt x="204" y="491" on="0"/>
        <pt x="318" y="551" on="0"/>
        <pt x="386" y="551" on="1"/>
        <pt x="416" y="551" on="0"/>
        <pt x="475" y="537" on="0"/>
        <pt x="505" y="524" on="1"/>
        <pt x="521" y="551" on="0"/>
        <pt x="531" y="551" on="1"/>
        <pt x="545" y="551" on="0"/>
        <pt x="578" y="534" on="0"/>
        <pt x="578" y="524" on="1"/>
        <pt x="578" y="512" on="0"/>
        <pt x="561" y="451" on="0"/>
        <pt x="533" y="372" on="0"/>
        <pt x="496" y="282" on="0"/>
        <pt x="475" y="240" on="1"/>
        <pt x="472" y="205" on="0"/>
        <pt x="472" y="178" on="1"/>
        <pt x="472" y="103" on="0"/>
        <pt x="484" y="0" on="0"/>
        <pt x="484" y="-37" on="1"/>
        <pt x="484" y="-55" on="0"/>
        <pt x="479" y="-85" on="0"/>
      </contour>
    </TTGlyph>
    <TTGlyph name="gbreve" xMin="61" yMin="-192" xMax="624" yMax="829">
      <component glyphName="g" x="0" y="0" flags="0x204"/>
      <component glyphName="breve" x="99" y="13" flags="0x4"/>
    </TTGlyph>
    <TTGlyph name="gcommaaccent" xMin="61" yMin="-192" xMax="578" yMax="858">
      <component glyphName="commaaccent.rot" x="78" y="13" flags="0x204"/>
      <component glyphName="g" x="0" y="0" flags="0x4"/>
    </TTGlyph>
    <TTGlyph name="gdotaccent" xMin="61" yMin="-192" xMax="578" yMax="791">
      <component glyphName="g" x="0" y="0" flags="0x204"/>
      <component glyphName="dotaccent" x="91" y="13" flags="0x4"/>
    </TTGlyph>
    <TTGlyph name="germandbls" xMin="68" yMin="-9" xMax="564" yMax="776">
      <contour>
        <pt x="239" y="60" on="1"/>
        <pt x="264" y="57" on="0"/>
        <pt x="307" y="55" on="0"/>
        <pt x="327" y="55" on="1"/>
        <pt x="410" y="55" on="0"/>
        <pt x="480" y="100" on="0"/>
        <pt x="480" y="137" on="1"/>
        <pt x="480" y="178" on="0"/>
        <pt x="398" y="286" on="0"/>
        <pt x="305" y="360" on="1"/>
        <pt x="356" y="407" on="0"/>
        <pt x="427" y="482" on="0"/>
        <pt x="472" y="546" on="0"/>
        <pt x="493" y="602" on="0"/>
        <pt x="493" y="629" on="1"/>
        <pt x="493" y="667" on="0"/>
        <pt x="449" y="716" on="0"/>
        <pt x="404" y="716" on="1"/>
        <pt x="343" y="716" on="0"/>
        <pt x="258" y="615" on="0"/>
        <pt x="238" y="519" on="1"/>
        <pt x="138" y="0" on="1"/>
        <pt x="68" y="0" on="1"/>
        <pt x="169" y="514" on="1"/>
        <pt x="181" y="575" on="0"/>
        <pt x="228" y="673" on="0"/>
        <pt x="294" y="740" on="0"/>
        <pt x="377" y="776" on="0"/>
        <pt x="424" y="776" on="1"/>
        <pt x="460" y="776" on="0"/>
        <pt x="512" y="755" on="0"/>
        <pt x="547" y="719" on="0"/>
        <pt x="564" y="671" on="0"/>
        <pt x="564" y="644" on="1"/>
        <pt x="564" y="583" on="0"/>
        <pt x="477" y="453" on="0"/>
        <pt x="390" y="375" on="1"/>
        <pt x="465" y="313" on="0"/>
        <pt x="550" y="200" on="0"/>
        <pt x="550" y="148" on="1"/>
        <pt x="550" y="117" on="0"/>
        <pt x="522" y="60" on="0"/>
        <pt x="460" y="17" on="0"/>
        <pt x="360" y="-9" on="0"/>
        <pt x="288" y="-9" on="1"/>
        <pt x="274" y="-9" on="0"/>
        <pt x="245" y="-8" on="0"/>
        <pt x="230" y="-7" on="1"/>
      </contour>
    </TTGlyph>
    <TTGlyph name="grave" xMin="176" yMin="611" xMax="423" yMax="845">
      <contour>
        <pt x="403" y="611" on="1"/>
        <pt x="378" y="626" on="0"/>
        <pt x="318" y="668" on="0"/>
        <pt x="256" y="716" on="0"/>
        <pt x="198" y="766" on="0"/>
        <pt x="176" y="789" on="1"/>
        <pt x="229" y="845" on="1"/>
        <pt x="248" y="821" on="0"/>
        <pt x="296" y="765" on="0"/>
        <pt x="348" y="710" on="0"/>
        <pt x="400" y="660" on="0"/>
        <pt x="423" y="641" on="1"/>
      </contour>
    </TTGlyph>
    <TTGlyph name="grave.cap" xMin="176" yMin="611" xMax="423" yMax="845">
      <contour>
        <pt x="403" y="611" on="1"/>
        <pt x="378" y="626" on="0"/>
        <pt x="318" y="668" on="0"/>
        <pt x="256" y="716" on="0"/>
        <pt x="198" y="766" on="0"/>
        <pt x="176" y="789" on="1"/>
        <pt x="229" y="845" on="1"/>
        <pt x="248" y="821" on="0"/>
        <pt x="296" y="765" on="0"/>
        <pt x="348" y="710" on="0"/>
        <pt x="400" y="660" on="0"/>
        <pt x="423" y="641" on="1"/>
      </contour>
    </TTGlyph>
    <TTGlyph name="greater" xMin="80" yMin="-19" xMax="545" yMax="658">
      <contour>
        <pt x="80" y="35" on="1"/>
        <pt x="472" y="311" on="1"/>
        <pt x="474" y="321" on="1"/>
        <pt x="188" y="611" on="1"/>
        <pt x="236" y="658" on="1"/>
        <pt x="545" y="341" on="1"/>
        <pt x="534" y="280" on="1"/>
        <pt x="112" y="-19" on="1"/>
      </contour>
    </TTGlyph>
    <TTGlyph name="greaterequal" xMin="47" yMin="21" xMax="548" yMax="650">
      <contour>
        <pt x="185" y="599" on="1"/>
        <pt x="222" y="650" on="1"/>
        <pt x="548" y="409" on="1"/>
        <pt x="537" y="352" on="1"/>
        <pt x="117" y="143" on="1"/>
        <pt x="100" y="200" on="1"/>
        <pt x="469" y="382" on="1"/>
        <pt x="471" y="390" on="1"/>
      </contour>
      <contour>
        <pt x="483" y="21" on="1"/>
        <pt x="47" y="21" on="1"/>
        <pt x="58" y="81" on="1"/>
        <pt x="493" y="81" on="1"/>
      </contour>
    </TTGlyph>
    <TTGlyph name="guillemotleft" xMin="64" yMin="-12" xMax="628" yMax="554">
      <contour>
        <pt x="64" y="234" on="1"/>
        <pt x="81" y="308" on="1"/>
        <pt x="320" y="554" on="1"/>
        <pt x="366" y="510" on="1"/>
        <pt x="120" y="267" on="1"/>
        <pt x="270" y="26" on="1"/>
        <pt x="211" y="-12" on="1"/>
      </contour>
      <contour>
        <pt x="324" y="236" on="1"/>
        <pt x="342" y="310" on="1"/>
        <pt x="582" y="553" on="1"/>
        <pt x="628" y="508" on="1"/>
        <pt x="380" y="268" on="1"/>
        <pt x="527" y="24" on="1"/>
        <pt x="468" y="-12" on="1"/>
      </contour>
    </TTGlyph>
    <TTGlyph name="guillemotleft.cap" xMin="79" yMin="63" xMax="643" yMax="629">
      <component glyphName="guillemotleft" x="15" y="75" flags="0x204"/>
    </TTGlyph>
    <TTGlyph name="guillemotright" xMin="19" yMin="-13" xMax="582" yMax="553">
      <contour>
        <pt x="281" y="32" on="1"/>
        <pt x="525" y="274" on="1"/>
        <pt x="376" y="516" on="1"/>
        <pt x="435" y="553" on="1"/>
        <pt x="582" y="307" on="1"/>
        <pt x="565" y="233" on="1"/>
        <pt x="327" y="-13" on="1"/>
      </contour>
      <contour>
        <pt x="19" y="34" on="1"/>
        <pt x="267" y="273" on="1"/>
        <pt x="119" y="517" on="1"/>
        <pt x="178" y="553" on="1"/>
        <pt x="323" y="305" on="1"/>
        <pt x="305" y="231" on="1"/>
        <pt x="64" y="-11" on="1"/>
      </contour>
    </TTGlyph>
    <TTGlyph name="guillemotright.cap" xMin="34" yMin="62" xMax="597" yMax="628">
      <component glyphName="guillemotright" x="15" y="75" flags="0x204"/>
    </TTGlyph>
    <TTGlyph name="guilsinglleft" xMin="144" yMin="-18" xMax="517" yMax="557">
      <contour>
        <pt x="144" y="236" on="1"/>
        <pt x="163" y="310" on="1"/>
        <pt x="477" y="557" on="1"/>
        <pt x="517" y="503" on="1"/>
        <pt x="207" y="267" on="1"/>
        <pt x="411" y="30" on="1"/>
        <pt x="359" y="-18" on="1"/>
      </contour>
    </TTGlyph>
    <TTGlyph name="guilsinglleft.cap" xMin="159" yMin="57" xMax="532" yMax="632">
      <component glyphName="guilsinglleft" x="15" y="75" flags="0x204"/>
    </TTGlyph>
    <TTGlyph name="guilsinglright" xMin="100" yMin="-16" xMax="473" yMax="559">
      <contour>
        <pt x="100" y="37" on="1"/>
        <pt x="410" y="273" on="1"/>
        <pt x="206" y="511" on="1"/>
        <pt x="258" y="559" on="1"/>
        <pt x="473" y="304" on="1"/>
        <pt x="454" y="230" on="1"/>
        <pt x="140" y="-16" on="1"/>
      </contour>
    </TTGlyph>
    <TTGlyph name="guilsinglright.cap" xMin="115" yMin="59" xMax="488" yMax="634">
      <component glyphName="guilsinglright" x="15" y="75" flags="0x204"/>
    </TTGlyph>
    <TTGlyph name="h" xMin="65" yMin="-11" xMax="576" yMax="780">
      <contour>
        <pt x="576" y="38" on="1"/>
        <pt x="534" y="12" on="0"/>
        <pt x="471" y="-11" on="0"/>
        <pt x="448" y="-11" on="1"/>
        <pt x="419" y="-11" on="0"/>
        <pt x="390" y="23" on="0"/>
        <pt x="390" y="52" on="1"/>
        <pt x="390" y="85" on="0"/>
        <pt x="413" y="182" on="0"/>
        <pt x="442" y="286" on="0"/>
        <pt x="465" y="384" on="0"/>
        <pt x="465" y="419" on="1"/>
        <pt x="465" y="486" on="0"/>
        <pt x="406" y="486" on="1"/>
        <pt x="367" y="486" on="0"/>
        <pt x="262" y="422" on="0"/>
        <pt x="203" y="356" on="1"/>
        <pt x="134" y="0" on="1"/>
        <pt x="65" y="0" on="1"/>
        <pt x="215" y="774" on="1"/>
        <pt x="285" y="780" on="1"/>
        <pt x="215" y="419" on="1"/>
        <pt x="276" y="485" on="0"/>
        <pt x="394" y="551" on="0"/>
        <pt x="446" y="551" on="1"/>
        <pt x="497" y="551" on="0"/>
        <pt x="540" y="492" on="0"/>
        <pt x="540" y="450" on="1"/>
        <pt x="540" y="409" on="0"/>
        <pt x="516" y="302" on="0"/>
        <pt x="487" y="196" on="0"/>
        <pt x="463" y="105" on="0"/>
        <pt x="463" y="80" on="1"/>
        <pt x="463" y="66" on="0"/>
        <pt x="472" y="51" on="0"/>
        <pt x="486" y="51" on="1"/>
        <pt x="497" y="51" on="0"/>
        <pt x="535" y="63" on="0"/>
        <pt x="564" y="75" on="1"/>
        <pt x="576" y="38" on="1"/>
      </contour>
    </TTGlyph>
    <TTGlyph name="hbar" xMin="65" yMin="-11" xMax="576" yMax="780">
      <contour>
        <pt x="576" y="38" on="1"/>
        <pt x="534" y="12" on="0"/>
        <pt x="471" y="-11" on="0"/>
        <pt x="448" y="-11" on="1"/>
        <pt x="419" y="-11" on="0"/>
        <pt x="390" y="23" on="0"/>
        <pt x="390" y="52" on="1"/>
        <pt x="390" y="84" on="0"/>
        <pt x="413" y="181" on="0"/>
        <pt x="442" y="285" on="0"/>
        <pt x="465" y="383" on="0"/>
        <pt x="465" y="418" on="1"/>
        <pt x="465" y="485" on="0"/>
        <pt x="406" y="485" on="1"/>
        <pt x="367" y="485" on="0"/>
        <pt x="262" y="421" on="0"/>
        <pt x="203" y="355" on="1"/>
        <pt x="134" y="0" on="1"/>
        <pt x="65" y="0" on="1"/>
        <pt x="190" y="647" on="1"/>
        <pt x="108" y="647" on="1"/>
        <pt x="118" y="695" on="1"/>
        <pt x="200" y="695" on="1"/>
        <pt x="215" y="774" on="1"/>
        <pt x="285" y="780" on="1"/>
        <pt x="269" y="695" on="1"/>
        <pt x="422" y="695" on="1"/>
        <pt x="413" y="647" on="1"/>
        <pt x="259" y="647" on="1"/>
        <pt x="215" y="419" on="1"/>
        <pt x="276" y="485" on="0"/>
        <pt x="394" y="550" on="0"/>
        <pt x="446" y="550" on="1"/>
        <pt x="497" y="550" on="0"/>
        <pt x="540" y="492" on="0"/>
        <pt x="540" y="449" on="1"/>
        <pt x="540" y="408" on="0"/>
        <pt x="516" y="301" on="0"/>
        <pt x="487" y="196" on="0"/>
        <pt x="463" y="105" on="0"/>
        <pt x="463" y="80" on="1"/>
        <pt x="463" y="66" on="0"/>
        <pt x="472" y="51" on="0"/>
        <pt x="486" y="51" on="1"/>
        <pt x="497" y="51" on="0"/>
        <pt x="535" y="63" on="0"/>
        <pt x="564" y="75" on="1"/>
        <pt x="576" y="38" on="1"/>
      </contour>
    </TTGlyph>
    <TTGlyph name="hcoslug" xMin="50" yMin="-100" xMax="644" yMax="700">
      <contour>
        <pt x="644" y="-100" on="1"/>
        <pt x="50" y="-100" on="1"/>
        <pt x="50" y="700" on="1"/>
        <pt x="644" y="700" on="1"/>
      </contour>
      <contour>
        <pt x="247" y="428" on="1"/>
        <pt x="247" y="441" on="0"/>
        <pt x="262" y="457" on="0"/>
        <pt x="274" y="457" on="1"/>
        <pt x="287" y="457" on="0"/>
        <pt x="303" y="436" on="0"/>
        <pt x="303" y="419" on="1"/>
        <pt x="303" y="406" on="0"/>
        <pt x="293" y="382" on="0"/>
        <pt x="285" y="369" on="1"/>
        <pt x="268" y="386" on="0"/>
        <pt x="247" y="411" on="0"/>
      </contour>
      <contour>
        <pt x="312" y="342" on="1"/>
        <pt x="342" y="362" on="0"/>
        <pt x="354" y="376" on="1"/>
        <pt x="369" y="361" on="0"/>
        <pt x="369" y="342" on="1"/>
        <pt x="369" y="325" on="0"/>
        <pt x="353" y="296" on="1"/>
        <pt x="343" y="307" on="0"/>
        <pt x="324" y="330" on="0"/>
      </contour>
      <contour>
        <pt x="261" y="219" on="1"/>
        <pt x="238" y="219" on="0"/>
        <pt x="209" y="250" on="0"/>
        <pt x="209" y="273" on="1"/>
        <pt x="209" y="297" on="0"/>
        <pt x="225" y="313" on="1"/>
        <pt x="239" y="300" on="0"/>
        <pt x="278" y="257" on="0"/>
        <pt x="299" y="231" on="1"/>
        <pt x="284" y="219" on="0"/>
      </contour>
      <contour>
        <pt x="382" y="264" on="1"/>
        <pt x="393" y="279" on="0"/>
        <pt x="417" y="299" on="0"/>
        <pt x="428" y="306" on="1"/>
        <pt x="435" y="295" on="0"/>
        <pt x="457" y="281" on="0"/>
        <pt x="471" y="281" on="1"/>
        <pt x="492" y="281" on="0"/>
        <pt x="521" y="312" on="0"/>
        <pt x="521" y="335" on="1"/>
        <pt x="521" y="358" on="0"/>
        <pt x="492" y="387" on="0"/>
        <pt x="471" y="387" on="1"/>
        <pt x="436" y="387" on="0"/>
        <pt x="411" y="349" on="1"/>
        <pt x="409" y="369" on="0"/>
        <pt x="385" y="386" on="0"/>
        <pt x="365" y="386" on="1"/>
        <pt x="362" y="386" on="1"/>
        <pt x="371" y="401" on="0"/>
        <pt x="371" y="420" on="1"/>
        <pt x="371" y="433" on="0"/>
        <pt x="359" y="460" on="0"/>
        <pt x="335" y="481" on="0"/>
        <pt x="299" y="494" on="0"/>
        <pt x="276" y="494" on="1"/>
        <pt x="251" y="494" on="0"/>
        <pt x="211" y="480" on="0"/>
        <pt x="182" y="456" on="0"/>
        <pt x="167" y="425" on="0"/>
        <pt x="167" y="409" on="1"/>
        <pt x="167" y="387" on="0"/>
        <pt x="182" y="357" on="0"/>
        <pt x="198" y="340" on="1"/>
        <pt x="116" y="312" on="0"/>
        <pt x="116" y="249" on="1"/>
        <pt x="116" y="229" on="0"/>
        <pt x="133" y="195" on="0"/>
        <pt x="163" y="170" on="0"/>
        <pt x="202" y="156" on="0"/>
        <pt x="225" y="156" on="1"/>
        <pt x="288" y="156" on="0"/>
        <pt x="329" y="201" on="1"/>
        <pt x="354" y="175" on="0"/>
        <pt x="391" y="156" on="0"/>
        <pt x="414" y="156" on="1"/>
        <pt x="446" y="156" on="0"/>
        <pt x="492" y="206" on="0"/>
        <pt x="494" y="250" on="1"/>
        <pt x="487" y="252" on="1"/>
        <pt x="479" y="239" on="0"/>
        <pt x="460" y="223" on="0"/>
        <pt x="444" y="223" on="1"/>
        <pt x="429" y="223" on="0"/>
        <pt x="401" y="242" on="0"/>
      </contour>
      <contour>
        <pt x="274" y="122" on="1"/>
        <pt x="274" y="113" on="1"/>
        <pt x="267" y="113" on="1"/>
        <pt x="267" y="106" on="1"/>
        <pt x="274" y="106" on="1"/>
        <pt x="274" y="86" on="1"/>
        <pt x="274" y="73" on="0"/>
        <pt x="286" y="73" on="1"/>
        <pt x="297" y="73" on="0"/>
        <pt x="300" y="86" on="1"/>
        <pt x="295" y="88" on="1"/>
        <pt x="294" y="81" on="0"/>
        <pt x="290" y="81" on="1"/>
        <pt x="286" y="81" on="0"/>
        <pt x="286" y="86" on="1"/>
        <pt x="286" y="106" on="1"/>
        <pt x="299" y="106" on="1"/>
        <pt x="299" y="113" on="1"/>
        <pt x="286" y="113" on="1"/>
        <pt x="286" y="124" on="1"/>
      </contour>
      <contour>
        <pt x="174" y="94" on="1"/>
        <pt x="174" y="84" on="0"/>
        <pt x="186" y="73" on="0"/>
        <pt x="195" y="73" on="1"/>
        <pt x="204" y="73" on="0"/>
        <pt x="216" y="85" on="0"/>
        <pt x="216" y="94" on="1"/>
        <pt x="216" y="103" on="0"/>
        <pt x="204" y="114" on="0"/>
        <pt x="195" y="114" on="1"/>
        <pt x="186" y="114" on="0"/>
        <pt x="174" y="103" on="0"/>
      </contour>
      <contour>
        <pt x="203" y="94" on="1"/>
        <pt x="203" y="78" on="0"/>
        <pt x="195" y="78" on="1"/>
        <pt x="187" y="78" on="0"/>
        <pt x="187" y="94" on="1"/>
        <pt x="187" y="109" on="0"/>
        <pt x="195" y="109" on="1"/>
        <pt x="203" y="109" on="0"/>
      </contour>
      <contour>
        <pt x="379" y="93" on="1"/>
        <pt x="379" y="80" on="0"/>
        <pt x="372" y="80" on="1"/>
        <pt x="364" y="80" on="0"/>
        <pt x="364" y="93" on="1"/>
        <pt x="364" y="106" on="0"/>
        <pt x="372" y="106" on="1"/>
        <pt x="379" y="106" on="0"/>
      </contour>
      <contour>
        <pt x="219" y="74" on="1"/>
        <pt x="241" y="74" on="1"/>
        <pt x="241" y="81" on="1"/>
        <pt x="237" y="81" on="1"/>
        <pt x="237" y="96" on="1"/>
        <pt x="237" y="106" on="0"/>
        <pt x="244" y="106" on="1"/>
        <pt x="250" y="106" on="0"/>
        <pt x="250" y="99" on="1"/>
        <pt x="250" y="81" on="1"/>
        <pt x="246" y="81" on="1"/>
        <pt x="246" y="74" on="1"/>
        <pt x="268" y="74" on="1"/>
        <pt x="268" y="81" on="1"/>
        <pt x="262" y="81" on="1"/>
        <pt x="262" y="100" on="1"/>
        <pt x="262" y="114" on="0"/>
        <pt x="250" y="114" on="1"/>
        <pt x="241" y="114" on="0"/>
        <pt x="236" y="103" on="1"/>
        <pt x="236" y="113" on="1"/>
        <pt x="219" y="113" on="1"/>
        <pt x="219" y="106" on="1"/>
        <pt x="225" y="106" on="1"/>
        <pt x="225" y="81" on="1"/>
        <pt x="219" y="81" on="1"/>
      </contour>
      <contour>
        <pt x="125" y="74" on="1"/>
        <pt x="155" y="74" on="1"/>
        <pt x="155" y="81" on="1"/>
        <pt x="145" y="81" on="1"/>
        <pt x="145" y="97" on="1"/>
        <pt x="149" y="97" on="1"/>
        <pt x="154" y="97" on="0"/>
        <pt x="155" y="89" on="1"/>
        <pt x="162" y="89" on="1"/>
        <pt x="162" y="112" on="1"/>
        <pt x="155" y="112" on="1"/>
        <pt x="154" y="104" on="0"/>
        <pt x="149" y="104" on="1"/>
        <pt x="145" y="104" on="1"/>
        <pt x="145" y="122" on="1"/>
        <pt x="157" y="122" on="1"/>
        <pt x="162" y="122" on="0"/>
        <pt x="166" y="117" on="0"/>
        <pt x="168" y="109" on="1"/>
        <pt x="176" y="109" on="1"/>
        <pt x="176" y="129" on="1"/>
        <pt x="125" y="129" on="1"/>
        <pt x="125" y="122" on="1"/>
        <pt x="132" y="122" on="1"/>
        <pt x="132" y="81" on="1"/>
        <pt x="125" y="81" on="1"/>
      </contour>
      <contour>
        <pt x="302" y="74" on="1"/>
        <pt x="309" y="74" on="1"/>
        <pt x="310" y="78" on="1"/>
        <pt x="312" y="76" on="0"/>
        <pt x="318" y="73" on="0"/>
        <pt x="323" y="73" on="1"/>
        <pt x="337" y="73" on="0"/>
        <pt x="337" y="86" on="1"/>
        <pt x="337" y="92" on="0"/>
        <pt x="329" y="97" on="0"/>
        <pt x="320" y="99" on="0"/>
        <pt x="313" y="101" on="0"/>
        <pt x="313" y="104" on="1"/>
        <pt x="313" y="108" on="0"/>
        <pt x="318" y="108" on="1"/>
        <pt x="323" y="108" on="0"/>
        <pt x="328" y="101" on="1"/>
        <pt x="335" y="101" on="1"/>
        <pt x="335" y="114" on="1"/>
        <pt x="329" y="114" on="1"/>
        <pt x="327" y="109" on="1"/>
        <pt x="324" y="114" on="0"/>
        <pt x="316" y="114" on="1"/>
        <pt x="309" y="114" on="0"/>
        <pt x="302" y="107" on="0"/>
        <pt x="302" y="102" on="1"/>
        <pt x="302" y="96" on="0"/>
        <pt x="309" y="91" on="0"/>
        <pt x="318" y="88" on="0"/>
        <pt x="326" y="86" on="0"/>
        <pt x="326" y="83" on="1"/>
        <pt x="326" y="79" on="0"/>
        <pt x="321" y="79" on="1"/>
        <pt x="315" y="79" on="0"/>
        <pt x="309" y="88" on="1"/>
        <pt x="302" y="88" on="1"/>
      </contour>
      <contour>
        <pt x="352" y="73" on="1"/>
        <pt x="358" y="73" on="1"/>
        <pt x="362" y="81" on="1"/>
        <pt x="367" y="73" on="0"/>
        <pt x="376" y="73" on="1"/>
        <pt x="385" y="73" on="0"/>
        <pt x="392" y="87" on="0"/>
        <pt x="392" y="94" on="1"/>
        <pt x="392" y="114" on="0"/>
        <pt x="377" y="114" on="1"/>
        <pt x="367" y="114" on="0"/>
        <pt x="364" y="105" on="1"/>
        <pt x="364" y="132" on="1"/>
        <pt x="346" y="132" on="1"/>
        <pt x="346" y="125" on="1"/>
        <pt x="352" y="125" on="1"/>
      </contour>
      <contour>
        <pt x="405" y="65" on="1"/>
        <pt x="407" y="67" on="0"/>
        <pt x="407" y="69" on="1"/>
        <pt x="407" y="75" on="0"/>
        <pt x="400" y="75" on="1"/>
        <pt x="393" y="75" on="0"/>
        <pt x="393" y="68" on="1"/>
        <pt x="393" y="59" on="0"/>
        <pt x="404" y="59" on="1"/>
        <pt x="416" y="59" on="0"/>
        <pt x="422" y="75" on="1"/>
        <pt x="435" y="106" on="1"/>
        <pt x="440" y="106" on="1"/>
        <pt x="440" y="113" on="1"/>
        <pt x="423" y="113" on="1"/>
        <pt x="423" y="106" on="1"/>
        <pt x="428" y="106" on="1"/>
        <pt x="420" y="86" on="1"/>
        <pt x="411" y="106" on="1"/>
        <pt x="417" y="106" on="1"/>
        <pt x="417" y="113" on="1"/>
        <pt x="392" y="113" on="1"/>
        <pt x="392" y="106" on="1"/>
        <pt x="397" y="106" on="1"/>
        <pt x="399" y="99" on="0"/>
        <pt x="403" y="93" on="1"/>
        <pt x="405" y="88" on="0"/>
        <pt x="411" y="77" on="0"/>
        <pt x="413" y="73" on="1"/>
        <pt x="411" y="65" on="0"/>
      </contour>
      <contour>
        <pt x="446" y="33" on="1"/>
        <pt x="446" y="26" on="1"/>
        <pt x="452" y="26" on="1"/>
        <pt x="450" y="21" on="0"/>
        <pt x="446" y="17" on="1"/>
        <pt x="443" y="20" on="0"/>
        <pt x="438" y="26" on="0"/>
        <pt x="434" y="30" on="1"/>
        <pt x="445" y="35" on="0"/>
        <pt x="445" y="42" on="1"/>
        <pt x="445" y="47" on="0"/>
        <pt x="438" y="54" on="0"/>
        <pt x="431" y="54" on="1"/>
        <pt x="423" y="54" on="0"/>
        <pt x="414" y="45" on="0"/>
        <pt x="414" y="40" on="1"/>
        <pt x="414" y="34" on="0"/>
        <pt x="420" y="28" on="1"/>
        <pt x="407" y="24" on="0"/>
        <pt x="407" y="13" on="1"/>
        <pt x="407" y="-1" on="0"/>
        <pt x="425" y="-1" on="1"/>
        <pt x="434" y="-1" on="0"/>
        <pt x="440" y="5" on="1"/>
        <pt x="445" y="-1" on="0"/>
        <pt x="452" y="-1" on="1"/>
        <pt x="462" y="-1" on="0"/>
        <pt x="465" y="11" on="1"/>
        <pt x="460" y="12" on="1"/>
        <pt x="459" y="7" on="0"/>
        <pt x="456" y="7" on="1"/>
        <pt x="453" y="7" on="0"/>
        <pt x="450" y="12" on="1"/>
        <pt x="452" y="15" on="0"/>
        <pt x="457" y="21" on="0"/>
        <pt x="459" y="26" on="1"/>
        <pt x="464" y="26" on="1"/>
        <pt x="464" y="33" on="1"/>
      </contour>
      <contour>
        <pt x="294" y="42" on="1"/>
        <pt x="294" y="50" on="0"/>
        <pt x="298" y="54" on="0"/>
        <pt x="300" y="54" on="1"/>
        <pt x="301" y="54" on="0"/>
        <pt x="301" y="53" on="0"/>
        <pt x="302" y="53" on="1"/>
        <pt x="303" y="53" on="1"/>
        <pt x="302" y="52" on="1"/>
        <pt x="302" y="50" on="1"/>
        <pt x="302" y="44" on="0"/>
        <pt x="308" y="44" on="1"/>
        <pt x="308" y="39" on="1"/>
        <pt x="294" y="39" on="1"/>
      </contour>
      <contour>
        <pt x="469" y="27" on="1"/>
        <pt x="469" y="-1" on="0"/>
        <pt x="498" y="-1" on="1"/>
        <pt x="520" y="-1" on="0"/>
        <pt x="522" y="22" on="1"/>
        <pt x="514" y="22" on="1"/>
        <pt x="512" y="6" on="0"/>
        <pt x="500" y="6" on="1"/>
        <pt x="484" y="6" on="0"/>
        <pt x="484" y="28" on="1"/>
        <pt x="484" y="50" on="0"/>
        <pt x="498" y="50" on="1"/>
        <pt x="508" y="50" on="0"/>
        <pt x="513" y="34" on="1"/>
        <pt x="521" y="34" on="1"/>
        <pt x="521" y="56" on="1"/>
        <pt x="513" y="56" on="1"/>
        <pt x="512" y="50" on="1"/>
        <pt x="505" y="57" on="0"/>
        <pt x="496" y="57" on="1"/>
        <pt x="485" y="57" on="0"/>
        <pt x="469" y="41" on="0"/>
      </contour>
      <contour>
        <pt x="431" y="33" on="1"/>
        <pt x="425" y="39" on="0"/>
        <pt x="425" y="43" on="1"/>
        <pt x="425" y="48" on="0"/>
        <pt x="430" y="48" on="1"/>
        <pt x="436" y="48" on="0"/>
        <pt x="436" y="42" on="1"/>
        <pt x="436" y="36" on="0"/>
      </contour>
      <contour>
        <pt x="273" y="18" on="1"/>
        <pt x="273" y="21" on="1"/>
        <pt x="273" y="40" on="0"/>
        <pt x="254" y="40" on="1"/>
        <pt x="246" y="40" on="0"/>
        <pt x="234" y="28" on="0"/>
        <pt x="234" y="19" on="1"/>
        <pt x="234" y="-1" on="0"/>
        <pt x="255" y="-1" on="1"/>
        <pt x="269" y="-1" on="0"/>
        <pt x="273" y="13" on="1"/>
        <pt x="266" y="13" on="1"/>
        <pt x="265" y="6" on="0"/>
        <pt x="257" y="6" on="1"/>
        <pt x="247" y="6" on="0"/>
        <pt x="247" y="18" on="1"/>
      </contour>
      <contour>
        <pt x="189" y="20" on="1"/>
        <pt x="189" y="10" on="0"/>
        <pt x="201" y="-1" on="0"/>
        <pt x="210" y="-1" on="1"/>
        <pt x="219" y="-1" on="0"/>
        <pt x="231" y="11" on="0"/>
        <pt x="231" y="20" on="1"/>
        <pt x="231" y="29" on="0"/>
        <pt x="219" y="40" on="0"/>
        <pt x="210" y="40" on="1"/>
        <pt x="201" y="40" on="0"/>
        <pt x="189" y="29" on="0"/>
      </contour>
      <contour>
        <pt x="525" y="20" on="1"/>
        <pt x="525" y="10" on="0"/>
        <pt x="537" y="-1" on="0"/>
        <pt x="546" y="-1" on="1"/>
        <pt x="555" y="-1" on="0"/>
        <pt x="567" y="11" on="0"/>
        <pt x="567" y="20" on="1"/>
        <pt x="567" y="29" on="0"/>
        <pt x="555" y="40" on="0"/>
        <pt x="546" y="40" on="1"/>
        <pt x="537" y="40" on="0"/>
        <pt x="525" y="29" on="0"/>
      </contour>
      <contour>
        <pt x="366" y="18" on="1"/>
        <pt x="366" y="21" on="1"/>
        <pt x="366" y="40" on="0"/>
        <pt x="347" y="40" on="1"/>
        <pt x="339" y="40" on="0"/>
        <pt x="327" y="28" on="0"/>
        <pt x="327" y="19" on="1"/>
        <pt x="327" y="-1" on="0"/>
        <pt x="348" y="-1" on="1"/>
        <pt x="362" y="-1" on="0"/>
        <pt x="366" y="13" on="1"/>
        <pt x="359" y="13" on="1"/>
        <pt x="358" y="6" on="0"/>
        <pt x="350" y="6" on="1"/>
        <pt x="340" y="6" on="0"/>
        <pt x="340" y="18" on="1"/>
      </contour>
      <contour>
        <pt x="247" y="23" on="1"/>
        <pt x="247" y="35" on="0"/>
        <pt x="254" y="35" on="1"/>
        <pt x="261" y="35" on="0"/>
        <pt x="261" y="23" on="1"/>
      </contour>
      <contour>
        <pt x="218" y="20" on="1"/>
        <pt x="218" y="4" on="0"/>
        <pt x="210" y="4" on="1"/>
        <pt x="202" y="4" on="0"/>
        <pt x="202" y="20" on="1"/>
        <pt x="202" y="35" on="0"/>
        <pt x="210" y="35" on="1"/>
        <pt x="218" y="35" on="0"/>
      </contour>
      <contour>
        <pt x="554" y="20" on="1"/>
        <pt x="554" y="4" on="0"/>
        <pt x="546" y="4" on="1"/>
        <pt x="538" y="4" on="0"/>
        <pt x="538" y="20" on="1"/>
        <pt x="538" y="35" on="0"/>
        <pt x="546" y="35" on="1"/>
        <pt x="554" y="35" on="0"/>
      </contour>
      <contour>
        <pt x="340" y="23" on="1"/>
        <pt x="340" y="35" on="0"/>
        <pt x="347" y="35" on="1"/>
        <pt x="354" y="35" on="0"/>
        <pt x="354" y="23" on="1"/>
      </contour>
      <contour>
        <pt x="276" y="0" on="1"/>
        <pt x="299" y="0" on="1"/>
        <pt x="299" y="7" on="1"/>
        <pt x="294" y="7" on="1"/>
        <pt x="294" y="32" on="1"/>
        <pt x="308" y="32" on="1"/>
        <pt x="308" y="7" on="1"/>
        <pt x="303" y="7" on="1"/>
        <pt x="303" y="0" on="1"/>
        <pt x="326" y="0" on="1"/>
        <pt x="326" y="7" on="1"/>
        <pt x="320" y="7" on="1"/>
        <pt x="320" y="59" on="1"/>
        <pt x="310" y="57" on="1"/>
        <pt x="306" y="59" on="0"/>
        <pt x="301" y="59" on="1"/>
        <pt x="293" y="59" on="0"/>
        <pt x="282" y="50" on="0"/>
        <pt x="282" y="40" on="1"/>
        <pt x="282" y="39" on="1"/>
        <pt x="275" y="39" on="1"/>
        <pt x="275" y="32" on="1"/>
        <pt x="282" y="32" on="1"/>
        <pt x="282" y="7" on="1"/>
        <pt x="276" y="7" on="1"/>
      </contour>
      <contour>
        <pt x="368" y="0" on="1"/>
        <pt x="394" y="0" on="1"/>
        <pt x="394" y="7" on="1"/>
        <pt x="386" y="7" on="1"/>
        <pt x="386" y="23" on="1"/>
        <pt x="390" y="32" on="0"/>
        <pt x="393" y="32" on="1"/>
        <pt x="393" y="31" on="1"/>
        <pt x="393" y="25" on="0"/>
        <pt x="399" y="25" on="1"/>
        <pt x="406" y="25" on="0"/>
        <pt x="406" y="32" on="1"/>
        <pt x="406" y="40" on="0"/>
        <pt x="398" y="40" on="1"/>
        <pt x="390" y="40" on="0"/>
        <pt x="386" y="29" on="1"/>
        <pt x="386" y="39" on="1"/>
        <pt x="368" y="39" on="1"/>
        <pt x="368" y="32" on="1"/>
        <pt x="374" y="32" on="1"/>
        <pt x="374" y="7" on="1"/>
        <pt x="368" y="7" on="1"/>
      </contour>
      <contour>
        <pt x="437" y="9" on="1"/>
        <pt x="432" y="6" on="0"/>
        <pt x="429" y="6" on="1"/>
        <pt x="419" y="6" on="0"/>
        <pt x="419" y="16" on="1"/>
        <pt x="419" y="21" on="0"/>
        <pt x="423" y="25" on="1"/>
        <pt x="427" y="21" on="0"/>
        <pt x="433" y="14" on="0"/>
      </contour>
      <contour>
        <pt x="124" y="0" on="1"/>
        <pt x="153" y="0" on="1"/>
        <pt x="153" y="7" on="1"/>
        <pt x="145" y="7" on="1"/>
        <pt x="145" y="25" on="1"/>
        <pt x="167" y="25" on="1"/>
        <pt x="167" y="7" on="1"/>
        <pt x="159" y="7" on="1"/>
        <pt x="159" y="0" on="1"/>
        <pt x="188" y="0" on="1"/>
        <pt x="188" y="7" on="1"/>
        <pt x="180" y="7" on="1"/>
        <pt x="180" y="48" on="1"/>
        <pt x="188" y="48" on="1"/>
        <pt x="188" y="55" on="1"/>
        <pt x="159" y="55" on="1"/>
        <pt x="159" y="48" on="1"/>
        <pt x="167" y="48" on="1"/>
        <pt x="167" y="32" on="1"/>
        <pt x="145" y="32" on="1"/>
        <pt x="145" y="48" on="1"/>
        <pt x="153" y="48" on="1"/>
        <pt x="153" y="55" on="1"/>
        <pt x="124" y="55" on="1"/>
        <pt x="124" y="48" on="1"/>
        <pt x="132" y="48" on="1"/>
        <pt x="132" y="7" on="1"/>
        <pt x="124" y="7" on="1"/>
      </contour>
      <contour>
        <pt x="583" y="6" on="1"/>
        <pt x="583" y="13" on="0"/>
        <pt x="576" y="13" on="1"/>
        <pt x="569" y="13" on="0"/>
        <pt x="569" y="6" on="1"/>
        <pt x="569" y="-1" on="0"/>
        <pt x="576" y="-1" on="1"/>
        <pt x="583" y="-1" on="0"/>
      </contour>
    </TTGlyph>
    <TTGlyph name="hungarumlaut" xMin="152" yMin="619" xMax="606" yMax="857">
      <contour>
        <pt x="152" y="644" on="1"/>
        <pt x="172" y="666" on="0"/>
        <pt x="215" y="721" on="0"/>
        <pt x="256" y="778" on="0"/>
        <pt x="292" y="834" on="0"/>
        <pt x="306" y="857" on="1"/>
        <pt x="377" y="819" on="1"/>
        <pt x="359" y="797" on="0"/>
        <pt x="313" y="745" on="0"/>
        <pt x="261" y="692" on="0"/>
        <pt x="208" y="640" on="0"/>
        <pt x="183" y="619" on="1"/>
      </contour>
      <contour>
        <pt x="382" y="644" on="1"/>
        <pt x="402" y="666" on="0"/>
        <pt x="444" y="719" on="0"/>
        <pt x="484" y="775" on="0"/>
        <pt x="520" y="829" on="0"/>
        <pt x="534" y="853" on="1"/>
        <pt x="606" y="818" on="1"/>
        <pt x="589" y="795" on="0"/>
        <pt x="543" y="743" on="0"/>
        <pt x="492" y="691" on="0"/>
        <pt x="439" y="640" on="0"/>
        <pt x="414" y="619" on="1"/>
      </contour>
    </TTGlyph>
    <TTGlyph name="hungarumlaut.cap" xMin="152" yMin="619" xMax="606" yMax="857">
      <contour>
        <pt x="152" y="644" on="1"/>
        <pt x="172" y="666" on="0"/>
        <pt x="215" y="721" on="0"/>
        <pt x="256" y="778" on="0"/>
        <pt x="292" y="834" on="0"/>
        <pt x="306" y="857" on="1"/>
        <pt x="377" y="819" on="1"/>
        <pt x="359" y="797" on="0"/>
        <pt x="313" y="745" on="0"/>
        <pt x="261" y="692" on="0"/>
        <pt x="208" y="640" on="0"/>
        <pt x="183" y="619" on="1"/>
      </contour>
      <contour>
        <pt x="382" y="644" on="1"/>
        <pt x="402" y="666" on="0"/>
        <pt x="444" y="719" on="0"/>
        <pt x="484" y="775" on="0"/>
        <pt x="520" y="829" on="0"/>
        <pt x="534" y="853" on="1"/>
        <pt x="606" y="818" on="1"/>
        <pt x="589" y="795" on="0"/>
        <pt x="543" y="743" on="0"/>
        <pt x="492" y="691" on="0"/>
        <pt x="439" y="640" on="0"/>
        <pt x="414" y="619" on="1"/>
      </contour>
    </TTGlyph>
    <TTGlyph name="hyphen" xMin="144" yMin="292" xMax="484" yMax="353">
      <contour>
        <pt x="472" y="292" on="1"/>
        <pt x="144" y="292" on="1"/>
        <pt x="156" y="353" on="1"/>
        <pt x="484" y="353" on="1"/>
      </contour>
    </TTGlyph>
    <TTGlyph name="i" xMin="92" yMin="-11" xMax="527" yMax="780">
      <contour>
        <pt x="334" y="630" on="1"/>
        <pt x="368" y="777" on="1"/>
        <pt x="448" y="780" on="1"/>
        <pt x="405" y="634" on="1"/>
      </contour>
      <contour>
        <pt x="527" y="47" on="1"/>
        <pt x="381" y="-11" on="0"/>
        <pt x="303" y="-11" on="1"/>
        <pt x="251" y="-11" on="0"/>
        <pt x="202" y="35" on="0"/>
        <pt x="202" y="78" on="1"/>
        <pt x="202" y="104" on="0"/>
        <pt x="211" y="139" on="1"/>
        <pt x="299" y="475" on="1"/>
        <pt x="96" y="443" on="1"/>
        <pt x="92" y="482" on="1"/>
        <pt x="320" y="540" on="1"/>
        <pt x="383" y="538" on="1"/>
        <pt x="281" y="149" on="1"/>
        <pt x="274" y="124" on="0"/>
        <pt x="274" y="102" on="1"/>
        <pt x="274" y="77" on="0"/>
        <pt x="302" y="52" on="0"/>
        <pt x="337" y="52" on="1"/>
        <pt x="366" y="52" on="0"/>
        <pt x="454" y="70" on="0"/>
        <pt x="517" y="87" on="1"/>
      </contour>
    </TTGlyph>
    <TTGlyph name="iacute" xMin="92" yMin="-11" xMax="528" yMax="839">
      <component glyphName="acute" x="49" y="1" flags="0x204"/>
      <component glyphName="dotlessi" x="0" y="0" flags="0x4"/>
    </TTGlyph>
    <TTGlyph name="ibreve" xMin="92" yMin="-11" xMax="600" yMax="817">
      <component glyphName="dotlessi" x="0" y="0" flags="0x204"/>
      <component glyphName="breve" x="75" y="1" flags="0x4"/>
    </TTGlyph>
    <TTGlyph name="icircumflex" xMin="92" yMin="-11" xMax="562" yMax="826">
      <component glyphName="circumflex" x="65" y="1" flags="0x204"/>
      <component glyphName="dotlessi" x="0" y="0" flags="0x4"/>
    </TTGlyph>
    <TTGlyph name="idieresis" xMin="92" yMin="-11" xMax="558" yMax="781">
      <component glyphName="dieresis" x="56" y="1" flags="0x204"/>
      <component glyphName="dotlessi" x="0" y="0" flags="0x4"/>
    </TTGlyph>
    <TTGlyph name="igrave" xMin="92" yMin="-11" xMax="527" yMax="846">
      <component glyphName="dotlessi" x="0" y="0" flags="0x204"/>
      <component glyphName="grave" x="65" y="1" flags="0x4"/>
    </TTGlyph>
    <TTGlyph name="imacron" xMin="92" yMin="-11" xMax="569" yMax="738">
      <component glyphName="dotlessi" x="0" y="0" flags="0x204"/>
      <component glyphName="macron" x="72" y="1" flags="0x4"/>
    </TTGlyph>
</ttFont>
